STARTFONT 2.1
FONT -Gww-Caslon-Roman-R-Normal--33-240-100-100-P-195-ISO10646-1
SIZE 24 100 100
FONTBOUNDINGBOX 63 43 -34 -17
COMMENT "These bitmaps may be used freely"
COMMENT "Not all characters have been cleaned up"
COMMENT Copyright (C) 2000 by George Williams
COMMENT 
COMMENT Redistribution and use in source and binary forms, with or without
COMMENT modification, are permitted provided that the following conditions are met:
COMMENT 
COMMENT Redistributions of source code must retain the above copyright notice, this
COMMENT list of conditions and the following disclaimer.
COMMENT 
COMMENT Redistributions in binary form must reproduce the above copyright notice,
COMMENT this list of conditions and the following disclaimer in the documentation
COMMENT and/or other materials provided with the distribution.
COMMENT 
COMMENT The name of the author may not be used to endorse or promote products
COMMENT derived from this software without specific prior written permission.
COMMENT 
COMMENT THIS SOFTWARE IS PROVIDED BY THE AUTHOR ``AS IS'' AND ANY EXPRESS OR IMPLIED
COMMENT WARRANTIES, INCLUDING, BUT NOT LIMITED TO, THE IMPLIED WARRANTIES OF
COMMENT MERCHANTABILITY AND FITNESS FOR A PARTICULAR PURPOSE ARE DISCLAIMED. IN NO
COMMENT EVENT SHALL THE AUTHOR BE LIABLE FOR ANY DIRECT, INDIRECT, INCIDENTAL,
COMMENT SPECIAL, EXEMPLARY, OR CONSEQUENTIAL DAMAGES (INCLUDING, BUT NOT LIMITED TO,
COMMENT PROCUREMENT OF SUBSTITUTE GOODS OR SERVICES; LOSS OF USE, DATA, OR PROFITS;
COMMENT OR BUSINESS INTERRUPTION) HOWEVER CAUSED AND ON ANY THEORY OF LIABILITY,
COMMENT WHETHER IN CONTRACT, STRICT LIABILITY, OR TORT (INCLUDING NEGLIGENCE OR
COMMENT OTHERWISE) ARISING IN ANY WAY OUT OF THE USE OF THIS SOFTWARE, EVEN IF
COMMENT ADVISED OF THE POSSIBILITY OF SUCH DAMAGE.
STARTPROPERTIES 28
FONT_ASCENT 22
FONT_DESCENT 7
QUAD_WIDTH 33
X_HEIGHT 15
CAP_HEIGHT 22
FONTNAME_REGISTRY ""
FAMILY_NAME "Caslon"
FOUNDRY "GWW"
WEIGHT_NAME "Roman"
SETWIDTH_NAME "Normal"
SLANT "R"
ADD_STYLE_NAME ""

STARTCHAR space
ENCODING 32
SWIDTH 236 0
DWIDTH 8 0
BBX 0 0 0 0
BITMAP
ENDCHAR
STARTCHAR exclam
ENCODING 33
SWIDTH 217 0
DWIDTH 7 0
BBX 5 22 1 0
BITMAP
20
70
70
70
f8
f8
f8
70
70
70
70
20
20
20
20
20
00
00
00
70
f8
70
ENDCHAR
STARTCHAR quotedbl
ENCODING 34
SWIDTH 244 0
DWIDTH 8 0
BBX 5 4 1 18
BITMAP
d8
d8
50
50
ENDCHAR
STARTCHAR numbersign
ENCODING 35
SWIDTH 498 0
DWIDTH 16 0
BBX 16 20 0 1
BITMAP
0208
0208
0208
0208
0410
0410
3fff
0410
0410
0410
0820
0820
0820
fffc
0820
0820
0820
1040
1040
1040
ENDCHAR
STARTCHAR dollar
ENCODING 36
SWIDTH 573 0
DWIDTH 19 0
BBX 17 27 0 -4
BITMAP
008800
03f800
0dbc00
111f00
211300
211000
211000
611000
312000
392000
1f2000
0fe000
03fc00
027e00
022f00
024700
044380
044380
044380
444300
e48300
7c8600
3f9800
0fe000
088000
088000
088000
ENDCHAR
STARTCHAR percent
ENCODING 37
SWIDTH 1017 0
DWIDTH 34 0
BBX 30 24 1 0
BITMAP
00000100
07c00200
1c700200
38380400
701c0800
701c1000
e00e1000
e00e2000
e00e4000
e00e8000
701c8f80
701d38e0
383a7070
1c74e038
07c4e038
0009c01c
0011c01c
0021c01c
0041c01c
0040e038
0080e038
01007070
020038e0
02000f80
ENDCHAR
STARTCHAR ampersand
ENCODING 38
SWIDTH 900 0
DWIDTH 30 0
BBX 26 22 1 0
BITMAP
00f00000
01180000
02080000
06080000
06080000
06180000
03300000
03c00000
07c00000
08e1ffc0
10707e00
20383c00
601c3800
600c3000
c00e6000
c0074000
e0038000
60038080
7007c100
3c39e300
1fe0fe00
07803c00
ENDCHAR
STARTCHAR quotesingle
ENCODING 39
SWIDTH 220 0
DWIDTH 7 0
BBX 5 6 1 15
BITMAP
30
78
78
38
30
e0
ENDCHAR
STARTCHAR parenleft
ENCODING 40
SWIDTH 354 0
DWIDTH 12 0
BBX 9 29 0 -7
BITMAP
0080
0100
0200
0600
0c00
1800
3800
3000
3000
7000
7000
7000
f000
f000
f000
f000
f000
7000
7000
7000
3000
3000
3800
1800
0c00
0600
0200
0100
0080
ENDCHAR
STARTCHAR parenright
ENCODING 41
SWIDTH 354 0
DWIDTH 12 0
BBX 8 29 1 -6
BITMAP
80
40
60
20
10
18
0c
0c
0e
06
07
07
07
07
07
07
07
07
07
06
0e
0c
0c
18
10
20
60
40
80
ENDCHAR
STARTCHAR asterisk
ENCODING 42
SWIDTH 462 0
DWIDTH 15 0
BBX 12 11 2 4
BITMAP
0600
0600
c630
f6f0
3fc0
0f00
3fc0
f6f0
c630
0600
0600
ENDCHAR
STARTCHAR plus
ENCODING 43
SWIDTH 354 0
DWIDTH 12 0
BBX 10 10 1 4
BITMAP
0c00
0c00
0c00
0c00
ffc0
ffc0
0c00
0c00
0c00
0c00
ENDCHAR
STARTCHAR comma
ENCODING 44
SWIDTH 233 0
DWIDTH 8 0
BBX 5 6 1 -3
BITMAP
30
78
78
30
60
c0
ENDCHAR
STARTCHAR hyphen
ENCODING 45
SWIDTH 391 0
DWIDTH 13 0
BBX 9 2 1 7
BITMAP
ff80
ff80
ENDCHAR
STARTCHAR period
ENCODING 46
SWIDTH 220 0
DWIDTH 7 0
BBX 5 3 1 0
BITMAP
70
f8
70
ENDCHAR
STARTCHAR slash
ENCODING 47
SWIDTH 536 0
DWIDTH 18 0
BBX 13 20 3 0
BITMAP
0018
0038
0030
0070
0060
00e0
00c0
01c0
0180
0380
0700
0600
0e00
0c00
1c00
1800
3800
3000
7000
e000
ENDCHAR
STARTCHAR zero
ENCODING 48
SWIDTH 494 0
DWIDTH 16 0
BBX 13 19 1 0
BITMAP
0f80
38e0
7070
7070
e038
e038
e038
e038
e038
e038
e038
e038
e038
e038
e038
7070
7070
38e0
0f80
ENDCHAR
STARTCHAR one
ENCODING 49
SWIDTH 299 0
DWIDTH 10 0
BBX 7 19 2 0
BITMAP
08
78
38
38
38
38
38
38
38
38
38
38
38
38
38
38
38
38
fe
ENDCHAR
STARTCHAR two
ENCODING 50
SWIDTH 409 0
DWIDTH 13 0
BBX 11 19 1 0
BITMAP
1f80
31c0
60e0
40e0
c0e0
00e0
01c0
01c0
0380
0700
0600
0c00
1800
3000
2000
6020
7fe0
ffe0
ffe0
ENDCHAR
STARTCHAR three
ENCODING 51
SWIDTH 465 0
DWIDTH 15 0
BBX 12 19 2 0
BITMAP
1f00
3380
61c0
41c0
01c0
0180
0300
0700
1f80
03e0
01e0
00f0
0070
0070
7070
f8e0
70c0
61c0
3f00
ENDCHAR
STARTCHAR four
ENCODING 52
SWIDTH 528 0
DWIDTH 17 0
BBX 15 19 0 0
BITMAP
001c
003c
003c
005c
00dc
019c
031c
031c
061c
0c1c
181c
181c
301c
3ffe
7ffe
fffe
001c
001c
001c
ENDCHAR
STARTCHAR five
ENCODING 53
SWIDTH 441 0
DWIDTH 15 0
BBX 11 20 2 0
BITMAP
0040
7f80
7f80
7f80
4000
4000
4000
4000
7e00
7f80
43c0
01c0
00e0
00e0
00e0
60e0
f0e0
f0c0
6180
3f00
ENDCHAR
STARTCHAR six
ENCODING 54
SWIDTH 448 0
DWIDTH 15 0
BBX 13 19 1 0
BITMAP
0300
0e00
1c00
1800
3000
7000
6000
6fc0
f8e0
e070
e070
e038
e038
e038
7038
7070
3070
38e0
0f80
ENDCHAR
STARTCHAR seven
ENCODING 55
SWIDTH 463 0
DWIDTH 15 0
BBX 11 19 3 0
BITMAP
ffe0
ffc0
8040
80c0
0080
0180
0180
0180
0300
0300
0300
0600
0600
0600
0e00
0c00
1c00
1c00
3800
ENDCHAR
STARTCHAR eight
ENCODING 56
SWIDTH 472 0
DWIDTH 16 0
BBX 11 19 2 0
BITMAP
1f00
3180
60c0
60c0
60c0
60c0
7180
3f00
1e00
3f00
6380
c1c0
c0e0
c060
c060
c060
6060
70c0
1f80
ENDCHAR
STARTCHAR nine
ENCODING 57
SWIDTH 449 0
DWIDTH 15 0
BBX 13 19 1 0
BITMAP
0f80
38e0
7060
6070
e030
e038
e038
e038
7038
7078
38f8
1fb0
0030
0070
00e0
00c0
01c0
0380
0600
ENDCHAR
STARTCHAR colon
ENCODING 58
SWIDTH 220 0
DWIDTH 7 0
BBX 5 11 1 0
BITMAP
70
f8
70
00
00
00
00
00
70
f8
70
ENDCHAR
STARTCHAR semicolon
ENCODING 59
SWIDTH 220 0
DWIDTH 7 0
BBX 6 14 0 -3
BITMAP
38
7c
38
00
00
00
00
00
30
78
78
30
60
c0
ENDCHAR
STARTCHAR less
ENCODING 60
SWIDTH 591 0
DWIDTH 20 0
BBX 14 11 1 4
BITMAP
001c
007c
01e0
0f80
3e00
f000
3e00
0f80
01e0
007c
001c
ENDCHAR
STARTCHAR equal
ENCODING 61
SWIDTH 392 0
DWIDTH 13 0
BBX 11 7 1 6
BITMAP
ffe0
ffe0
0000
0000
0000
ffe0
ffe0
ENDCHAR
STARTCHAR greater
ENCODING 62
SWIDTH 586 0
DWIDTH 19 0
BBX 16 11 1 4
BITMAP
6000
7c00
1f00
03e0
00f8
001f
00f8
03e0
1f00
f800
e000
ENDCHAR
STARTCHAR question
ENCODING 63
SWIDTH 419 0
DWIDTH 14 0
BBX 9 23 2 0
BITMAP
7c00
ff00
f100
0080
0080
0080
0180
0700
7e00
7800
7000
6000
6000
2000
2000
2000
2000
0000
0000
0000
2000
7000
2000
ENDCHAR
STARTCHAR at
ENCODING 64
SWIDTH 808 0
DWIDTH 27 0
BBX 24 24 1 0
BITMAP
007f80
01ffe0
078070
0e0018
1c001c
181e8e
387f86
70e786
71c387
638387
638387
e38387
e38387
e38386
e38386
63c38e
71f7ec
70fe78
380000
3c0000
1e000e
07803c
03fff0
007fc0
ENDCHAR
STARTCHAR A
ENCODING 65
SWIDTH 732 0
DWIDTH 24 0
BBX 22 23 1 0
BITMAP
001000
003000
001800
003800
003800
003c00
005c00
005c00
008e00
008e00
008e00
01ff00
010700
020700
020380
020380
0401c0
0401c0
0801c0
0800e0
1800e0
1800f0
ff03fc
ENDCHAR
STARTCHAR B
ENCODING 66
SWIDTH 553 0
DWIDTH 18 0
BBX 17 22 0 0
BITMAP
fffc00
1c0e00
1c0700
1c0700
1c0700
1c0700
1c0600
1c0e00
1c1c00
1ffc00
1c0e00
1c0700
1c0700
1c0380
1c0380
1c0380
1c0300
1c0700
1c0700
1c0e00
1c1c00
fff000
ENDCHAR
STARTCHAR C
ENCODING 67
SWIDTH 601 0
DWIDTH 20 0
BBX 18 22 1 0
BITMAP
01fc80
070780
0e0380
1c0180
380180
700080
700080
e00080
e00000
e00000
e00000
e00000
e00000
e00000
e00040
700040
7000c0
380080
380180
1c0380
0e0f80
03f080
ENDCHAR
STARTCHAR D
ENCODING 68
SWIDTH 650 0
DWIDTH 21 0
BBX 20 22 0 0
BITMAP
fffe00
1c0700
1c0180
1c00c0
1c00e0
1c00e0
1c0070
1c0070
1c0070
1c0070
1c0070
1c0070
1c0070
1c0070
1c0070
1c00e0
1c00c0
1c0180
1c0380
1c0600
1c1c00
fff000
ENDCHAR
STARTCHAR E
ENCODING 69
SWIDTH 584 0
DWIDTH 19 0
BBX 18 22 0 0
BITMAP
ffff00
1c0780
1c0380
1c0180
1c0180
1c00c0
1c0840
1c0800
1c1800
1ff800
1c1800
1c1800
1c0800
1c0800
1c0000
1c0040
1c0080
1c0080
1c0180
1c0380
1c0700
ffff00
ENDCHAR
STARTCHAR F
ENCODING 70
SWIDTH 556 0
DWIDTH 18 0
BBX 16 22 0 0
BITMAP
fffe
1c0f
1c03
1c03
1c01
1c01
1c10
1c30
1c30
1c70
1ff0
1c30
1c10
1c10
1c00
1c00
1c00
1c00
1c00
1c00
1c00
ff80
ENDCHAR
STARTCHAR G
ENCODING 71
SWIDTH 610 0
DWIDTH 20 0
BBX 20 22 1 0
BITMAP
03f880
060f80
1c0380
380380
380180
700080
700080
700000
e00000
e00000
e00ff0
e00380
e00380
e00380
700380
700380
700380
380380
380380
1c0280
0e0e00
03f800
ENDCHAR
STARTCHAR H
ENCODING 72
SWIDTH 695 0
DWIDTH 23 0
BBX 20 22 1 0
BITMAP
ff8ff0
1c01c0
1c01c0
1c01c0
1c01c0
1c01c0
1c01c0
1c01c0
1c01c0
1c01c0
1fffc0
1c01c0
1c01c0
1c01c0
1c01c0
1c01c0
1c01c0
1c01c0
1c01c0
1c01c0
1c01c0
ff8ff0
ENDCHAR
STARTCHAR I
ENCODING 73
SWIDTH 297 0
DWIDTH 10 0
BBX 9 22 1 0
BITMAP
ff80
1c00
1c00
1c00
1c00
1c00
1c00
1c00
1c00
1c00
1c00
1c00
1c00
1c00
1c00
1c00
1c00
1c00
1c00
1c00
1c00
ff80
ENDCHAR
STARTCHAR J
ENCODING 74
SWIDTH 327 0
DWIDTH 11 0
BBX 12 25 0 -3
BITMAP
1ff0
0380
0380
0380
0380
0380
0380
0380
0380
0380
0380
0380
0380
0380
0380
0380
0380
0380
0380
0380
0300
6300
f700
f600
7c00
ENDCHAR
STARTCHAR K
ENCODING 75
SWIDTH 662 0
DWIDTH 22 0
BBX 20 22 1 0
BITMAP
ff1fe0
1c0780
1c0600
1c0400
1c0800
1c1000
1c2000
1c4000
1c8000
1dc000
1fc000
1ce000
1c7000
1c3800
1c3800
1c1c00
1c1c00
1c0e00
1c0700
1c0700
1c0380
ff07f0
ENDCHAR
STARTCHAR L
ENCODING 76
SWIDTH 567 0
DWIDTH 19 0
BBX 17 22 1 0
BITMAP
ff8000
1c0000
1c0000
1c0000
1c0000
1c0000
1c0000
1c0000
1c0000
1c0000
1c0000
1c0000
1c0000
1c0000
1c0000
1c0000
1c0080
1c0080
1c0180
1c0300
1c0700
fffe00
ENDCHAR
STARTCHAR M
ENCODING 77
SWIDTH 867 0
DWIDTH 29 0
BBX 27 22 1 0
BITMAP
7e0007e0
0f000700
0f000f00
0f000f00
0f800f00
0f801f00
0f801700
0dc03700
0dc02700
0ce02700
0ce06700
0ce04700
0c704700
0c70c700
0c708700
0c398700
0c390700
0c1d0700
0c1f0700
0c1e0700
1e0e0700
ff8e3fe0
ENDCHAR
STARTCHAR N
ENCODING 78
SWIDTH 730 0
DWIDTH 24 0
BBX 23 22 1 0
BITMAP
7e03fe
0e0070
0f0020
0b8020
0b8020
09c020
08e020
08e020
087020
083820
083820
081c20
080e20
080e20
080720
0807a0
0803a0
0801e0
0801e0
0800e0
1c0060
ff8060
ENDCHAR
STARTCHAR O
ENCODING 79
SWIDTH 710 0
DWIDTH 23 0
BBX 20 22 2 0
BITMAP
03fc00
0e0700
180380
3801c0
7000e0
7000e0
e00070
e00070
e00070
e00070
e00070
e00070
e00070
e00070
e00070
700070
7000e0
3000e0
3800c0
180180
0e0700
03fc00
ENDCHAR
STARTCHAR P
ENCODING 80
SWIDTH 491 0
DWIDTH 16 0
BBX 15 22 1 0
BITMAP
fff8
1c1c
1c0e
1c0e
1c0e
1c0e
1c0e
1c1c
1c38
1fe0
1c00
1c00
1c00
1c00
1c00
1c00
1c00
1c00
1c00
1c00
1c00
ff80
ENDCHAR
STARTCHAR Q
ENCODING 81
SWIDTH 710 0
DWIDTH 23 0
BBX 20 26 1 -4
BITMAP
01fc00
070f00
0c0180
1801c0
3800e0
700060
700070
e00070
e00070
e00070
e00070
e00070
e00070
e00070
e00070
700070
700070
380060
3800e0
1801c0
0c0380
07c620
0cfcc0
1e3f80
1e0f00
0c0000
ENDCHAR
STARTCHAR R
ENCODING 82
SWIDTH 627 0
DWIDTH 21 0
BBX 33 27 -12 -5
BITMAP
0007ffc000
0001c0e000
0001c07000
0001c07000
0001c07000
0001c07000
0001c07000
0001c06000
0001c0e000
0001ff8000
0001c30000
0001c38000
0001c18000
0001c1c000
0001c0c000
0001c0e000
0001c07000
0001c03000
0001c03800
0001c01800
0001c01c00
0007f80f80
0000000000
0000000000
0000000000
0000000000
8000000000
ENDCHAR
STARTCHAR S
ENCODING 83
SWIDTH 502 0
DWIDTH 17 0
BBX 15 22 1 0
BITMAP
1fc4
303c
601c
e00c
c00c
c004
e004
f000
7c00
3f80
1fe0
07f0
00f8
003c
001c
400e
400e
400e
600c
7008
7810
47e0
ENDCHAR
STARTCHAR T
ENCODING 84
SWIDTH 741 0
DWIDTH 24 0
BBX 23 22 1 0
BITMAP
3ffff8
387c38
70381c
60380c
403804
803802
003800
003800
003800
003800
003800
003800
003800
003800
003800
003800
003800
003800
003800
003800
007c00
01ff00
ENDCHAR
STARTCHAR U
ENCODING 85
SWIDTH 656 0
DWIDTH 22 0
BBX 20 22 1 0
BITMAP
ff87f0
3e01c0
1c0080
1c0080
1c0080
1c0080
1c0080
1c0080
1c0080
1c0080
1c0080
1c0080
1c0080
1c0080
1c0080
1c0080
1c0080
1c0080
0c0100
0e0100
070600
01f800
ENDCHAR
STARTCHAR V
ENCODING 86
SWIDTH 704 0
DWIDTH 23 0
BBX 22 22 1 0
BITMAP
fe03fc
3800f0
1800e0
1c00c0
1c0080
0c0100
0e0100
0e0100
070200
070200
070200
038400
038400
038400
01c800
01c800
01c800
00f000
00f000
006000
006000
004000
ENDCHAR
STARTCHAR W
ENCODING 87
SWIDTH 1022 0
DWIDTH 34 0
BBX 33 22 1 0
BITMAP
ff1fc0ff80
3c0f003c00
1c07001800
1c07001000
1c03801000
0e03802000
0e03802000
0e01c02000
0703c04000
0703e04000
0702e08000
0384e08000
0384708000
01c4710000
01c8390000
01c8390000
00e83a0000
00f01e0000
00f01e0000
00701c0000
00600c0000
00600c0000
ENDCHAR
STARTCHAR X
ENCODING 88
SWIDTH 662 0
DWIDTH 22 0
BBX 21 22 1 0
BITMAP
7f8ff0
1e0380
0e0300
0e0200
070400
070400
038800
01c800
01d000
00f000
007000
007000
00f800
00b800
011c00
030e00
020700
040700
040380
0c0380
3c01c0
ff07f8
ENDCHAR
STARTCHAR Y
ENCODING 89
SWIDTH 653 0
DWIDTH 22 0
BBX 21 22 1 0
BITMAP
ff0ff8
3c03c0
1c0380
0e0300
0e0600
070400
070800
038800
039000
01e000
01e000
00e000
00e000
00e000
00e000
00e000
00e000
00e000
00e000
00e000
00e000
07fc00
ENDCHAR
STARTCHAR Z
ENCODING 90
SWIDTH 582 0
DWIDTH 19 0
BBX 17 22 1 0
BITMAP
1fff80
1c0780
380700
300e00
201c00
601c00
403800
007000
007000
00e000
01c000
01c000
038000
070000
070000
0e0080
1c0180
1c0180
380300
380700
700e00
fffe00
ENDCHAR
STARTCHAR bracketleft
ENCODING 91
SWIDTH 361 0
DWIDTH 12 0
BBX 7 29 3 -7
BITMAP
fe
fe
e0
e0
e0
e0
e0
e0
e0
e0
e0
e0
e0
e0
e0
e0
e0
e0
e0
e0
e0
e0
e0
e0
e0
e0
e0
fe
fe
ENDCHAR
STARTCHAR backslash
ENCODING 92
SWIDTH 462 0
DWIDTH 15 0
BBX 11 19 2 0
BITMAP
c000
c000
6000
6000
3000
3000
1800
1800
0c00
0c00
0600
0600
0300
0300
0180
00c0
00c0
0060
0060
ENDCHAR
STARTCHAR bracketright
ENCODING 93
SWIDTH 361 0
DWIDTH 12 0
BBX 7 29 2 -7
BITMAP
fe
fe
0e
0e
0e
0e
0e
0e
0e
0e
0e
0e
0e
0e
0e
0e
0e
0e
0e
0e
0e
0e
0e
0e
0e
0e
0e
fe
fe
ENDCHAR
STARTCHAR asciicircum
ENCODING 94
SWIDTH 409 0
DWIDTH 13 0
BBX 11 6 1 12
BITMAP
0400
0e00
1b00
3180
60c0
c060
ENDCHAR
STARTCHAR underscore
ENCODING 95
SWIDTH 565 0
DWIDTH 19 0
BBX 18 2 0 -7
BITMAP
ffffc0
ffffc0
ENDCHAR
STARTCHAR grave
ENCODING 96
SWIDTH 321 0
DWIDTH 11 0
BBX 5 3 2 21
BITMAP
e0
30
08
ENDCHAR
STARTCHAR a
ENCODING 97
SWIDTH 400 0
DWIDTH 13 0
BBX 13 16 0 0
BITMAP
0f00
1f80
23c0
71c0
71c0
21c0
01c0
03c0
1dc0
31c0
61c0
e1c0
e1c0
e1c8
73d0
3ce0
ENDCHAR
STARTCHAR b
ENCODING 98
SWIDTH 489 0
DWIDTH 16 0
BBX 15 23 0 0
BITMAP
1000
7000
f000
7000
7000
7000
7000
73c0
7470
7838
781c
700e
700e
700e
700e
700e
700e
700e
700e
701c
7818
7830
67e0
ENDCHAR
STARTCHAR c
ENCODING 99
SWIDTH 424 0
DWIDTH 14 0
BBX 12 16 0 0
BITMAP
0780
1fe0
3820
3070
7070
7030
e000
e000
e000
e000
e000
7010
7030
3860
1fe0
0fc0
ENDCHAR
STARTCHAR d
ENCODING 100
SWIDTH 487 0
DWIDTH 16 0
BBX 13 22 1 0
BITMAP
0010
00f0
0070
0070
0070
0070
0f70
19f0
30f0
6070
6070
e070
e070
e070
e070
e070
e070
e070
6070
7070
38f8
1fa0
ENDCHAR
STARTCHAR e
ENCODING 101
SWIDTH 457 0
DWIDTH 15 0
BBX 12 16 1 0
BITMAP
0f80
1fc0
3060
6060
6030
fff0
fff0
e000
e000
e000
e000
e010
7030
38f0
3fe0
0f80
ENDCHAR
STARTCHAR f
ENCODING 102
SWIDTH 272 0
DWIDTH 9 0
BBX 9 22 0 0
BITMAP
0f00
1b80
1b80
3900
3800
3800
3800
7c00
3800
3800
3800
3800
3800
3800
3800
3800
3800
3800
3800
3800
3800
fe00
ENDCHAR
STARTCHAR g
ENCODING 103
SWIDTH 457 0
DWIDTH 15 0
BBX 14 23 1 -7
BITMAP
0030
0fb0
1dc0
38e0
38e0
38e0
38e0
38e0
38c0
19c0
1f00
2000
7000
3f00
1fe0
21f8
6038
e01c
e01c
e018
7038
3ff0
0fc0
ENDCHAR
STARTCHAR h
ENCODING 104
SWIDTH 510 0
DWIDTH 17 0
BBX 16 22 1 0
BITMAP
0800
3800
7800
3800
3800
3800
38e0
3bf8
3c38
381c
381c
381c
381c
381c
381c
381c
381c
381c
381c
381c
381c
fe7f
ENDCHAR
STARTCHAR i
ENCODING 105
SWIDTH 262 0
DWIDTH 9 0
BBX 7 21 1 0
BITMAP
18
3c
18
00
00
00
18
78
38
38
38
38
38
38
38
38
38
38
38
38
fe
ENDCHAR
STARTCHAR j
ENCODING 106
SWIDTH 287 0
DWIDTH 9 0
BBX 8 26 0 -5
BITMAP
06
0f
06
00
00
00
06
1e
3e
0e
0e
0e
0e
0e
0e
0e
0e
0e
0e
0e
0e
0e
0c
ec
f8
70
ENDCHAR
STARTCHAR k
ENCODING 107
SWIDTH 526 0
DWIDTH 17 0
BBX 17 22 0 0
BITMAP
080000
380000
780000
380000
380000
380000
380000
38fe00
383800
383000
386000
38c000
398000
3bc000
3dc000
39e000
38e000
387000
387800
383800
383c00
ff7f80
ENDCHAR
STARTCHAR l
ENCODING 108
SWIDTH 262 0
DWIDTH 9 0
BBX 7 22 1 0
BITMAP
08
38
78
38
38
38
38
38
38
38
38
38
38
38
38
38
38
38
38
38
38
fe
ENDCHAR
STARTCHAR m
ENCODING 109
SWIDTH 785 0
DWIDTH 26 0
BBX 24 16 1 0
BITMAP
09f1f0
3bfbf8
7c3c38
381c1c
381c1c
381c1c
381c1c
381c1c
381c1c
381c1c
381c1c
381c1c
381c1c
381c1c
381c1c
fe7f7f
ENDCHAR
STARTCHAR n
ENCODING 110
SWIDTH 510 0
DWIDTH 17 0
BBX 16 16 1 0
BITMAP
09f0
3bf8
7c38
381c
381c
381c
381c
381c
381c
381c
381c
381c
381c
381c
381c
fe7f
ENDCHAR
STARTCHAR o
ENCODING 111
SWIDTH 482 0
DWIDTH 16 0
BBX 14 16 1 0
BITMAP
0fc0
3cf0
3030
7038
7038
e01c
e01c
e01c
e01c
e01c
e01c
7038
7038
3030
38f0
0fc0
ENDCHAR
STARTCHAR p
ENCODING 112
SWIDTH 524 0
DWIDTH 17 0
BBX 15 21 1 -5
BITMAP
09e0
1bf0
7c38
381c
381c
380e
380e
380e
380e
380e
380e
381c
381c
3838
3c70
3be0
3800
3800
3800
3800
fe00
ENDCHAR
STARTCHAR q
ENCODING 113
SWIDTH 440 0
DWIDTH 15 0
BBX 15 21 0 -5
BITMAP
0f98
3878
7078
7038
e038
e038
e038
e038
e038
e038
e038
e038
7078
7078
38f8
0fb8
0038
0038
0038
0038
003e
ENDCHAR
STARTCHAR r
ENCODING 114
SWIDTH 345 0
DWIDTH 11 0
BBX 10 16 0 0
BITMAP
0980
3bc0
7d80
3800
3800
3800
3800
3800
3800
3800
3800
3800
3800
3800
3800
fe00
ENDCHAR
STARTCHAR s
ENCODING 115
SWIDTH 385 0
DWIDTH 13 0
BBX 10 16 1 0
BITMAP
3f00
7180
e180
e080
e080
f000
7800
3e00
0f00
0780
03c0
41c0
41c0
61c0
6380
3f00
ENDCHAR
STARTCHAR t
ENCODING 116
SWIDTH 265 0
DWIDTH 9 0
BBX 7 18 1 0
BITMAP
10
30
70
7e
fc
70
70
70
70
70
70
70
70
70
70
72
3c
18
ENDCHAR
STARTCHAR u
ENCODING 117
SWIDTH 524 0
DWIDTH 17 0
BBX 15 15 1 0
BITMAP
f87c
381c
381c
381c
381c
381c
381c
381c
381c
381c
381c
381c
383e
3cdc
1f98
ENDCHAR
STARTCHAR v
ENCODING 118
SWIDTH 465 0
DWIDTH 15 0
BBX 16 15 0 0
BITMAP
fc7f
3818
1c10
1c10
1c30
0e20
0e20
0e60
0740
0740
07c0
0780
0380
0380
0300
ENDCHAR
STARTCHAR w
ENCODING 119
SWIDTH 629 0
DWIDTH 21 0
BBX 22 15 0 0
BITMAP
fdf9fc
38e060
387040
387040
1c70c0
1c3880
1c3880
0e7980
0e5d00
0edd00
07df00
078e00
038e00
038e00
010400
ENDCHAR
STARTCHAR x
ENCODING 120
SWIDTH 481 0
DWIDTH 16 0
BBX 16 15 0 0
BITMAP
7f7e
1e38
0e30
0720
0760
03c0
0380
01c0
03e0
02e0
0670
0470
0c38
183c
ff7f
ENDCHAR
STARTCHAR y
ENCODING 121
SWIDTH 440 0
DWIDTH 15 0
BBX 16 18 0 -3
BITMAP
fe7f
381c
3818
1c10
1c30
1c20
0e60
0e40
0ec0
07c0
0780
0780
0300
0300
2600
7600
7c00
3800
ENDCHAR
STARTCHAR z
ENCODING 122
SWIDTH 404 0
DWIDTH 13 0
BBX 12 15 0 0
BITMAP
3ff0
3070
60e0
41c0
01c0
0380
0700
0700
0e00
1c00
1c00
3820
3860
7060
ffc0
ENDCHAR
STARTCHAR braceleft
ENCODING 123
SWIDTH 346 0
DWIDTH 11 0
BBX 8 29 1 -7
BITMAP
07
1c
18
18
38
38
38
38
38
38
38
38
30
70
c0
70
30
38
38
38
38
38
38
38
38
18
18
1c
07
ENDCHAR
STARTCHAR bar
ENCODING 124
SWIDTH 155 0
DWIDTH 5 0
BBX 2 24 1 0
BITMAP
c0
c0
c0
c0
c0
c0
c0
c0
c0
c0
c0
c0
c0
c0
c0
c0
c0
c0
c0
c0
c0
c0
c0
c0
ENDCHAR
STARTCHAR braceright
ENCODING 125
SWIDTH 346 0
DWIDTH 11 0
BBX 8 29 2 -7
BITMAP
f0
38
18
18
1c
1c
1c
1c
1c
1c
1c
1c
1c
0e
03
0e
1c
1c
1c
1c
1c
1c
1c
1c
1c
18
18
38
f0
ENDCHAR
STARTCHAR asciitilde
ENCODING 126
SWIDTH 409 0
DWIDTH 13 0
BBX 11 3 1 16
BITMAP
3c60
7fc0
c780
ENDCHAR
STARTCHAR uni00A0
ENCODING 160
SWIDTH 236 0
DWIDTH 8 0
BBX 0 0 0 0
BITMAP
ENDCHAR
STARTCHAR exclamdown
ENCODING 161
SWIDTH 217 0
DWIDTH 7 0
BBX 6 23 1 -1
BITMAP
30
78
78
30
00
00
30
30
30
30
30
78
78
78
78
78
fc
fc
fc
78
78
78
30
ENDCHAR
STARTCHAR cent
ENCODING 162
SWIDTH 481 0
DWIDTH 16 0
BBX 13 20 0 -3
BITMAP
0080
0080
07e0
1970
3138
6130
6100
6100
e200
e200
e200
6200
7208
7210
3c30
1fe0
0f80
0400
0400
0400
ENDCHAR
STARTCHAR sterling
ENCODING 163
SWIDTH 611 0
DWIDTH 20 0
BBX 16 22 2 0
BITMAP
003e
0067
00c2
00c0
0180
0180
0180
0380
0300
0300
0300
0600
0600
3f80
0e00
0c00
0c00
0806
0f07
33c2
e0f6
4078
ENDCHAR
STARTCHAR currency
ENCODING 164
SWIDTH 544 0
DWIDTH 18 0
BBX 14 14 0 3
BITMAP
e7cc
7ffc
3878
701c
701c
e00c
e00c
e00c
600c
701c
7038
3c78
7ffc
e78c
ENDCHAR
STARTCHAR yen
ENCODING 165
SWIDTH 647 0
DWIDTH 21 0
BBX 21 22 1 0
BITMAP
7f07f8
3c01c0
1e0180
0f0100
0f0200
078200
ffffc0
03c800
03d800
01f000
ffffc0
01e000
01e000
01e000
01e000
01e000
01e000
01e000
01e000
01e000
03f000
07fc00
ENDCHAR
STARTCHAR brokenbar
ENCODING 166
SWIDTH 201 0
DWIDTH 7 0
BBX 2 24 1 0
BITMAP
c0
c0
c0
c0
c0
c0
c0
c0
c0
c0
c0
00
00
c0
c0
c0
c0
c0
c0
c0
c0
c0
c0
c0
ENDCHAR
STARTCHAR section
ENCODING 167
SWIDTH 359 0
DWIDTH 12 0
BBX 11 23 1 0
BITMAP
1f80
38c0
71e0
71c0
7000
7000
3800
1e00
3f80
7bc0
71c0
71c0
71c0
7b80
3f00
0f00
0380
01c0
01c0
71c0
f1c0
6380
3f00
ENDCHAR
STARTCHAR dieresis
ENCODING 168
SWIDTH 0 0
DWIDTH 0 0
BBX 9 3 2 17
BITMAP
6300
f780
6300
ENDCHAR
STARTCHAR copyright
ENCODING 169
SWIDTH 539 0
DWIDTH 18 0
BBX 15 13 1 10
BITMAP
0fe0
1830
3758
68cc
684c
d806
d806
d806
684c
68cc
3758
1830
0fe0
ENDCHAR
STARTCHAR ordfeminine
ENCODING 170
SWIDTH 317 0
DWIDTH 10 0
BBX 9 14 0 4
BITMAP
1e00
2600
6200
4200
0200
0e00
3200
4200
4200
4600
6f80
3100
0000
ff80
ENDCHAR
STARTCHAR guillemotleft
ENCODING 171
SWIDTH 827 0
DWIDTH 27 0
BBX 24 16 1 3
BITMAP
000401
001c07
00781e
01e078
0781e0
0e0780
381e00
e03800
f03800
3c0e00
0f0380
03c1e0
00f078
00381e
001c07
000401
ENDCHAR
STARTCHAR logicalnot
ENCODING 172
SWIDTH 638 0
DWIDTH 21 0
BBX 18 7 1 1
BITMAP
ffffc0
ffffc0
0000c0
0000c0
0000c0
0000c0
0000c0
ENDCHAR
STARTCHAR uni00AD
ENCODING 173
SWIDTH 340 0
DWIDTH 11 0
BBX 9 2 1 7
BITMAP
ff80
ff80
ENDCHAR
STARTCHAR registered
ENCODING 174
SWIDTH 529 0
DWIDTH 17 0
BBX 15 13 1 10
BITMAP
0fe0
3830
3f18
648c
648c
c786
c506
c486
648c
6c6c
3218
1830
0fe0
ENDCHAR
STARTCHAR macron
ENCODING 175
SWIDTH 315 0
DWIDTH 10 0
BBX 7 1 1 19
BITMAP
fe
ENDCHAR
STARTCHAR degree
ENCODING 176
SWIDTH 222 0
DWIDTH 7 0
BBX 6 6 0 16
BITMAP
78
fc
cc
cc
fc
78
ENDCHAR
STARTCHAR plusminus
ENCODING 177
SWIDTH 331 0
DWIDTH 11 0
BBX 10 8 1 7
BITMAP
0800
0800
0800
ffc0
0800
0800
0800
ffc0
ENDCHAR
STARTCHAR twosuperior
ENCODING 178
SWIDTH 272 0
DWIDTH 9 0
BBX 6 10 1 13
BITMAP
78
4c
cc
0c
18
30
20
64
7c
fc
ENDCHAR
STARTCHAR threesuperior
ENCODING 179
SWIDTH 267 0
DWIDTH 9 0
BBX 7 10 1 13
BITMAP
78
5c
0c
18
3c
0c
0e
c6
cc
78
ENDCHAR
STARTCHAR acute
ENCODING 180
SWIDTH 275 0
DWIDTH 9 0
BBX 4 3 3 21
BITMAP
30
60
80
ENDCHAR
STARTCHAR mu
ENCODING 181
SWIDTH 671 0
DWIDTH 22 0
BBX 18 20 1 -5
BITMAP
180c00
181c00
381c00
381800
381800
303800
303800
303000
703000
703000
707040
707080
707880
68ff00
e79e00
e00000
e00000
e00000
c00000
c00000
ENDCHAR
STARTCHAR paragraph
ENCODING 182
SWIDTH 592 0
DWIDTH 20 0
BBX 19 24 0 -2
BITMAP
1fffe0
3f3b80
7c3b80
7c3b80
f83b80
f83b80
7c3b80
7c3b80
3f3b80
1ffb80
003b80
003b80
003b80
003b80
003b80
003b80
003b80
003b80
003b80
003b80
003b80
003b80
003b80
003b80
ENDCHAR
STARTCHAR periodcentered
ENCODING 183
SWIDTH 217 0
DWIDTH 7 0
BBX 5 3 2 7
BITMAP
70
f8
70
ENDCHAR
STARTCHAR cedilla
ENCODING 184
SWIDTH 0 0
DWIDTH 0 0
BBX 7 7 6 -7
BITMAP
60
78
7e
0e
0e
fc
f8
ENDCHAR
STARTCHAR onesuperior
ENCODING 185
SWIDTH 227 0
DWIDTH 7 0
BBX 4 10 2 13
BITMAP
20
e0
60
60
60
60
60
60
60
f0
ENDCHAR
STARTCHAR ordmasculine
ENCODING 186
SWIDTH 390 0
DWIDTH 12 0
BBX 10 14 1 4
BITMAP
1f00
3180
71c0
60c0
60c0
60c0
60c0
60c0
60c0
71c0
3180
1f00
0000
ffc0
ENDCHAR
STARTCHAR guillemotright
ENCODING 187
SWIDTH 827 0
DWIDTH 27 0
BBX 25 16 1 3
BITMAP
c0300000
f03c0000
7c1f0000
1f07c000
07c1f000
01f07800
007c1e00
001e0780
001e0f80
00783e00
01e0f800
07c3e000
1f0f8000
7c1e0000
f03c0000
c0300000
ENDCHAR
STARTCHAR onequarter
ENCODING 188
SWIDTH 419 0
DWIDTH 14 0
BBX 11 23 2 0
BITMAP
4000
c800
4800
4800
4800
4800
4800
4800
4800
f000
1000
1000
1000
1040
10c0
2140
2240
2240
2440
2440
2fe0
2040
2040
ENDCHAR
STARTCHAR onehalf
ENCODING 189
SWIDTH 385 0
DWIDTH 13 0
BBX 10 23 2 0
BITMAP
4000
c800
4800
4800
4800
4800
4800
4800
4800
f000
1000
1000
1000
1380
1440
2440
2040
2080
2080
2100
2200
2440
27c0
ENDCHAR
STARTCHAR threequarters
ENCODING 190
SWIDTH 488 0
DWIDTH 16 0
BBX 14 23 1 0
BITMAP
7000
8900
0900
1100
3100
0900
0500
c500
8900
7200
0200
0200
0200
0208
0218
0428
0448
0488
0488
0508
07fc
0408
0408
ENDCHAR
STARTCHAR questiondown
ENCODING 191
SWIDTH 419 0
DWIDTH 14 0
BBX 10 23 2 -1
BITMAP
0300
0780
0780
0300
0000
0000
0100
0100
0100
0300
0300
0300
0700
1f00
3f00
7000
4000
8000
8000
4080
63c0
3f80
0f80
ENDCHAR
STARTCHAR Agrave
ENCODING 192
SWIDTH 732 0
DWIDTH 24 0
BBX 22 26 1 0
BITMAP
003000
000800
000400
001000
003000
001800
003800
003800
003c00
005c00
005c00
008e00
008e00
008e00
01ff00
010700
020700
020380
020380
0401c0
0401c0
0801c0
0800e0
1800e0
1800f0
ff03fc
ENDCHAR
STARTCHAR Aacute
ENCODING 193
SWIDTH 732 0
DWIDTH 24 0
BBX 22 26 1 0
BITMAP
003000
006000
008000
001000
003000
001800
003800
003800
003c00
005c00
005c00
008e00
008e00
008e00
01ff00
010700
020700
020380
020380
0401c0
0401c0
0801c0
0800e0
1800e0
1800f0
ff03fc
ENDCHAR
STARTCHAR Acircumflex
ENCODING 194
SWIDTH 732 0
DWIDTH 24 0
BBX 22 26 1 0
BITMAP
001000
003800
004400
009200
003000
001800
003800
003800
003c00
005c00
005c00
008e00
008e00
008e00
01ff00
010700
020700
020380
020380
0401c0
0401c0
0801c0
0800e0
1800e0
1800f0
ff03fc
ENDCHAR
STARTCHAR Atilde
ENCODING 195
SWIDTH 732 0
DWIDTH 24 0
BBX 22 26 1 0
BITMAP
003100
007e00
008c00
001000
003000
001800
003800
003800
003c00
005c00
005c00
008e00
008e00
008e00
01ff00
010700
020700
020380
020380
0401c0
0401c0
0801c0
0800e0
1800e0
1800f0
ff03fc
ENDCHAR
STARTCHAR Adieresis
ENCODING 196
SWIDTH 732 0
DWIDTH 24 0
BBX 22 26 1 0
BITMAP
00c600
01ef00
00c600
001000
003000
001800
003800
003800
003c00
005c00
005c00
008e00
008e00
008e00
01ff00
010700
020700
020380
020380
0401c0
0401c0
0801c0
0800e0
1800e0
1800f0
ff03fc
ENDCHAR
STARTCHAR Aring
ENCODING 197
SWIDTH 732 0
DWIDTH 24 0
BBX 22 26 1 0
BITMAP
003800
004400
004400
004400
003800
001800
003800
003800
003c00
005c00
005c00
008e00
008e00
008e00
01ff00
010700
020700
020380
020380
0401c0
0401c0
0801c0
0800e0
1800e0
1800f0
ff03fc
ENDCHAR
STARTCHAR AE
ENCODING 198
SWIDTH 888 0
DWIDTH 29 0
BBX 27 22 1 0
BITMAP
003fff80
001703c0
001700c0
002700c0
00270040
00270040
00470420
00470400
00870c00
00fffc00
01071c00
01070c00
01070400
02070400
02070000
04070020
04070020
08070040
08070040
180700c0
18070380
ff3fff80
ENDCHAR
STARTCHAR Ccedilla
ENCODING 199
SWIDTH 601 0
DWIDTH 20 0
BBX 18 29 1 -7
BITMAP
03fc80
0e0780
1c0380
380180
300180
700080
700080
e00080
e00000
e00000
e00000
e00000
e00000
e00000
e00040
700040
7000c0
380080
380180
1c0380
0e0f80
03f080
006000
007800
003c00
000c00
001c00
00f800
00f000
ENDCHAR
STARTCHAR Egrave
ENCODING 200
SWIDTH 584 0
DWIDTH 19 0
BBX 17 26 0 0
BITMAP
038000
018000
00c000
006000
ffff00
1c0f00
1c0300
1c0180
1c0180
1c0080
1c1080
1c1000
1c1000
1c7000
1ff000
1c3000
1c1000
1c1000
1c0000
1c0080
1c0080
1c0080
1c0180
1c0300
1c0700
ffff00
ENDCHAR
STARTCHAR Eacute
ENCODING 201
SWIDTH 584 0
DWIDTH 19 0
BBX 17 26 0 0
BITMAP
001c00
003800
007000
00c000
ffff00
1c0f00
1c0300
1c0180
1c0180
1c0080
1c1080
1c1000
1c1000
1c7000
1ff000
1c3000
1c1000
1c1000
1c0000
1c0080
1c0080
1c0080
1c0180
1c0300
1c0700
ffff00
ENDCHAR
STARTCHAR Ecircumflex
ENCODING 202
SWIDTH 584 0
DWIDTH 19 0
BBX 17 26 0 0
BITMAP
00c000
01e000
033000
061800
ffff00
1c0f00
1c0300
1c0180
1c0180
1c0080
1c1080
1c1000
1c1000
1c7000
1ff000
1c3000
1c1000
1c1000
1c0000
1c0080
1c0080
1c0080
1c0180
1c0300
1c0700
ffff00
ENDCHAR
STARTCHAR Edieresis
ENCODING 203
SWIDTH 584 0
DWIDTH 19 0
BBX 17 26 0 0
BITMAP
030c00
030c00
000000
000000
ffff00
1c0f00
1c0300
1c0180
1c0180
1c0080
1c1080
1c1000
1c1000
1c7000
1ff000
1c3000
1c1000
1c1000
1c0000
1c0080
1c0080
1c0080
1c0180
1c0300
1c0700
ffff00
ENDCHAR
STARTCHAR Igrave
ENCODING 204
SWIDTH 324 0
DWIDTH 10 0
BBX 9 26 1 0
BITMAP
3000
1800
0c00
0400
ff80
1c00
1c00
1c00
1c00
1c00
1c00
1c00
1c00
1c00
1c00
1c00
1c00
1c00
1c00
1c00
1c00
1c00
1c00
1c00
1c00
ff80
ENDCHAR
STARTCHAR Iacute
ENCODING 205
SWIDTH 324 0
DWIDTH 10 0
BBX 9 26 1 0
BITMAP
0700
0e00
1800
3000
ff80
1c00
1c00
1c00
1c00
1c00
1c00
1c00
1c00
1c00
1c00
1c00
1c00
1c00
1c00
1c00
1c00
1c00
1c00
1c00
1c00
ff80
ENDCHAR
STARTCHAR Icircumflex
ENCODING 206
SWIDTH 324 0
DWIDTH 10 0
BBX 9 26 1 0
BITMAP
0800
1c00
3600
6300
ff80
1c00
1c00
1c00
1c00
1c00
1c00
1c00
1c00
1c00
1c00
1c00
1c00
1c00
1c00
1c00
1c00
1c00
1c00
1c00
1c00
ff80
ENDCHAR
STARTCHAR Idieresis
ENCODING 207
SWIDTH 324 0
DWIDTH 10 0
BBX 9 26 1 0
BITMAP
6300
f780
6300
0000
ff80
1c00
1c00
1c00
1c00
1c00
1c00
1c00
1c00
1c00
1c00
1c00
1c00
1c00
1c00
1c00
1c00
1c00
1c00
1c00
1c00
ff80
ENDCHAR
STARTCHAR Eth
ENCODING 208
SWIDTH 650 0
DWIDTH 21 0
BBX 20 22 0 0
BITMAP
fffc00
1c0780
1c01c0
1c00c0
1c00e0
1c0070
1c0070
1c0070
1c0070
1c0070
1c0070
7f0070
1c0070
1c0070
1c0070
1c0070
1c00e0
1c00c0
1c0180
1c0300
1c0e00
fff800
ENDCHAR
STARTCHAR Ntilde
ENCODING 209
SWIDTH 730 0
DWIDTH 24 0
BBX 21 26 2 0
BITMAP
00e600
01fc00
033800
000000
fc03f8
1c00e0
1e0040
170040
170040
138040
11c040
11c040
10e040
107040
107040
103840
101c40
101c40
100e40
100e40
100740
1003c0
1003c0
1001c0
3800c0
fe00c0
ENDCHAR
STARTCHAR Ograve
ENCODING 210
SWIDTH 710 0
DWIDTH 23 0
BBX 20 26 2 0
BITMAP
018000
00c000
006000
002000
03fc00
0e0700
180380
3801c0
7000e0
7000e0
e00070
e00070
e00070
e00070
e00070
e00070
e00070
e00070
e00070
700070
7000e0
3000e0
3800c0
180180
0e0700
03fc00
ENDCHAR
STARTCHAR Oacute
ENCODING 211
SWIDTH 710 0
DWIDTH 23 0
BBX 20 26 2 0
BITMAP
003800
006000
00c000
000000
03fc00
0e0700
180380
3801c0
7000e0
7000e0
e00070
e00070
e00070
e00070
e00070
e00070
e00070
e00070
e00070
700070
7000e0
3000e0
3800c0
180180
0e0700
03fc00
ENDCHAR
STARTCHAR Ocircumflex
ENCODING 212
SWIDTH 710 0
DWIDTH 23 0
BBX 20 26 2 0
BITMAP
006000
009000
010800
000000
03fc00
0e0700
180380
3801c0
7000e0
7000e0
e00070
e00070
e00070
e00070
e00070
e00070
e00070
e00070
e00070
700070
7000e0
3000e0
3800c0
180180
0e0700
03fc00
ENDCHAR
STARTCHAR Otilde
ENCODING 213
SWIDTH 710 0
DWIDTH 23 0
BBX 20 26 2 0
BITMAP
00c400
01f800
023000
000000
03fc00
0e0700
180380
3801c0
7000e0
7000e0
e00070
e00070
e00070
e00070
e00070
e00070
e00070
e00070
e00070
700070
7000e0
3000e0
3800c0
180180
0e0700
03fc00
ENDCHAR
STARTCHAR Odieresis
ENCODING 214
SWIDTH 710 0
DWIDTH 23 0
BBX 20 26 2 0
BITMAP
018c00
03de00
018c00
000000
03fc00
0e0700
180380
3801c0
7000e0
7000e0
e00070
e00070
e00070
e00070
e00070
e00070
e00070
e00070
e00070
700070
7000e0
3000e0
3800c0
180180
0e0700
03fc00
ENDCHAR
STARTCHAR multiply
ENCODING 215
SWIDTH 296 0
DWIDTH 10 0
BBX 7 6 1 6
BITMAP
c6
6c
38
38
6c
c6
ENDCHAR
STARTCHAR Oslash
ENCODING 216
SWIDTH 710 0
DWIDTH 23 0
BBX 20 24 2 -1
BITMAP
000080
01f980
060700
0c0300
180780
3004c0
600c60
601860
601060
e03070
e02070
e04070
e0c070
e08070
e18070
e30070
620060
660060
6c0040
3800c0
180180
3c0300
270c00
60f000
ENDCHAR
STARTCHAR Ugrave
ENCODING 217
SWIDTH 656 0
DWIDTH 22 0
BBX 21 26 1 0
BITMAP
00c000
006000
003000
001000
ff87f8
1c00c0
1c00c0
1c00c0
1c00c0
1c00c0
1c00c0
1c00c0
1c00c0
1c00c0
1c00c0
1c00c0
1c00c0
1c00c0
1c00c0
1c00c0
1c00c0
1c0080
0c0180
0e0300
070600
01fc00
ENDCHAR
STARTCHAR Uacute
ENCODING 218
SWIDTH 656 0
DWIDTH 22 0
BBX 21 26 1 0
BITMAP
000e00
001c00
003000
002000
ff87f8
1c00c0
1c00c0
1c00c0
1c00c0
1c00c0
1c00c0
1c00c0
1c00c0
1c00c0
1c00c0
1c00c0
1c00c0
1c00c0
1c00c0
1c00c0
1c00c0
1c0080
0c0180
0e0300
070600
01fc00
ENDCHAR
STARTCHAR Ucircumflex
ENCODING 219
SWIDTH 656 0
DWIDTH 22 0
BBX 21 26 1 0
BITMAP
003000
007800
00cc00
000000
ff87f8
1c00c0
1c00c0
1c00c0
1c00c0
1c00c0
1c00c0
1c00c0
1c00c0
1c00c0
1c00c0
1c00c0
1c00c0
1c00c0
1c00c0
1c00c0
1c00c0
1c0080
0c0180
0e0300
070600
01fc00
ENDCHAR
STARTCHAR Udieresis
ENCODING 220
SWIDTH 656 0
DWIDTH 22 0
BBX 21 26 1 0
BITMAP
00c600
01ef00
00c600
000000
ff87f8
1c00c0
1c00c0
1c00c0
1c00c0
1c00c0
1c00c0
1c00c0
1c00c0
1c00c0
1c00c0
1c00c0
1c00c0
1c00c0
1c00c0
1c00c0
1c00c0
1c0080
0c0180
0e0300
070600
01fc00
ENDCHAR
STARTCHAR Yacute
ENCODING 221
SWIDTH 653 0
DWIDTH 22 0
BBX 21 26 1 0
BITMAP
000e00
001800
003000
004000
fe07f8
3803c0
1c0180
1c0300
0e0300
0e0600
070c00
038800
039800
01f000
01e000
00e000
00e000
00e000
00e000
00e000
00e000
00e000
00e000
00e000
01f000
07fc00
ENDCHAR
STARTCHAR Thorn
ENCODING 222
SWIDTH 471 0
DWIDTH 16 0
BBX 15 29 1 -7
BITMAP
fe00
3800
3800
3800
3800
3800
3800
3800
3ff0
381c
380e
380e
380e
380e
380e
381c
3838
3fe0
3800
3800
3800
3800
3800
3800
3800
3800
3800
3800
fe00
ENDCHAR
STARTCHAR germandbls
ENCODING 223
SWIDTH 534 0
DWIDTH 18 0
BBX 17 22 0 0
BITMAP
07f000
0c3c00
1c1c00
180e00
180e00
180e00
180e00
180e00
780c00
181800
183800
18fc00
183e00
180f00
180700
180780
180780
1b8780
1fc700
1b8700
1b0e00
f9f800
ENDCHAR
STARTCHAR agrave
ENCODING 224
SWIDTH 402 0
DWIDTH 13 0
BBX 13 21 0 0
BITMAP
0700
0300
0180
00c0
0000
0f80
1fc0
21c0
61c0
61c0
01c0
01c0
07c0
1fc0
39c0
61c0
e1c0
e1c0
e1c8
77d0
3ce0
ENDCHAR
STARTCHAR aacute
ENCODING 225
SWIDTH 402 0
DWIDTH 13 0
BBX 13 21 0 0
BITMAP
01c0
0180
0300
0600
0000
0f80
1fc0
21c0
61c0
61c0
01c0
01c0
07c0
1fc0
39c0
61c0
e1c0
e1c0
e1c8
77d0
3ce0
ENDCHAR
STARTCHAR acircumflex
ENCODING 226
SWIDTH 402 0
DWIDTH 13 0
BBX 13 22 0 0
BITMAP
0200
0700
0d80
18c0
3060
0000
0f80
1fc0
21c0
61c0
61c0
01c0
01c0
07c0
1fc0
39c0
61c0
e1c0
e1c0
e1c8
77d0
3ce0
ENDCHAR
STARTCHAR atilde
ENCODING 227
SWIDTH 402 0
DWIDTH 13 0
BBX 13 21 0 0
BITMAP
1d80
3700
0000
0000
0000
0f80
1fc0
21c0
61c0
61c0
01c0
01c0
07c0
1fc0
39c0
61c0
e1c0
e1c0
e1c8
77d0
3ce0
ENDCHAR
STARTCHAR adieresis
ENCODING 228
SWIDTH 402 0
DWIDTH 13 0
BBX 13 20 0 0
BITMAP
18c0
3de0
18c0
0000
0f80
1fc0
21c0
61c0
61c0
01c0
01c0
07c0
1fc0
39c0
61c0
e1c0
e1c0
e1c8
77d0
3ce0
ENDCHAR
STARTCHAR aring
ENCODING 229
SWIDTH 402 0
DWIDTH 13 0
BBX 13 22 0 0
BITMAP
0700
0d80
0880
0d80
0700
0000
0f80
1fc0
21c0
61c0
61c0
01c0
01c0
07c0
1fc0
39c0
61c0
e1c0
e1c0
e1c8
77d0
3ce0
ENDCHAR
STARTCHAR ae
ENCODING 230
SWIDTH 644 0
DWIDTH 21 0
BBX 20 16 0 0
BITMAP
1f1f00
3fbf80
61f0c0
61e0c0
c1c060
c1ffe0
01ffe0
07c000
19c000
31c000
61c010
e1c020
e1e060
e1f1c0
727f80
3c1f00
ENDCHAR
STARTCHAR ccedilla
ENCODING 231
SWIDTH 424 0
DWIDTH 14 0
BBX 12 23 0 -7
BITMAP
0780
1fe0
3820
3070
7070
7030
e000
e000
e000
e000
e000
7010
7030
3860
1fe0
0fc0
0600
0780
01c0
00c0
01c0
0fc0
0f80
ENDCHAR
STARTCHAR egrave
ENCODING 232
SWIDTH 457 0
DWIDTH 15 0
BBX 12 21 1 0
BITMAP
0e00
0600
0300
0180
0000
0f80
1fc0
3060
6060
6030
fff0
fff0
e000
e000
e000
e000
e010
7030
38f0
3fe0
0f80
ENDCHAR
STARTCHAR eacute
ENCODING 233
SWIDTH 457 0
DWIDTH 15 0
BBX 12 21 1 0
BITMAP
00e0
00c0
0180
0300
0000
0f80
1fc0
3060
6060
6030
fff0
fff0
e000
e000
e000
e000
e010
7030
38f0
3fe0
0f80
ENDCHAR
STARTCHAR ecircumflex
ENCODING 234
SWIDTH 457 0
DWIDTH 15 0
BBX 12 22 1 0
BITMAP
0200
0700
0d80
18c0
3060
0000
0f80
1fc0
3060
6060
6030
fff0
fff0
e000
e000
e000
e000
e010
7030
38f0
3fe0
0f80
ENDCHAR
STARTCHAR edieresis
ENCODING 235
SWIDTH 457 0
DWIDTH 15 0
BBX 12 20 1 0
BITMAP
0c60
1ef0
0c60
0000
0f80
1fc0
3060
6060
6030
fff0
fff0
e000
e000
e000
e000
e010
7030
38f0
3fe0
0f80
ENDCHAR
STARTCHAR igrave
ENCODING 236
SWIDTH 287 0
DWIDTH 9 0
BBX 7 21 1 0
BITMAP
e0
60
30
18
00
00
18
78
38
38
38
38
38
38
38
38
38
38
38
38
fe
ENDCHAR
STARTCHAR iacute
ENCODING 237
SWIDTH 262 0
DWIDTH 9 0
BBX 7 20 1 0
BITMAP
1c
18
30
60
00
18
78
38
38
38
38
38
38
38
38
38
38
38
38
fe
ENDCHAR
STARTCHAR icircumflex
ENCODING 238
SWIDTH 262 0
DWIDTH 9 0
BBX 9 22 0 0
BITMAP
0800
1c00
3600
6300
c180
0000
0000
0c00
3c00
1c00
1c00
1c00
1c00
1c00
1c00
1c00
1c00
1c00
1c00
1c00
1c00
7f00
ENDCHAR
STARTCHAR idieresis
ENCODING 239
SWIDTH 262 0
DWIDTH 9 0
BBX 9 20 0 0
BITMAP
6300
f780
6300
0000
0000
0c00
3c00
1c00
1c00
1c00
1c00
1c00
1c00
1c00
1c00
1c00
1c00
1c00
1c00
7f00
ENDCHAR
STARTCHAR eth
ENCODING 240
SWIDTH 452 0
DWIDTH 15 0
BBX 12 21 2 0
BITMAP
3c00
0700
0380
07f0
07f0
00c0
00c0
0ec0
1fc0
39c0
70c0
70c0
e0c0
e0c0
c180
c180
c380
c300
c600
6c00
3800
ENDCHAR
STARTCHAR ntilde
ENCODING 241
SWIDTH 510 0
DWIDTH 17 0
BBX 16 21 1 0
BITMAP
0720
09c0
0000
0000
0000
09f0
3bf8
7c38
381c
381c
381c
381c
381c
381c
381c
381c
381c
381c
381c
381c
fe7f
ENDCHAR
STARTCHAR ograve
ENCODING 242
SWIDTH 482 0
DWIDTH 16 0
BBX 14 21 1 0
BITMAP
0e00
0600
0300
0180
0000
0fc0
1fe0
3870
7038
7038
e01c
e01c
e01c
e01c
e01c
e01c
7038
7038
3870
1fe0
0fc0
ENDCHAR
STARTCHAR oacute
ENCODING 243
SWIDTH 482 0
DWIDTH 16 0
BBX 14 21 1 0
BITMAP
00e0
00c0
0180
0300
0000
0fc0
1fe0
3870
7038
7038
e01c
e01c
e01c
e01c
e01c
e01c
7038
7038
3870
1fe0
0fc0
ENDCHAR
STARTCHAR ocircumflex
ENCODING 244
SWIDTH 482 0
DWIDTH 16 0
BBX 14 22 1 0
BITMAP
0200
0700
0d80
18c0
3060
0000
0fc0
1fe0
3870
7038
7038
e01c
e01c
e01c
e01c
e01c
e01c
7038
7038
3870
1fe0
0fc0
ENDCHAR
STARTCHAR otilde
ENCODING 245
SWIDTH 482 0
DWIDTH 16 0
BBX 14 21 1 0
BITMAP
0e40
1380
0000
0000
0000
0fc0
1fe0
3870
7038
7038
e01c
e01c
e01c
e01c
e01c
e01c
7038
7038
3870
1fe0
0fc0
ENDCHAR
STARTCHAR odieresis
ENCODING 246
SWIDTH 482 0
DWIDTH 16 0
BBX 14 20 1 0
BITMAP
0c60
1ef0
0c60
0000
0fc0
1fe0
3870
7038
7038
e01c
e01c
e01c
e01c
e01c
e01c
7038
7038
3870
1fe0
0fc0
ENDCHAR
STARTCHAR divide
ENCODING 247
SWIDTH 364 0
DWIDTH 12 0
BBX 10 10 1 4
BITMAP
0c00
0c00
0000
0000
ffc0
ffc0
0000
0000
0c00
0c00
ENDCHAR
STARTCHAR oslash
ENCODING 248
SWIDTH 515 0
DWIDTH 17 0
BBX 13 16 1 0
BITMAP
07b0
1ce0
3860
70f0
71b8
e138
e338
e238
e638
ec38
e838
f838
7038
3030
7860
cfc0
ENDCHAR
STARTCHAR ugrave
ENCODING 249
SWIDTH 524 0
DWIDTH 17 0
BBX 15 21 1 0
BITMAP
0e00
0600
0300
0180
0000
0000
f87c
381c
381c
381c
381c
381c
381c
381c
381c
381c
381c
381c
383e
3cfc
1f98
ENDCHAR
STARTCHAR uacute
ENCODING 250
SWIDTH 524 0
DWIDTH 17 0
BBX 15 20 1 0
BITMAP
01c0
0300
0600
0c00
0000
f87c
381c
381c
381c
381c
381c
381c
381c
381c
381c
381c
381c
383e
3cfc
1f98
ENDCHAR
STARTCHAR ucircumflex
ENCODING 251
SWIDTH 524 0
DWIDTH 17 0
BBX 15 23 1 0
BITMAP
0200
0700
0d80
18c0
3060
0000
0000
0000
f87c
381c
381c
381c
381c
381c
381c
381c
381c
381c
381c
381c
383e
3cfc
1f98
ENDCHAR
STARTCHAR udieresis
ENCODING 252
SWIDTH 524 0
DWIDTH 17 0
BBX 15 20 1 0
BITMAP
0c60
1ef0
0c60
0000
0000
f87c
381c
381c
381c
381c
381c
381c
381c
381c
381c
381c
381c
383e
3cfc
1f98
ENDCHAR
STARTCHAR yacute
ENCODING 253
SWIDTH 440 0
DWIDTH 15 0
BBX 16 24 0 -3
BITMAP
00e0
00c0
0180
0300
0000
0000
fe7f
381c
3818
1c10
1c30
1c20
0e60
0e40
0ec0
07c0
0780
0780
0300
0300
0600
7600
7c00
3800
ENDCHAR
STARTCHAR thorn
ENCODING 254
SWIDTH 524 0
DWIDTH 17 0
BBX 15 24 1 -5
BITMAP
fe00
3800
3800
3be0
3e30
3c18
381c
380e
380e
380e
380e
380e
380e
380e
380e
380c
3818
3c30
3fe0
3800
3800
3800
fe00
fe00
ENDCHAR
STARTCHAR ydieresis
ENCODING 255
SWIDTH 461 0
DWIDTH 15 0
BBX 16 23 0 -3
BITMAP
0630
0f78
0630
0000
0000
fe7f
381c
3818
1c10
1c30
1c20
0e60
0e40
0ec0
07c0
0780
0780
0300
0300
0600
7600
7c00
3800
ENDCHAR
STARTCHAR Amacron
ENCODING 256
SWIDTH 732 0
DWIDTH 24 0
BBX 22 26 1 0
BITMAP
00ff00
00ff00
000000
001000
003000
001800
003800
003800
003c00
005c00
005c00
008e00
008e00
008e00
01ff00
010700
020700
020380
020380
0401c0
0401c0
0801c0
0800e0
1800e0
1800f0
ff03fc
ENDCHAR
STARTCHAR amacron
ENCODING 257
SWIDTH 400 0
DWIDTH 13 0
BBX 13 20 0 0
BITMAP
1fc0
1fc0
0000
0000
0f80
1fc0
21c0
61c0
61c0
01c0
01c0
07c0
1fc0
39c0
61c0
e1c0
e1c0
e1c8
77d0
3ce0
ENDCHAR
STARTCHAR Abreve
ENCODING 258
SWIDTH 732 0
DWIDTH 24 0
BBX 22 26 1 0
BITMAP
010100
00fe00
007c00
001000
003000
001800
003800
003800
003c00
005c00
005c00
008e00
008e00
008e00
01ff00
010700
020700
020380
020380
0401c0
0401c0
0801c0
0800e0
1800e0
1800f0
ff03fc
ENDCHAR
STARTCHAR abreve
ENCODING 259
SWIDTH 400 0
DWIDTH 13 0
BBX 13 21 0 0
BITMAP
1020
0fc0
0780
0000
0000
0f80
1fc0
21c0
61c0
61c0
01c0
01c0
07c0
1fc0
39c0
61c0
e1c0
e1c0
e1c8
77d0
3ce0
ENDCHAR
STARTCHAR Aogonek
ENCODING 260
SWIDTH 732 0
DWIDTH 24 0
BBX 22 29 1 -6
BITMAP
001000
003000
001800
003800
003800
003c00
005c00
005c00
008e00
008e00
008e00
01ff00
010700
020700
020380
020380
0401c0
0401c0
0801c0
0800e0
1800e0
1800f0
ff03fc
008000
010000
030000
038400
01f800
00f000
ENDCHAR
STARTCHAR aogonek
ENCODING 261
SWIDTH 400 0
DWIDTH 13 0
BBX 13 22 0 -6
BITMAP
0f80
1fc0
21c0
61c0
61c0
01c0
01c0
07c0
1fc0
39c0
61c0
e1c0
e1c0
e1c8
77d0
3ce0
0800
1800
1800
1840
0f80
0700
ENDCHAR
STARTCHAR Cacute
ENCODING 262
SWIDTH 601 0
DWIDTH 20 0
BBX 18 26 1 0
BITMAP
003800
006000
008000
000000
01fc80
070780
0e0380
1c0180
380180
700080
700080
e00080
e00000
e00000
e00000
e00000
e00000
e00000
e00040
700040
7000c0
380080
380180
1c0380
0e0f80
03f080
ENDCHAR
STARTCHAR cacute
ENCODING 263
SWIDTH 424 0
DWIDTH 14 0
BBX 12 22 0 0
BITMAP
00e0
0180
0200
0000
0000
0000
0780
1fe0
3820
3070
7070
7030
e000
e000
e000
e000
e000
7010
7030
3860
1fe0
0fc0
ENDCHAR
STARTCHAR Ccircumflex
ENCODING 264
SWIDTH 601 0
DWIDTH 20 0
BBX 18 26 1 0
BITMAP
004000
00a000
011000
000000
01fc80
070780
0e0380
1c0180
380180
700080
700080
e00080
e00000
e00000
e00000
e00000
e00000
e00000
e00040
700040
7000c0
380080
380180
1c0380
0e0f80
03f080
ENDCHAR
STARTCHAR ccircumflex
ENCODING 265
SWIDTH 424 0
DWIDTH 14 0
BBX 12 21 0 0
BITMAP
0200
0500
0880
0000
0000
0780
1fe0
3820
3070
7070
7030
e000
e000
e000
e000
e000
7010
7030
3860
1fe0
0fc0
ENDCHAR
STARTCHAR Cdotaccent
ENCODING 266
SWIDTH 601 0
DWIDTH 20 0
BBX 18 26 1 0
BITMAP
006000
00f000
006000
000000
01fc80
070780
0e0380
1c0180
380180
700080
700080
e00080
e00000
e00000
e00000
e00000
e00000
e00000
e00040
700040
7000c0
380080
380180
1c0380
0e0f80
03f080
ENDCHAR
STARTCHAR cdotaccent
ENCODING 267
SWIDTH 424 0
DWIDTH 14 0
BBX 12 21 0 0
BITMAP
0180
03c0
0180
0000
0000
0780
1fe0
3820
3070
7070
7030
e000
e000
e000
e000
e000
7010
7030
3860
1fe0
0fc0
ENDCHAR
STARTCHAR Ccaron
ENCODING 268
SWIDTH 601 0
DWIDTH 20 0
BBX 18 26 1 0
BITMAP
011000
00a000
004000
000000
01fc80
070780
0e0380
1c0180
380180
700080
700080
e00080
e00000
e00000
e00000
e00000
e00000
e00000
e00040
700040
7000c0
380080
380180
1c0380
0e0f80
03f080
ENDCHAR
STARTCHAR ccaron
ENCODING 269
SWIDTH 424 0
DWIDTH 14 0
BBX 12 20 0 0
BITMAP
0440
0280
0100
0000
0780
1fe0
3820
3070
7070
7030
e000
e000
e000
e000
e000
7010
7030
3860
1fe0
0fc0
ENDCHAR
STARTCHAR Dcaron
ENCODING 270
SWIDTH 650 0
DWIDTH 21 0
BBX 20 26 0 0
BITMAP
008800
005000
002000
000000
fffe00
1c0700
1c0180
1c00c0
1c00e0
1c00e0
1c0070
1c0070
1c0070
1c0070
1c0070
1c0070
1c0070
1c0070
1c0070
1c00e0
1c00c0
1c0180
1c0380
1c0600
1c1c00
fff000
ENDCHAR
STARTCHAR dcaron
ENCODING 271
SWIDTH 487 0
DWIDTH 16 0
BBX 13 25 1 0
BITMAP
1100
0a00
0400
0010
00f0
0070
0070
0070
0070
0f70
19f0
30f0
6070
6070
e070
e070
e070
e070
e070
e070
e070
6070
7070
38f8
1fa0
ENDCHAR
STARTCHAR Dcroat
ENCODING 272
SWIDTH 650 0
DWIDTH 21 0
BBX 20 22 0 0
BITMAP
fffe00
1c0700
1c0180
1c00c0
1c00e0
1c00e0
1c0070
1c0070
1c0070
1c0070
7f0070
7f0070
1c0070
1c0070
1c0070
1c00e0
1c00c0
1c0180
1c0380
1c0600
1c1c00
fff000
ENDCHAR
STARTCHAR dcroat
ENCODING 273
SWIDTH 487 0
DWIDTH 16 0
BBX 14 22 1 0
BITMAP
0010
00f0
0070
01fc
01fc
0070
0f70
19f0
30f0
6070
6070
e070
e070
e070
e070
e070
e070
e070
6070
7070
38f8
1fa0
ENDCHAR
STARTCHAR Emacron
ENCODING 274
SWIDTH 584 0
DWIDTH 19 0
BBX 18 26 0 0
BITMAP
07f800
07f800
000000
000000
ffff00
1c0780
1c0380
1c0180
1c0180
1c00c0
1c0840
1c0800
1c1800
1ff800
1c1800
1c1800
1c0800
1c0800
1c0000
1c0040
1c0080
1c0080
1c0180
1c0380
1c0700
ffff00
ENDCHAR
STARTCHAR emacron
ENCODING 275
SWIDTH 457 0
DWIDTH 15 0
BBX 12 19 1 0
BITMAP
1fc0
1fc0
0000
0f80
1fc0
3060
6060
6030
fff0
fff0
e000
e000
e000
e000
e010
7030
38f0
3fe0
0f80
ENDCHAR
STARTCHAR Ebreve
ENCODING 276
SWIDTH 584 0
DWIDTH 19 0
BBX 18 26 0 0
BITMAP
040800
03f000
01e000
000000
ffff00
1c0780
1c0380
1c0180
1c0180
1c00c0
1c0840
1c0800
1c1800
1ff800
1c1800
1c1800
1c0800
1c0800
1c0000
1c0040
1c0080
1c0080
1c0180
1c0380
1c0700
ffff00
ENDCHAR
STARTCHAR ebreve
ENCODING 277
SWIDTH 457 0
DWIDTH 15 0
BBX 12 20 1 0
BITMAP
1040
0f80
0700
0000
0f80
1fc0
3060
6060
6030
fff0
fff0
e000
e000
e000
e000
e010
7030
38f0
3fe0
0f80
ENDCHAR
STARTCHAR Edotaccent
ENCODING 278
SWIDTH 584 0
DWIDTH 19 0
BBX 18 26 0 0
BITMAP
00c000
00c000
000000
000000
ffff00
1c0780
1c0380
1c0180
1c0180
1c00c0
1c0840
1c0800
1c1800
1ff800
1c1800
1c1800
1c0800
1c0800
1c0000
1c0040
1c0080
1c0080
1c0180
1c0380
1c0700
ffff00
ENDCHAR
STARTCHAR edotaccent
ENCODING 279
SWIDTH 457 0
DWIDTH 15 0
BBX 12 20 1 0
BITMAP
0600
0600
0000
0000
0f80
1fc0
3060
6060
6030
fff0
fff0
e000
e000
e000
e000
e010
7030
38f0
3fe0
0f80
ENDCHAR
STARTCHAR Eogonek
ENCODING 280
SWIDTH 584 0
DWIDTH 19 0
BBX 18 28 0 -6
BITMAP
ffff00
1c0780
1c0380
1c0180
1c0180
1c00c0
1c0840
1c0800
1c1800
1ff800
1c1800
1c1800
1c0800
1c0800
1c0000
1c0040
1c0080
1c0080
1c0180
1c0380
1c0700
ffff00
080000
100000
300000
388000
1f0000
0e0000
ENDCHAR
STARTCHAR eogonek
ENCODING 281
SWIDTH 457 0
DWIDTH 15 0
BBX 12 22 1 -6
BITMAP
0f80
1fc0
3060
6060
6030
fff0
fff0
e000
e000
e000
e000
e010
7030
38f0
3fe0
0f80
0400
0c00
0c00
0e20
0fc0
0780
ENDCHAR
STARTCHAR Ecaron
ENCODING 282
SWIDTH 584 0
DWIDTH 19 0
BBX 18 26 0 0
BITMAP
011000
00a000
004000
000000
ffff00
1c0780
1c0380
1c0180
1c0180
1c00c0
1c0840
1c0800
1c1800
1ff800
1c1800
1c1800
1c0800
1c0800
1c0000
1c0040
1c0080
1c0080
1c0180
1c0380
1c0700
ffff00
ENDCHAR
STARTCHAR ecaron
ENCODING 283
SWIDTH 457 0
DWIDTH 15 0
BBX 12 20 1 0
BITMAP
0880
0500
0200
0000
0f80
1fc0
3060
6060
6030
fff0
fff0
e000
e000
e000
e000
e010
7030
38f0
3fe0
0f80
ENDCHAR
STARTCHAR Gcircumflex
ENCODING 284
SWIDTH 610 0
DWIDTH 20 0
BBX 20 26 1 0
BITMAP
008000
014000
022000
000000
03f880
060f80
1c0380
380380
380180
700080
700080
700000
e00000
e00000
e00ff0
e00380
e00380
e00380
700380
700380
700380
380380
380380
1c0280
0e0e00
03f800
ENDCHAR
STARTCHAR gcircumflex
ENCODING 285
SWIDTH 457 0
DWIDTH 15 0
BBX 14 29 1 -7
BITMAP
0300
0780
0fc0
1ce0
1860
0000
0030
0f30
18b0
3040
3060
3060
3060
3060
3060
18c0
1f00
2000
6000
3e00
1fe0
20f8
4018
c00c
c00c
c008
6018
3060
0fc0
ENDCHAR
STARTCHAR Gbreve
ENCODING 286
SWIDTH 610 0
DWIDTH 20 0
BBX 20 26 1 0
BITMAP
040800
03f000
01e000
000000
03f880
060f80
1c0380
380380
380180
700080
700080
700000
e00000
e00000
e00ff0
e00380
e00380
e00380
700380
700380
700380
380380
380380
1c0280
0e0e00
03f800
ENDCHAR
STARTCHAR gbreve
ENCODING 287
SWIDTH 457 0
DWIDTH 15 0
BBX 14 28 1 -7
BITMAP
3180
1f00
0e00
0000
0000
0030
0f30
18b0
3040
3060
3060
3060
3060
3060
18c0
1f00
2000
6000
3e00
1fe0
20f8
4018
c00c
c00c
c008
6018
3060
0fc0
ENDCHAR
STARTCHAR Gdotaccent
ENCODING 288
SWIDTH 610 0
DWIDTH 20 0
BBX 20 26 1 0
BITMAP
00c000
00c000
000000
000000
03f880
060f80
1c0380
380380
380180
700080
700080
700000
e00000
e00000
e00ff0
e00380
e00380
e00380
700380
700380
700380
380380
380380
1c0280
0e0e00
03f800
ENDCHAR
STARTCHAR gdotaccent
ENCODING 289
SWIDTH 457 0
DWIDTH 15 0
BBX 14 27 1 -7
BITMAP
0700
0300
0000
0000
0030
0f30
18b0
3040
3060
3060
3060
3060
3060
18c0
1f00
2000
6000
3e00
1fe0
20f8
4018
c00c
c00c
c008
6018
3060
0fc0
ENDCHAR
STARTCHAR Gcommaaccent
ENCODING 290
SWIDTH 610 0
DWIDTH 20 0
BBX 20 29 1 -7
BITMAP
03f880
060f80
1c0380
380380
380180
700080
700080
700000
e00000
e00000
e00ff0
e00380
e00380
e00380
700380
700380
700380
380380
380380
1c0280
0e0e00
03f800
008000
00f000
007800
000c00
000c00
003800
01f000
ENDCHAR
STARTCHAR gcommaaccent
ENCODING 291
SWIDTH 457 0
DWIDTH 15 0
BBX 14 32 1 -7
BITMAP
0f00
1800
3000
3000
3800
1e00
0200
0000
0000
0030
0fb0
1dc0
38e0
38e0
38e0
38e0
38e0
38c0
19c0
1f00
2000
7000
3f00
1fe0
21f8
6038
e01c
e01c
e018
7038
3ff0
0fc0
ENDCHAR
STARTCHAR Hcircumflex
ENCODING 292
SWIDTH 695 0
DWIDTH 23 0
BBX 20 26 1 0
BITMAP
002000
005000
008800
000000
ff8ff0
1c01c0
1c01c0
1c01c0
1c01c0
1c01c0
1c01c0
1c01c0
1c01c0
1c01c0
1fffc0
1c01c0
1c01c0
1c01c0
1c01c0
1c01c0
1c01c0
1c01c0
1c01c0
1c01c0
1c01c0
ff8ff0
ENDCHAR
STARTCHAR hcircumflex
ENCODING 293
SWIDTH 510 0
DWIDTH 17 0
BBX 16 26 1 0
BITMAP
0100
0280
0440
0000
0800
3800
7800
3800
3800
3800
38e0
3bf8
3c38
381c
381c
381c
381c
381c
381c
381c
381c
381c
381c
381c
381c
fe7f
ENDCHAR
STARTCHAR Hbar
ENCODING 294
SWIDTH 695 0
DWIDTH 23 0
BBX 21 22 1 0
BITMAP
ff8ff8
1c01c0
1c01c0
1c01c0
7ffff0
7ffff0
1c01c0
1c01c0
1c01c0
1c01c0
1fffc0
1c01c0
1c01c0
1c01c0
1c01c0
1c01c0
1c01c0
1c01c0
1c01c0
1c01c0
1c01c0
ff8ff8
ENDCHAR
STARTCHAR hbar
ENCODING 295
SWIDTH 510 0
DWIDTH 17 0
BBX 16 22 1 0
BITMAP
0800
3800
7800
3800
fe00
fe00
38e0
3bf8
3c38
381c
381c
381c
381c
381c
381c
381c
381c
381c
381c
381c
381c
fe7f
ENDCHAR
STARTCHAR Itilde
ENCODING 296
SWIDTH 297 0
DWIDTH 10 0
BBX 9 26 1 0
BITMAP
3b00
6e00
0000
0000
ff80
1c00
1c00
1c00
1c00
1c00
1c00
1c00
1c00
1c00
1c00
1c00
1c00
1c00
1c00
1c00
1c00
1c00
1c00
1c00
1c00
ff80
ENDCHAR
STARTCHAR itilde
ENCODING 297
SWIDTH 262 0
DWIDTH 9 0
BBX 9 21 0 0
BITMAP
1900
2600
0000
0000
0000
0c00
1c00
3c00
1c00
1c00
1c00
1c00
1c00
1c00
1c00
1c00
1c00
1c00
1c00
1c00
ff80
ENDCHAR
STARTCHAR Imacron
ENCODING 298
SWIDTH 297 0
DWIDTH 10 0
BBX 9 25 1 0
BITMAP
7f00
7f00
0000
ff80
1c00
1c00
1c00
1c00
1c00
1c00
1c00
1c00
1c00
1c00
1c00
1c00
1c00
1c00
1c00
1c00
1c00
1c00
1c00
1c00
ff80
ENDCHAR
STARTCHAR imacron
ENCODING 299
SWIDTH 262 0
DWIDTH 9 0
BBX 9 20 0 0
BITMAP
7f00
7f00
0000
0000
0c00
1c00
3c00
1c00
1c00
1c00
1c00
1c00
1c00
1c00
1c00
1c00
1c00
1c00
1c00
ff80
ENDCHAR
STARTCHAR Ibreve
ENCODING 300
SWIDTH 297 0
DWIDTH 10 0
BBX 9 26 1 0
BITMAP
6300
3e00
1c00
0000
ff80
1c00
1c00
1c00
1c00
1c00
1c00
1c00
1c00
1c00
1c00
1c00
1c00
1c00
1c00
1c00
1c00
1c00
1c00
1c00
1c00
ff80
ENDCHAR
STARTCHAR ibreve
ENCODING 301
SWIDTH 262 0
DWIDTH 9 0
BBX 9 21 0 0
BITMAP
8200
7c00
3800
0000
0000
0c00
1c00
3c00
1c00
1c00
1c00
1c00
1c00
1c00
1c00
1c00
1c00
1c00
1c00
1c00
ff80
ENDCHAR
STARTCHAR Iogonek
ENCODING 302
SWIDTH 297 0
DWIDTH 10 0
BBX 9 28 1 -6
BITMAP
ff80
1c00
1c00
1c00
1c00
1c00
1c00
1c00
1c00
1c00
1c00
1c00
1c00
1c00
1c00
1c00
1c00
1c00
1c00
1c00
1c00
ff80
1000
2000
6000
6100
3e00
1c00
ENDCHAR
STARTCHAR iogonek
ENCODING 303
SWIDTH 262 0
DWIDTH 9 0
BBX 9 27 0 -6
BITMAP
1800
3c00
1800
0000
0000
0000
1800
7800
3800
3800
3800
3800
3800
3800
3800
3800
3800
3800
3800
3800
ff00
1800
3000
3000
3880
1f00
0f00
ENDCHAR
STARTCHAR Idotaccent
ENCODING 304
SWIDTH 297 0
DWIDTH 10 0
BBX 9 27 1 0
BITMAP
0800
1c00
1c00
0800
0000
ff80
1c00
1c00
1c00
1c00
1c00
1c00
1c00
1c00
1c00
1c00
1c00
1c00
1c00
1c00
1c00
1c00
1c00
1c00
1c00
1c00
ff80
ENDCHAR
STARTCHAR dotlessi
ENCODING 305
SWIDTH 262 0
DWIDTH 9 0
BBX 9 16 0 0
BITMAP
0c00
1c00
3c00
1c00
1c00
1c00
1c00
1c00
1c00
1c00
1c00
1c00
1c00
1c00
1c00
ff80
ENDCHAR
STARTCHAR IJ
ENCODING 306
SWIDTH 651 0
DWIDTH 21 0
BBX 21 25 1 -3
BITMAP
ff8ff8
1c01c0
1c01c0
1c01c0
1c01c0
1c01c0
1c01c0
1c01c0
1c01c0
1c01c0
1c01c0
1c01c0
1c01c0
1c01c0
1c01c0
1c01c0
1c01c0
1c01c0
1c01c0
1c01c0
1c01c0
ff9180
003980
003b00
001e00
ENDCHAR
STARTCHAR ij
ENCODING 307
SWIDTH 549 0
DWIDTH 18 0
BBX 17 26 -1 -5
BITMAP
0c0300
1e0780
0c0300
000000
000000
000000
0c0300
3c0f00
1c0700
1c0700
1c0700
1c0700
1c0700
1c0700
1c0700
1c0700
1c0700
1c0700
1c0700
1c0700
ff8700
000700
000600
003600
003400
003800
ENDCHAR
STARTCHAR Jcircumflex
ENCODING 308
SWIDTH 327 0
DWIDTH 11 0
BBX 12 29 0 -3
BITMAP
0100
0280
0440
0000
1ff0
0380
0380
0380
0380
0380
0380
0380
0380
0380
0380
0380
0380
0380
0380
0380
0380
0380
0380
0380
0300
6300
f700
f600
7c00
ENDCHAR
STARTCHAR jcircumflex
ENCODING 309
SWIDTH 287 0
DWIDTH 9 0
BBX 8 25 -1 -5
BITMAP
04
0a
11
00
00
06
1e
0e
0e
0e
0e
0e
0e
0e
0e
0e
0e
0e
0e
0e
0e
4e
ec
ec
78
ENDCHAR
STARTCHAR Kcommaaccent
ENCODING 310
SWIDTH 662 0
DWIDTH 22 0
BBX 20 29 1 -7
BITMAP
ff1fe0
1c0780
1c0600
1c0400
1c0800
1c1000
1c2000
1c4000
1c8000
1dc000
1fc000
1ce000
1c7000
1c3800
1c3800
1c1c00
1c1c00
1c0e00
1c0700
1c0700
1c0380
ff07f0
004000
007800
001c00
000c00
000c00
001800
00f000
ENDCHAR
STARTCHAR kcommaaccent
ENCODING 311
SWIDTH 526 0
DWIDTH 17 0
BBX 17 29 0 -7
BITMAP
080000
380000
780000
380000
380000
380000
380000
38fe00
383800
383000
386000
38c000
398000
3bc000
3dc000
39e000
38e000
387000
387800
383800
383c00
ff7f80
008000
00f000
003800
001800
001800
003000
01e000
ENDCHAR
STARTCHAR kgreenlandic
ENCODING 312
SWIDTH 526 0
DWIDTH 17 0
BBX 17 15 0 0
BITMAP
ff7f00
381c00
381800
383000
386000
388000
39c000
3ec000
38e000
387000
383800
381800
381c00
380e00
ff0780
ENDCHAR
STARTCHAR Lacute
ENCODING 313
SWIDTH 567 0
DWIDTH 19 0
BBX 17 26 1 0
BITMAP
070000
0c0000
100000
000000
ff8000
1c0000
1c0000
1c0000
1c0000
1c0000
1c0000
1c0000
1c0000
1c0000
1c0000
1c0000
1c0000
1c0000
1c0000
1c0000
1c0080
1c0080
1c0180
1c0300
1c0700
fffe00
ENDCHAR
STARTCHAR lacute
ENCODING 314
SWIDTH 262 0
DWIDTH 9 0
BBX 7 26 1 0
BITMAP
1c
30
40
00
08
38
78
38
38
38
38
38
38
38
38
38
38
38
38
38
38
38
38
38
38
fe
ENDCHAR
STARTCHAR Lcommaaccent
ENCODING 315
SWIDTH 567 0
DWIDTH 19 0
BBX 17 29 1 -7
BITMAP
ff8000
1c0000
1c0000
1c0000
1c0000
1c0000
1c0000
1c0000
1c0000
1c0000
1c0000
1c0000
1c0000
1c0000
1c0000
1c0000
1c0080
1c0080
1c0180
1c0300
1c0700
fffe00
020000
03c000
00e000
006000
006000
00c000
078000
ENDCHAR
STARTCHAR lcommaaccent
ENCODING 316
SWIDTH 262 0
DWIDTH 9 0
BBX 8 29 1 -7
BITMAP
08
38
78
38
38
38
38
38
38
38
38
38
38
38
38
38
38
38
38
38
38
fe
10
1e
07
03
03
06
3c
ENDCHAR
STARTCHAR Lcaron
ENCODING 317
SWIDTH 567 0
DWIDTH 19 0
BBX 17 26 1 0
BITMAP
440000
280000
100000
000000
ff8000
1c0000
1c0000
1c0000
1c0000
1c0000
1c0000
1c0000
1c0000
1c0000
1c0000
1c0000
1c0000
1c0000
1c0000
1c0000
1c0080
1c0080
1c0180
1c0300
1c0700
fffe00
ENDCHAR
STARTCHAR lcaron
ENCODING 318
SWIDTH 262 0
DWIDTH 9 0
BBX 7 26 1 0
BITMAP
44
28
10
00
08
38
78
38
38
38
38
38
38
38
38
38
38
38
38
38
38
38
38
38
38
fe
ENDCHAR
STARTCHAR Ldot
ENCODING 319
SWIDTH 567 0
DWIDTH 19 0
BBX 17 22 1 0
BITMAP
ff8000
1c0000
1c0000
1c0000
1c0000
1c0000
1c0000
1c0000
1c0000
1c3000
1c3000
1c0000
1c0000
1c0000
1c0000
1c0000
1c0080
1c0080
1c0180
1c0300
1c0700
fffe00
ENDCHAR
STARTCHAR ldot
ENCODING 320
SWIDTH 262 0
DWIDTH 9 0
BBX 9 22 1 0
BITMAP
0800
3800
7800
3800
3800
3800
3800
3800
3800
3980
3980
3800
3800
3800
3800
3800
3800
3800
3800
3800
3800
fe00
ENDCHAR
STARTCHAR Lslash
ENCODING 321
SWIDTH 567 0
DWIDTH 19 0
BBX 17 22 1 0
BITMAP
ff8000
1c0000
1c0000
1d8000
1f8000
1e0000
3c0000
fc0000
dc0000
1c0000
1c0000
1c0000
1c0000
1c0000
1c0000
1c0000
1c0080
1c0080
1c0180
1c0300
1c0700
fffe00
ENDCHAR
STARTCHAR lslash
ENCODING 322
SWIDTH 262 0
DWIDTH 9 0
BBX 9 22 0 0
BITMAP
0400
1c00
3c00
1d80
1f80
1e00
3c00
fc00
dc00
1c00
1c00
1c00
1c00
1c00
1c00
1c00
1c00
1c00
1c00
1c00
1c00
7f00
ENDCHAR
STARTCHAR Nacute
ENCODING 323
SWIDTH 730 0
DWIDTH 24 0
BBX 23 26 1 0
BITMAP
000e00
001800
002000
000000
7e03fe
0e0070
0f0020
0b8020
0b8020
09c020
08e020
08e020
087020
083820
083820
081c20
080e20
080e20
080720
0807a0
0803a0
0801e0
0801e0
0800e0
1c0060
ff8060
ENDCHAR
STARTCHAR nacute
ENCODING 324
SWIDTH 510 0
DWIDTH 17 0
BBX 16 23 1 0
BITMAP
0070
00c0
0100
0000
0000
0000
0000
09f0
3bf8
7c38
381c
381c
381c
381c
381c
381c
381c
381c
381c
381c
381c
381c
fe7f
ENDCHAR
STARTCHAR Ncommaaccent
ENCODING 325
SWIDTH 730 0
DWIDTH 24 0
BBX 23 29 1 -7
BITMAP
7e03fe
0e0070
0f0020
0b8020
0b8020
09c020
08e020
08e020
087020
083820
083820
081c20
080e20
080e20
080720
0807a0
0803a0
0801e0
0801e0
0800e0
1c0060
ff8060
001000
001f00
000380
000180
000180
000300
003e00
ENDCHAR
STARTCHAR ncommaaccent
ENCODING 326
SWIDTH 510 0
DWIDTH 17 0
BBX 16 23 1 -7
BITMAP
09f0
3bf8
7c38
381c
381c
381c
381c
381c
381c
381c
381c
381c
381c
381c
381c
fe7f
0100
01e0
0070
0030
0030
0060
03c0
ENDCHAR
STARTCHAR Ncaron
ENCODING 327
SWIDTH 730 0
DWIDTH 24 0
BBX 23 26 1 0
BITMAP
008800
005000
002000
000000
7e03fe
0e0070
0f0020
0b8020
0b8020
09c020
08e020
08e020
087020
083820
083820
081c20
080e20
080e20
080720
0807a0
0803a0
0801e0
0801e0
0800e0
1c0060
ff8060
ENDCHAR
STARTCHAR ncaron
ENCODING 328
SWIDTH 510 0
DWIDTH 17 0
BBX 16 22 1 0
BITMAP
0440
0280
0100
0000
0000
0000
09f0
3bf8
7c38
381c
381c
381c
381c
381c
381c
381c
381c
381c
381c
381c
381c
fe7f
ENDCHAR
STARTCHAR napostrophe
ENCODING 329
SWIDTH 510 0
DWIDTH 17 0
BBX 16 23 1 0
BITMAP
00c0
01e0
00e0
0060
00c0
0180
0000
09f0
3bf8
7c38
381c
381c
381c
381c
381c
381c
381c
381c
381c
381c
381c
381c
fe7f
ENDCHAR
STARTCHAR Eng
ENCODING 330
SWIDTH 730 0
DWIDTH 24 0
BBX 23 26 1 -4
BITMAP
7e03fe
0e0078
0f0030
0b8030
0b8030
09c030
08e030
08e030
087030
083830
083830
081c30
080e30
080e30
080730
080730
0803b0
0803b0
0801f0
0800f0
1c00f0
ff8670
000f60
000f60
000e40
000780
ENDCHAR
STARTCHAR eng
ENCODING 331
SWIDTH 510 0
DWIDTH 17 0
BBX 15 21 0 -5
BITMAP
0cf8
1f9c
3e0c
1c0e
1c0e
1c0e
1c0e
1c0e
1c0e
1c0e
1c0e
1c0e
1c0e
1c0e
1c0e
ff8e
000e
004c
00ec
00f8
0070
ENDCHAR
STARTCHAR Omacron
ENCODING 332
SWIDTH 710 0
DWIDTH 23 0
BBX 20 26 2 0
BITMAP
03fc00
03fc00
000000
000000
03fc00
0e0700
180380
3801c0
7000e0
7000e0
e00070
e00070
e00070
e00070
e00070
e00070
e00070
e00070
e00070
700070
7000e0
3000e0
3800c0
180180
0e0700
03fc00
ENDCHAR
STARTCHAR omacron
ENCODING 333
SWIDTH 482 0
DWIDTH 16 0
BBX 14 19 1 0
BITMAP
0fe0
0fe0
0000
0fc0
3cf0
3030
7038
7038
e01c
e01c
e01c
e01c
e01c
e01c
7038
7038
3030
38f0
0fc0
ENDCHAR
STARTCHAR Obreve
ENCODING 334
SWIDTH 710 0
DWIDTH 23 0
BBX 20 26 2 0
BITMAP
018c00
00f800
007000
000000
03fc00
0e0700
180380
3801c0
7000e0
7000e0
e00070
e00070
e00070
e00070
e00070
e00070
e00070
e00070
e00070
700070
7000e0
3000e0
3800c0
180180
0e0700
03fc00
ENDCHAR
STARTCHAR obreve
ENCODING 335
SWIDTH 482 0
DWIDTH 16 0
BBX 14 21 1 0
BITMAP
18c0
0f80
0700
0000
0000
0fc0
3cf0
3030
7038
7038
e01c
e01c
e01c
e01c
e01c
e01c
7038
7038
3030
38f0
0fc0
ENDCHAR
STARTCHAR Ohungarumlaut
ENCODING 336
SWIDTH 710 0
DWIDTH 23 0
BBX 20 26 2 0
BITMAP
00e700
018c00
021000
000000
03fc00
0e0700
180380
3801c0
7000e0
7000e0
e00070
e00070
e00070
e00070
e00070
e00070
e00070
e00070
e00070
700070
7000e0
3000e0
3800c0
180180
0e0700
03fc00
ENDCHAR
STARTCHAR ohungarumlaut
ENCODING 337
SWIDTH 482 0
DWIDTH 16 0
BBX 14 21 1 0
BITMAP
0738
0c60
1080
0000
0000
0fc0
3cf0
3030
7038
7038
e01c
e01c
e01c
e01c
e01c
e01c
7038
7038
3030
38f0
0fc0
ENDCHAR
STARTCHAR OE
ENCODING 338
SWIDTH 1006 0
DWIDTH 33 0
BBX 29 22 2 0
BITMAP
01fffff0
07078070
0c038030
18038018
30038018
70038008
60038108
e0038100
e0038300
e0038300
e003ff00
e0038300
e0038100
e0038100
e0038000
60038008
70038008
30038018
38038010
1c038030
07038070
01ffffe0
ENDCHAR
STARTCHAR oe
ENCODING 339
SWIDTH 798 0
DWIDTH 26 0
BBX 23 16 2 0
BITMAP
0f01e0
39c3f0
706c18
606c08
e0380c
e03ffc
e03ffc
e03800
e03800
e03800
e03800
e03802
607c04
707e18
39cff0
0f03e0
ENDCHAR
STARTCHAR Racute
ENCODING 340
SWIDTH 627 0
DWIDTH 21 0
BBX 20 26 1 0
BITMAP
00e000
018000
020000
000000
fff800
381c00
380e00
380e00
380e00
380e00
380e00
380c00
381c00
3ff000
386000
387000
383000
383800
381800
381c00
380e00
380600
380700
380300
380380
ff01f0
ENDCHAR
STARTCHAR racute
ENCODING 341
SWIDTH 345 0
DWIDTH 11 0
BBX 10 22 0 0
BITMAP
0700
0c00
1000
0000
0000
0000
0980
3bc0
7d80
3800
3800
3800
3800
3800
3800
3800
3800
3800
3800
3800
3800
fe00
ENDCHAR
STARTCHAR Rcommaaccent
ENCODING 342
SWIDTH 627 0
DWIDTH 21 0
BBX 20 29 1 -7
BITMAP
fff800
381c00
380e00
380e00
380e00
380e00
380e00
380c00
381c00
3ff000
386000
387000
383000
383800
381800
381c00
380e00
380600
380700
380300
380380
ff01f0
004000
007800
001c00
000c00
000c00
001800
00f000
ENDCHAR
STARTCHAR rcommaaccent
ENCODING 343
SWIDTH 345 0
DWIDTH 11 0
BBX 10 23 0 -7
BITMAP
0980
3bc0
7d80
3800
3800
3800
3800
3800
3800
3800
3800
3800
3800
3800
3800
fe00
0800
0f00
0380
0180
0180
0300
1e00
ENDCHAR
STARTCHAR Rcaron
ENCODING 344
SWIDTH 627 0
DWIDTH 21 0
BBX 20 26 1 0
BITMAP
044000
028000
010000
000000
fff800
381c00
380e00
380e00
380e00
380e00
380e00
380c00
381c00
3ff000
386000
387000
383000
383800
381800
381c00
380e00
380600
380700
380300
380380
ff01f0
ENDCHAR
STARTCHAR rcaron
ENCODING 345
SWIDTH 345 0
DWIDTH 11 0
BBX 10 21 0 0
BITMAP
1100
0a00
0400
0000
0000
0980
3bc0
7d80
3800
3800
3800
3800
3800
3800
3800
3800
3800
3800
3800
3800
fe00
ENDCHAR
STARTCHAR Sacute
ENCODING 346
SWIDTH 502 0
DWIDTH 17 0
BBX 15 26 1 0
BITMAP
01c0
0300
0400
0000
1fc4
303c
601c
e00c
c00c
c004
e004
f000
7c00
3f80
1fe0
07f0
00f8
003c
001c
400e
400e
400e
600c
7008
7810
47e0
ENDCHAR
STARTCHAR sacute
ENCODING 347
SWIDTH 385 0
DWIDTH 13 0
BBX 10 21 1 0
BITMAP
0380
0600
0800
0000
0000
3f00
7180
e180
e080
e080
f000
7800
3e00
0f00
0780
03c0
41c0
41c0
61c0
6380
3f00
ENDCHAR
STARTCHAR Scircumflex
ENCODING 348
SWIDTH 502 0
DWIDTH 17 0
BBX 15 26 1 0
BITMAP
0200
0500
0880
0000
1fc4
303c
601c
e00c
c00c
c004
e004
f000
7c00
3f80
1fe0
07f0
00f8
003c
001c
400e
400e
400e
600c
7008
7810
47e0
ENDCHAR
STARTCHAR scircumflex
ENCODING 349
SWIDTH 385 0
DWIDTH 13 0
BBX 10 21 1 0
BITMAP
0400
0a00
1100
0000
0000
3f00
7180
e180
e080
e080
f000
7800
3e00
0f00
0780
03c0
41c0
41c0
61c0
6380
3f00
ENDCHAR
STARTCHAR Scedilla
ENCODING 350
SWIDTH 502 0
DWIDTH 17 0
BBX 15 29 1 -7
BITMAP
1fc4
303c
601c
e00c
c00c
c004
e004
f000
7c00
3f80
1fe0
07f0
00f8
003c
001c
400e
400e
400e
600c
7008
7810
47e0
0100
01e0
0070
0030
0030
0060
03c0
ENDCHAR
STARTCHAR scedilla
ENCODING 351
SWIDTH 385 0
DWIDTH 13 0
BBX 10 23 1 -7
BITMAP
3f00
7180
e180
e080
e080
f000
7800
3e00
0f00
0780
03c0
41c0
41c0
61c0
6380
3f00
0800
0f00
0380
0180
0180
0300
1e00
ENDCHAR
STARTCHAR Scaron
ENCODING 352
SWIDTH 502 0
DWIDTH 17 0
BBX 15 26 1 0
BITMAP
0880
0500
0200
0000
1fc4
303c
601c
e00c
c00c
c004
e004
f000
7c00
3f80
1fe0
07f0
00f8
003c
001c
400e
400e
400e
600c
7008
7810
47e0
ENDCHAR
STARTCHAR scaron
ENCODING 353
SWIDTH 385 0
DWIDTH 13 0
BBX 10 21 1 0
BITMAP
2200
1400
0800
0000
0000
3f00
7180
e180
e080
e080
f000
7800
3e00
0f00
0780
03c0
41c0
41c0
61c0
6380
3f00
ENDCHAR
STARTCHAR uni0162
ENCODING 354
SWIDTH 741 0
DWIDTH 24 0
BBX 23 29 1 -7
BITMAP
3ffff8
387c38
70381c
60380c
403804
803802
003800
003800
003800
003800
003800
003800
003800
003800
003800
003800
003800
003800
003800
003800
007c00
01ff00
002000
003c00
000e00
000600
000600
000c00
007800
ENDCHAR
STARTCHAR uni0163
ENCODING 355
SWIDTH 265 0
DWIDTH 9 0
BBX 8 25 1 -7
BITMAP
10
30
70
7e
fc
70
70
70
70
70
70
70
70
70
70
72
3c
18
10
1e
07
03
03
06
3c
ENDCHAR
STARTCHAR Tcaron
ENCODING 356
SWIDTH 741 0
DWIDTH 24 0
BBX 23 26 1 0
BITMAP
004400
002800
001000
000000
3ffff8
387c38
70381c
60380c
403804
803802
003800
003800
003800
003800
003800
003800
003800
003800
003800
003800
003800
003800
003800
003800
007c00
01ff00
ENDCHAR
STARTCHAR tcaron
ENCODING 357
SWIDTH 265 0
DWIDTH 9 0
BBX 7 23 1 0
BITMAP
88
50
20
00
00
10
30
70
7e
fc
70
70
70
70
70
70
70
70
70
70
72
3c
18
ENDCHAR
STARTCHAR Tbar
ENCODING 358
SWIDTH 741 0
DWIDTH 24 0
BBX 23 22 1 0
BITMAP
3ffff8
387c38
70381c
60380c
403804
803802
00fe00
00fe00
003800
003800
003800
003800
003800
003800
003800
003800
003800
003800
003800
003800
007c00
01ff00
ENDCHAR
STARTCHAR tbar
ENCODING 359
SWIDTH 265 0
DWIDTH 9 0
BBX 8 18 0 0
BITMAP
08
18
38
3f
7e
38
38
fe
fe
38
38
38
38
38
38
39
1e
0c
ENDCHAR
STARTCHAR Utilde
ENCODING 360
SWIDTH 656 0
DWIDTH 22 0
BBX 20 26 1 0
BITMAP
007200
009c00
000000
000000
ff87f0
3e01c0
1c0080
1c0080
1c0080
1c0080
1c0080
1c0080
1c0080
1c0080
1c0080
1c0080
1c0080
1c0080
1c0080
1c0080
1c0080
1c0080
0c0100
0e0100
070600
01f800
ENDCHAR
STARTCHAR utilde
ENCODING 361
SWIDTH 524 0
DWIDTH 17 0
BBX 15 21 1 0
BITMAP
0720
09c0
0000
0000
0000
0000
f87c
381c
381c
381c
381c
381c
381c
381c
381c
381c
381c
381c
383e
3cdc
1f98
ENDCHAR
STARTCHAR Umacron
ENCODING 362
SWIDTH 656 0
DWIDTH 22 0
BBX 20 26 1 0
BITMAP
03fe00
03fe00
000000
000000
ff87f0
3e01c0
1c0080
1c0080
1c0080
1c0080
1c0080
1c0080
1c0080
1c0080
1c0080
1c0080
1c0080
1c0080
1c0080
1c0080
1c0080
1c0080
0c0100
0e0100
070600
01f800
ENDCHAR
STARTCHAR umacron
ENCODING 363
SWIDTH 524 0
DWIDTH 17 0
BBX 15 20 1 0
BITMAP
0fe0
0fe0
0000
0000
0000
f87c
381c
381c
381c
381c
381c
381c
381c
381c
381c
381c
381c
383e
3cdc
1f98
ENDCHAR
STARTCHAR Ubreve
ENCODING 364
SWIDTH 656 0
DWIDTH 22 0
BBX 20 26 1 0
BITMAP
010200
00fc00
007800
000000
ff87f0
3e01c0
1c0080
1c0080
1c0080
1c0080
1c0080
1c0080
1c0080
1c0080
1c0080
1c0080
1c0080
1c0080
1c0080
1c0080
1c0080
1c0080
0c0100
0e0100
070600
01f800
ENDCHAR
STARTCHAR ubreve
ENCODING 365
SWIDTH 524 0
DWIDTH 17 0
BBX 15 21 1 0
BITMAP
18c0
0f80
0700
0000
0000
0000
f87c
381c
381c
381c
381c
381c
381c
381c
381c
381c
381c
381c
383e
3cdc
1f98
ENDCHAR
STARTCHAR Uring
ENCODING 366
SWIDTH 656 0
DWIDTH 22 0
BBX 20 26 1 0
BITMAP
003000
004800
004800
003000
ff87f0
3e01c0
1c0080
1c0080
1c0080
1c0080
1c0080
1c0080
1c0080
1c0080
1c0080
1c0080
1c0080
1c0080
1c0080
1c0080
1c0080
1c0080
0c0100
0e0100
070600
01f800
ENDCHAR
STARTCHAR uring
ENCODING 367
SWIDTH 524 0
DWIDTH 17 0
BBX 15 22 1 0
BITMAP
0780
0cc0
0cc0
0cc0
0780
0000
0000
f87c
381c
381c
381c
381c
381c
381c
381c
381c
381c
381c
381c
383e
3cdc
1f98
ENDCHAR
STARTCHAR Uhungarumlaut
ENCODING 368
SWIDTH 656 0
DWIDTH 22 0
BBX 20 26 1 0
BITMAP
007380
00c600
010800
000000
ff87f0
3e01c0
1c0080
1c0080
1c0080
1c0080
1c0080
1c0080
1c0080
1c0080
1c0080
1c0080
1c0080
1c0080
1c0080
1c0080
1c0080
1c0080
0c0100
0e0100
070600
01f800
ENDCHAR
STARTCHAR uhungarumlaut
ENCODING 369
SWIDTH 524 0
DWIDTH 17 0
BBX 15 21 1 0
BITMAP
039c
0630
0840
0000
0000
0000
f87c
381c
381c
381c
381c
381c
381c
381c
381c
381c
381c
381c
383e
3cdc
1f98
ENDCHAR
STARTCHAR Uogonek
ENCODING 370
SWIDTH 656 0
DWIDTH 22 0
BBX 20 28 1 -6
BITMAP
ff87f0
3e01c0
1c0080
1c0080
1c0080
1c0080
1c0080
1c0080
1c0080
1c0080
1c0080
1c0080
1c0080
1c0080
1c0080
1c0080
1c0080
1c0080
0c0100
0e0100
070600
01f800
00c000
008000
018000
018000
00c600
007800
ENDCHAR
STARTCHAR uogonek
ENCODING 371
SWIDTH 524 0
DWIDTH 17 0
BBX 15 21 1 -6
BITMAP
f87c
381c
381c
381c
381c
381c
381c
381c
381c
381c
381c
381c
383e
3cdc
1f98
0400
0c00
0c00
0c20
07c0
0380
ENDCHAR
STARTCHAR Wcircumflex
ENCODING 372
SWIDTH 1022 0
DWIDTH 34 0
BBX 33 26 1 0
BITMAP
0004000000
000a000000
0011000000
0000000000
ff1fc0ff80
3c0f003c00
1c07001800
1c07001000
1c03801000
0e03802000
0e03802000
0e01c02000
0703c04000
0703e04000
0702e08000
0384e08000
0384708000
01c4710000
01c8390000
01c8390000
00e83a0000
00f01e0000
00f01e0000
00701c0000
00600c0000
00600c0000
ENDCHAR
STARTCHAR wcircumflex
ENCODING 373
SWIDTH 629 0
DWIDTH 21 0
BBX 22 22 0 0
BITMAP
004000
00a000
011000
000000
000000
000000
000000
fdf9fc
38e060
387040
387040
1c70c0
1c3880
1c3880
0e7980
0e5d00
0edd00
07df00
078e00
038e00
038e00
010400
ENDCHAR
STARTCHAR Ycircumflex
ENCODING 374
SWIDTH 653 0
DWIDTH 22 0
BBX 21 26 1 0
BITMAP
004000
00a000
011000
000000
ff0ff8
3c03c0
1c0380
0e0300
0e0600
070400
070800
039000
03a000
01e000
01e000
00e000
00e000
00e000
00e000
00e000
00e000
00e000
00e000
00e000
00e000
07fc00
ENDCHAR
STARTCHAR ycircumflex
ENCODING 375
SWIDTH 440 0
DWIDTH 15 0
BBX 16 24 0 -3
BITMAP
0100
0280
0440
0000
0000
0000
fe7f
381c
3818
1c10
1c30
1c20
0e60
0e40
0ec0
07c0
0780
0780
0300
0300
2600
7600
7c00
3800
ENDCHAR
STARTCHAR Ydieresis
ENCODING 376
SWIDTH 653 0
DWIDTH 22 0
BBX 21 27 1 0
BITMAP
020800
071c00
071c00
020800
000000
ff0ff8
3c03c0
1c0380
0e0300
0e0600
070400
070800
039000
03a000
01e000
01e000
00e000
00e000
00e000
00e000
00e000
00e000
00e000
00e000
00e000
00e000
07fc00
ENDCHAR
STARTCHAR Zacute
ENCODING 377
SWIDTH 582 0
DWIDTH 19 0
BBX 17 26 1 0
BITMAP
001c00
003000
004000
000000
1fff80
1c0780
380700
300e00
201c00
601c00
403800
007000
007000
00e000
01c000
01c000
038000
070000
070000
0e0080
1c0180
1c0180
380300
380700
700e00
fffe00
ENDCHAR
STARTCHAR zacute
ENCODING 378
SWIDTH 404 0
DWIDTH 13 0
BBX 12 21 0 0
BITMAP
00e0
0180
0200
0000
0000
0000
3ff0
3070
60e0
41c0
01c0
0380
0700
0700
0e00
1c00
1c00
3820
3860
7060
ffc0
ENDCHAR
STARTCHAR Zdotaccent
ENCODING 379
SWIDTH 582 0
DWIDTH 19 0
BBX 17 26 1 0
BITMAP
006000
006000
000000
000000
1fff80
1c0780
380700
300e00
201c00
601c00
403800
007000
007000
00e000
01c000
01c000
038000
070000
070000
0e0080
1c0180
1c0180
380300
380700
700e00
fffe00
ENDCHAR
STARTCHAR zdotaccent
ENCODING 380
SWIDTH 404 0
DWIDTH 13 0
BBX 12 20 0 0
BITMAP
0300
0300
0000
0000
0000
3ff0
3070
60e0
41c0
01c0
0380
0700
0700
0e00
1c00
1c00
3820
3860
7060
ffc0
ENDCHAR
STARTCHAR Zcaron
ENCODING 381
SWIDTH 582 0
DWIDTH 19 0
BBX 17 26 1 0
BITMAP
011000
00a000
004000
000000
1fff80
1c0780
380700
300e00
201c00
601c00
403800
007000
007000
00e000
01c000
01c000
038000
070000
070000
0e0080
1c0180
1c0180
380300
380700
700e00
fffe00
ENDCHAR
STARTCHAR zcaron
ENCODING 382
SWIDTH 404 0
DWIDTH 13 0
BBX 12 21 0 0
BITMAP
0880
0500
0200
0000
0000
0000
3ff0
3070
60e0
41c0
01c0
0380
0700
0700
0e00
1c00
1c00
3820
3860
7060
ffc0
ENDCHAR
STARTCHAR longs
ENCODING 383
SWIDTH 238 0
DWIDTH 8 0
BBX 9 22 0 0
BITMAP
0f00
1b80
1b80
3900
3800
3800
3800
7800
3800
3800
3800
3800
3800
3800
3800
3800
3800
3800
3800
3800
3800
fe00
ENDCHAR
STARTCHAR uni0180
ENCODING 384
SWIDTH 489 0
DWIDTH 16 0
BBX 15 23 0 0
BITMAP
1000
3000
7000
3000
3000
fc00
3000
33e0
3c38
3818
301c
300c
300c
300e
300e
300e
300c
300c
300c
3018
3818
3830
27c0
ENDCHAR
STARTCHAR uni0181
ENCODING 385
SWIDTH 553 0
DWIDTH 18 0
BBX 19 22 -2 0
BITMAP
7fff00
c78380
f701c0
7701c0
0701c0
0701c0
070180
070380
070700
07ff00
070380
0701c0
0701c0
0700e0
0700e0
0700e0
0700c0
0701c0
0701c0
070380
070700
3ffc00
ENDCHAR
STARTCHAR uni0182
ENCODING 386
SWIDTH 583 0
DWIDTH 19 0
BBX 17 22 1 0
BITMAP
ffff00
180700
180300
180100
180080
180080
180000
180000
180000
180000
1fe000
183800
180c00
180c00
180600
180600
180600
180600
180e00
180c00
183800
ffe000
ENDCHAR
STARTCHAR uni0183
ENCODING 387
SWIDTH 583 0
DWIDTH 19 0
BBX 14 22 4 0
BITMAP
fff8
c038
c018
c008
c004
c004
c000
c000
c000
c000
ff00
c1c0
c060
c060
c030
c030
c030
c030
c070
c060
c1c0
ff80
ENDCHAR
STARTCHAR uni0184
ENCODING 388
SWIDTH 489 0
DWIDTH 16 0
BBX 15 23 0 0
BITMAP
0800
3000
f000
3000
1000
1000
1000
13e0
1c38
181c
180c
100c
100e
100e
100e
100e
100e
100c
100c
1808
1818
1c30
13c0
ENDCHAR
STARTCHAR uni0185
ENCODING 389
SWIDTH 489 0
DWIDTH 16 0
BBX 14 23 1 0
BITMAP
1000
7000
f000
3000
3000
3000
3000
37c0
3870
3038
3018
3018
301c
301c
301c
301c
301c
3018
3018
3010
3030
1860
0780
ENDCHAR
STARTCHAR uni0186
ENCODING 390
SWIDTH 601 0
DWIDTH 20 0
BBX 17 22 1 0
BITMAP
01f000
661c00
780e00
600600
400300
400300
800380
800180
000180
000180
000180
000180
000180
000180
400300
400300
400300
600600
700600
780c00
443800
03e000
ENDCHAR
STARTCHAR uni0187
ENCODING 391
SWIDTH 601 0
DWIDTH 20 0
BBX 20 23 1 0
BITMAP
0000e0
03f0f0
0c0900
180700
100300
300100
600100
600080
600080
600000
c00000
c00000
c00000
c00000
e00000
600000
600080
600080
700180
300300
180700
0c1f00
07e100
ENDCHAR
STARTCHAR uni0188
ENCODING 392
SWIDTH 424 0
DWIDTH 14 0
BBX 15 16 0 0
BITMAP
07bc
184e
3064
20e0
6060
6000
e000
e000
e000
e000
6008
6010
7020
3860
1fc0
0f80
ENDCHAR
STARTCHAR uni0189
ENCODING 393
SWIDTH 710 0
DWIDTH 23 0
BBX 19 22 1 0
BITMAP
fffc00
180700
180380
180180
1800c0
1800c0
1800c0
180060
180060
180060
180060
ff0060
180060
180060
180040
1800c0
180080
180180
180300
180600
180c00
fff000
ENDCHAR
STARTCHAR uni018A
ENCODING 394
SWIDTH 650 0
DWIDTH 21 0
BBX 23 22 -2 0
BITMAP
7fffc0
c601e0
f60070
760038
06003c
06001c
06001c
06001c
06000e
06000e
06000e
06000e
06000e
06001c
06001c
06001c
060038
060030
060070
0600c0
060380
3ffe00
ENDCHAR
STARTCHAR uni018B
ENCODING 395
SWIDTH 583 0
DWIDTH 19 0
BBX 17 22 2 0
BITMAP
7fff80
781c00
701c00
e01c00
c01c00
801c00
001c00
001c00
001c00
001c00
07fc00
0e1c00
1c1c00
1c1c00
381c00
381c00
381c00
381c00
381c00
1c1c00
0e1c00
07ff80
ENDCHAR
STARTCHAR uni018C
ENCODING 396
SWIDTH 487 0
DWIDTH 16 0
BBX 14 22 1 0
BITMAP
0ff8
1818
1018
1018
0018
0018
07d8
1c38
3818
3818
7018
7018
f018
f018
f018
f018
7018
7018
7018
383c
1c38
0fd0
ENDCHAR
STARTCHAR uni018D
ENCODING 397
SWIDTH 482 0
DWIDTH 16 0
BBX 13 20 1 -4
BITMAP
0f80
1040
3060
6030
6030
4010
c018
c018
c018
c018
4010
6030
6030
3060
1040
0f80
7200
6200
4200
3c00
ENDCHAR
STARTCHAR uni018E
ENCODING 398
SWIDTH 584 0
DWIDTH 19 0
BBX 16 22 1 0
BITMAP
7fff
700c
600c
400c
800c
800c
800c
000c
040c
040c
060c
070c
07fc
060c
060c
040c
840c
800c
c00c
600c
700c
7fff
ENDCHAR
STARTCHAR uni018F
ENCODING 399
SWIDTH 579 0
DWIDTH 19 0
BBX 18 22 1 0
BITMAP
07f000
1ffc00
3c1e00
700e00
400700
400380
400180
000180
000180
0000c0
0000c0
0000c0
0000c0
000180
ffff80
600180
600380
600300
300600
180e00
0c1800
03e000
ENDCHAR
STARTCHAR uni0190
ENCODING 400
SWIDTH 539 0
DWIDTH 18 0
BBX 16 22 1 0
BITMAP
0fec
3c3c
781c
700c
700c
7004
7000
3800
3c00
0fc0
07c0
1fc0
3c00
7800
7000
f000
f000
f003
7006
780e
3c3c
0ff0
ENDCHAR
STARTCHAR uni0191
ENCODING 401
SWIDTH 556 0
DWIDTH 18 0
BBX 17 26 0 -4
BITMAP
7fff00
0c0700
0c0100
0c0100
0c0080
0c0080
0c0800
0c0800
0c1800
0ff800
0c3800
0c0800
0c0800
0c0800
0c0000
0c0000
0c0000
0c0000
0c0000
0c0000
0c0000
0c0000
0c0000
4c0000
e80000
700000
ENDCHAR
STARTCHAR florin
ENCODING 402
SWIDTH 272 0
DWIDTH 9 0
BBX 9 27 -1 -5
BITMAP
0300
0580
0d80
0c00
0c00
0c00
0c00
0c00
3e00
0c00
0c00
0c00
0c00
0c00
0c00
0c00
0c00
0c00
0c00
0c00
0c00
0c00
0c00
0c00
cc00
c800
7000
ENDCHAR
STARTCHAR uni0193
ENCODING 403
SWIDTH 610 0
DWIDTH 20 0
BBX 21 23 1 0
BITMAP
0000f8
03f1b8
060f80
1c0780
180380
3801c0
7001c0
7000c0
600000
e00000
e00000
e00ff0
e00380
e00380
e00380
600380
700380
700380
380380
380380
1c0380
0e0c00
03f800
ENDCHAR
STARTCHAR uni0194
ENCODING 404
SWIDTH 704 0
DWIDTH 23 0
BBX 21 27 1 -5
BITMAP
fc03f8
3000e0
3000c0
180080
180080
080080
0c0100
0c0100
040200
060200
060200
030400
030400
030400
018800
018800
018800
00d000
00d000
005000
006000
006000
006000
007000
007000
007000
006000
ENDCHAR
STARTCHAR uni0195
ENCODING 405
SWIDTH 683 0
DWIDTH 23 0
BBX 22 22 1 0
BITMAP
080000
380000
780000
180000
180000
180000
18f000
1b3c30
1e1c78
181c38
181c0c
181c0c
181c0c
181c0c
181c0c
181c08
181c18
181c18
180c18
180e30
380660
ff03c0
ENDCHAR
STARTCHAR uni0196
ENCODING 406
SWIDTH 262 0
DWIDTH 9 0
BBX 8 25 1 -3
BITMAP
10
70
f0
30
30
30
30
30
30
30
30
30
30
30
30
30
30
30
30
30
30
30
32
17
0e
ENDCHAR
STARTCHAR uni0197
ENCODING 407
SWIDTH 297 0
DWIDTH 10 0
BBX 8 22 1 0
BITMAP
ff
18
18
18
18
18
18
18
18
18
ff
ff
18
18
18
18
18
18
18
18
18
ff
ENDCHAR
STARTCHAR uni0198
ENCODING 408
SWIDTH 662 0
DWIDTH 22 0
BBX 22 22 1 0
BITMAP
ff8000
1c01f8
1c031c
1c063c
1c0c18
1c1800
1c3000
1c6000
1cc000
1de000
1fe000
1e7000
1c7800
1c3800
1c1c00
1c1e00
1c0e00
1c0700
1c0780
1c0380
1c03c0
ff87f0
ENDCHAR
STARTCHAR uni0199
ENCODING 409
SWIDTH 526 0
DWIDTH 17 0
BBX 16 22 0 0
BITMAP
0700
0b00
1b00
1800
1800
1800
1800
187f
183c
1830
1820
18c0
1980
1b80
1dc0
18e0
1860
1870
1838
1838
181c
ff7f
ENDCHAR
STARTCHAR uni019A
ENCODING 410
SWIDTH 262 0
DWIDTH 9 0
BBX 8 22 0 0
BITMAP
08
18
38
18
18
18
18
18
18
18
7f
18
18
18
18
18
18
18
18
18
18
ff
ENDCHAR
STARTCHAR uni019B
ENCODING 411
SWIDTH 388 0
DWIDTH 13 0
BBX 12 21 0 0
BITMAP
6080
d980
0700
0600
0e00
1a00
3300
2300
0380
0280
0640
0640
0640
0c20
0c20
0c20
0c10
1810
1830
1830
7e20
ENDCHAR
STARTCHAR uni019C
ENCODING 412
SWIDTH 785 0
DWIDTH 26 0
BBX 26 22 0 0
BITMAP
ff7fbfc0
180c0600
180c0600
180c0600
180c0600
180c0600
180c0600
180c0600
180c0600
180c0600
180c0600
180c0600
180c0600
180c0600
180c0600
180c0600
180c0600
180c0600
180c0600
181c0f00
1c6e3600
0f87c400
ENDCHAR
STARTCHAR uni019D
ENCODING 413
SWIDTH 730 0
DWIDTH 24 0
BBX 23 25 1 -3
BITMAP
7c03fe
1e0070
0f0060
0f0060
0b8060
0bc060
09c060
08e060
08e060
087060
083860
083860
081c60
080e60
080e60
080760
0807e0
0803e0
0801e0
0801e0
0800e0
080060
080000
f80000
780000
ENDCHAR
STARTCHAR uni019E
ENCODING 414
SWIDTH 510 0
DWIDTH 17 0
BBX 17 22 0 -6
BITMAP
08f800
3b1c00
7c0c00
180c00
180c00
180c00
180c00
180c00
180c00
180c00
180c00
180c00
180c00
180c00
180c00
ff0c00
000c00
000c00
000c00
000c00
000c00
007f80
ENDCHAR
STARTCHAR uni019F
ENCODING 415
SWIDTH 671 0
DWIDTH 22 0
BBX 18 23 2 -1
BITMAP
03f000
061c00
180600
180300
300300
600180
600180
600180
6000c0
cc06c0
cc06c0
cffec0
cc06c0
cc06c0
6000c0
600180
600180
600180
300300
180300
180600
061c00
03f000
ENDCHAR
STARTCHAR Ohorn
ENCODING 416
SWIDTH 751 0
DWIDTH 25 0
BBX 23 25 2 -1
BITMAP
00001c
00001e
01f81c
06061c
0c0338
180180
3000c0
200040
600060
600060
400020
c00030
c00030
c00030
c00030
c00030
400020
600060
600060
200040
3000c0
180180
0c0300
060600
01f800
ENDCHAR
STARTCHAR ohorn
ENCODING 417
SWIDTH 501 0
DWIDTH 17 0
BBX 13 20 2 0
BITMAP
0070
0078
0070
0070
0fe0
30c0
6040
6060
c020
c030
c030
c030
c030
c030
c030
c020
6060
6040
30c0
0f00
ENDCHAR
STARTCHAR uni01A2
ENCODING 418
SWIDTH 984 0
DWIDTH 32 0
BBX 29 29 2 -6
BITMAP
00f01e00
030e6100
0c03c180
18018080
3000c080
300060c0
600060c0
600060c0
600030c0
e00030c0
c00030c0
c00030c0
c00030c0
c00030c0
600030c0
600030c0
600060c0
600060c0
3000c0c0
1000c0c0
180180c0
0c0300c0
03fc00c0
000000c0
000000c0
000000c0
000000c0
000000c0
000007f8
ENDCHAR
STARTCHAR uni01A3
ENCODING 419
SWIDTH 664 0
DWIDTH 22 0
BBX 21 24 1 -6
BITMAP
001e00
002100
0fc080
104080
306080
6030c0
6030c0
4030c0
c018c0
c018c0
c018c0
c018c0
4010c0
6030c0
6030c0
2020c0
1040c0
0f80c0
0000c0
0000c0
0000c0
0000c0
0000c0
0007f8
ENDCHAR
STARTCHAR uni01A4
ENCODING 420
SWIDTH 491 0
DWIDTH 16 0
BBX 17 22 -1 0
BITMAP
7ffe00
c70700
f70300
670380
070380
070380
070380
070700
070600
07fc00
070000
070000
070000
070000
070000
070000
070000
070000
070000
070000
070000
3fe000
ENDCHAR
STARTCHAR uni01A5
ENCODING 421
SWIDTH 524 0
DWIDTH 17 0
BBX 16 24 1 -5
BITMAP
000e
0013
0013
0be0
1430
7818
301c
100c
100c
100c
100e
100e
100c
100c
100c
1008
1818
1830
1660
1180
1000
1000
1000
fe00
ENDCHAR
STARTCHAR uni01A6
ENCODING 422
SWIDTH 627 0
DWIDTH 21 0
BBX 21 25 1 0
BITMAP
ff8000
1c0000
1c0000
1ff000
183e00
180f00
180700
180700
180700
180700
180f00
180e00
1ff800
1c7000
1c3800
1c3800
1c1c00
1c1c00
1c0e00
1c0700
1c0700
1c0380
1c0380
1c01c0
ff80f8
ENDCHAR
STARTCHAR uni01A7
ENCODING 423
SWIDTH 502 0
DWIDTH 17 0
BBX 15 22 1 0
BITMAP
63e0
7e38
781c
700c
700e
600e
600e
001e
003c
00f8
07e0
1f80
3e00
7800
f000
e004
e00c
e00c
601c
703c
386c
0fc4
ENDCHAR
STARTCHAR uni01A8
ENCODING 424
SWIDTH 385 0
DWIDTH 13 0
BBX 11 16 1 0
BITMAP
1f00
71c0
60c0
60e0
40e0
01e0
07c0
1f80
3f00
7c00
f000
e040
e040
e0c0
71c0
1f00
ENDCHAR
STARTCHAR uni01A9
ENCODING 425
SWIDTH 678 0
DWIDTH 22 0
BBX 19 22 2 0
BITMAP
ffffc0
3c01c0
1c00c0
0e00c0
0f0040
070060
078000
03c000
01c000
01e000
01c000
01c000
018000
038000
030000
070060
0600c0
0c00c0
1c01c0
1803c0
380780
ffff80
ENDCHAR
STARTCHAR uni01AA
ENCODING 426
SWIDTH 283 0
DWIDTH 9 0
BBX 10 28 1 -6
BITMAP
3800
4c00
8600
8600
4e00
3600
0600
0600
0600
0600
0600
0600
0600
0600
0600
0600
0600
0600
0600
0600
0600
0600
0600
0600
0600
06c0
02c0
0180
ENDCHAR
STARTCHAR uni01AB
ENCODING 427
SWIDTH 265 0
DWIDTH 9 0
BBX 7 22 1 -4
BITMAP
10
30
70
7e
fc
30
30
30
30
30
30
30
30
30
30
32
36
1c
02
02
1c
08
ENDCHAR
STARTCHAR uni01AC
ENCODING 428
SWIDTH 741 0
DWIDTH 24 0
BBX 24 22 1 0
BITMAP
7ffffc
403c1c
e0380e
703806
003806
003803
003800
003800
003800
003800
003800
003800
003800
003800
003800
003800
003800
003800
003800
003800
003800
01ff00
ENDCHAR
STARTCHAR uni01AD
ENCODING 429
SWIDTH 265 0
DWIDTH 9 0
BBX 8 23 1 0
BITMAP
0e
17
32
30
30
30
30
72
fc
30
30
30
30
30
30
30
30
30
30
30
32
3c
18
ENDCHAR
STARTCHAR uni01AE
ENCODING 430
SWIDTH 741 0
DWIDTH 24 0
BBX 23 26 1 -4
BITMAP
3ffff8
387838
70381c
60380c
403804
c03806
003800
003800
003800
003800
003800
003800
003800
003800
003800
003800
003800
003800
003800
003800
003000
003000
003000
003200
003700
001f00
ENDCHAR
STARTCHAR Uhorn
ENCODING 431
SWIDTH 656 0
DWIDTH 22 0
BBX 26 25 1 0
BITMAP
00000380
000003c0
00000380
ff07f380
18008700
18008000
18008000
18008000
18008000
18008000
18008000
18008000
18008000
18008000
18008000
18008000
18008000
18008000
18008000
18008000
18010000
08010000
0c020000
07040000
01f80000
ENDCHAR
STARTCHAR uhorn
ENCODING 432
SWIDTH 524 0
DWIDTH 17 0
BBX 15 20 1 0
BITMAP
001c
001e
001c
001c
0038
f078
3018
3018
3018
3018
3018
3018
3018
3018
3018
3018
3018
303e
385c
1f90
ENDCHAR
STARTCHAR uni01B1
ENCODING 433
SWIDTH 680 0
DWIDTH 22 0
BBX 21 25 0 0
BITMAP
3e07c0
3e07c0
220620
220620
060600
060600
0c0300
0c0180
180180
3000c0
300060
600060
600030
e00030
c00030
c00038
c00030
e00030
600070
600070
7000e0
3001c0
180180
0e0700
01fc00
ENDCHAR
STARTCHAR uni01B2
ENCODING 434
SWIDTH 671 0
DWIDTH 22 0
BBX 19 23 1 0
BITMAP
000180
ff01c0
1800c0
180040
180020
180020
180020
180020
180020
180020
180020
180020
180020
180020
180020
180040
180040
180040
180080
180080
0c0100
060200
03fc00
ENDCHAR
STARTCHAR uni01B3
ENCODING 435
SWIDTH 653 0
DWIDTH 22 0
BBX 23 22 -1 0
BITMAP
7c03fe
ce00f0
f700e0
7380c0
038180
01c180
01c300
00e600
007400
007c00
003800
003800
003800
003800
003800
003800
003800
003800
003800
003800
003800
01ff00
ENDCHAR
STARTCHAR uni01B4
ENCODING 436
SWIDTH 479 0
DWIDTH 16 0
BBX 17 18 -2 -3
BITMAP
7c3f80
cc0e00
fe0c00
6e0c00
0e1800
071800
073000
073000
03e000
03e000
03c000
01c000
018000
018000
010000
1f0000
1e0000
1e0000
ENDCHAR
STARTCHAR uni01B5
ENCODING 437
SWIDTH 582 0
DWIDTH 19 0
BBX 17 22 1 0
BITMAP
3fff00
380700
300600
200c00
201c00
401800
003000
007000
006000
03f800
03f800
018000
038000
070000
060000
0e0080
1c0100
180100
380300
300600
600e00
fffe00
ENDCHAR
STARTCHAR uni01B6
ENCODING 438
SWIDTH 404 0
DWIDTH 13 0
BBX 12 15 0 0
BITMAP
3ff0
2060
20c0
21c0
2180
0300
1fc0
0600
0c00
0c00
1800
3820
3060
6040
ffc0
ENDCHAR
STARTCHAR uni01B7
ENCODING 439
SWIDTH 490 0
DWIDTH 16 0
BBX 13 22 2 0
BITMAP
3ff0
6060
40e0
41c0
4180
0300
0600
0e00
1f00
1fc0
01e0
00f0
0030
0038
0018
0018
0010
6030
f020
60c0
6180
3e00
ENDCHAR
STARTCHAR uni01B8
ENCODING 440
SWIDTH 465 0
DWIDTH 15 0
BBX 13 23 2 0
BITMAP
7ff0
3838
3c18
1e18
0e08
0700
0780
03c0
03e0
0fe0
3f80
3e00
7800
7000
f000
e000
6000
7000
7038
3878
1c38
0f38
03f0
ENDCHAR
STARTCHAR uni01B9
ENCODING 441
SWIDTH 465 0
DWIDTH 15 0
BBX 12 22 3 -7
BITMAP
ffe0
7060
3860
3c20
1c20
0e00
0f00
0700
0f80
3f80
7c00
f800
f000
e000
e000
e000
e000
f0f0
70f0
7870
1e60
07c0
ENDCHAR
STARTCHAR uni01BA
ENCODING 442
SWIDTH 465 0
DWIDTH 15 0
BBX 12 22 3 -7
BITMAP
7fe0
61e0
61c0
4380
4700
0e00
1f00
3fc0
07e0
00f0
00f0
00f0
00e0
03c0
1f00
7c00
7800
f060
f060
70c0
7dc0
1f00
ENDCHAR
STARTCHAR uni01BB
ENCODING 443
SWIDTH 409 0
DWIDTH 13 0
BBX 11 19 1 0
BITMAP
1f00
2780
41c0
41c0
80c0
01c0
01c0
0180
0300
3fc0
3fc0
0800
1000
2000
2000
4020
7fc0
ffc0
ffc0
ENDCHAR
STARTCHAR uni01BC
ENCODING 444
SWIDTH 441 0
DWIDTH 15 0
BBX 15 23 0 0
BITMAP
fffc
1ffc
180c
1800
1800
1800
1800
1fc0
1ff0
1df8
007c
003c
001c
000e
000e
000e
000e
000c
1c1c
3c18
3c38
1cf0
07c0
ENDCHAR
STARTCHAR uni01BD
ENCODING 445
SWIDTH 355 0
DWIDTH 12 0
BBX 10 15 1 0
BITMAP
ffc0
3fc0
30c0
3000
3000
3f00
3f80
01c0
00c0
00c0
00c0
00c0
79c0
3180
1f00
ENDCHAR
STARTCHAR uni01BE
ENCODING 446
SWIDTH 441 0
DWIDTH 15 0
BBX 14 23 0 0
BITMAP
1000
1000
1000
fe00
1000
1000
1000
1f80
1fe0
10f0
0038
0018
001c
000c
000c
000c
000c
0808
3818
3810
3030
18e0
0f80
ENDCHAR
STARTCHAR uni01BF
ENCODING 447
SWIDTH 524 0
DWIDTH 17 0
BBX 15 21 1 -5
BITMAP
0be0
3438
781c
381c
100c
100e
100e
100e
100e
100c
100c
100c
1018
1030
1060
10c0
1100
1600
1800
1000
fe00
ENDCHAR
STARTCHAR uni01C0
ENCODING 448
SWIDTH 155 0
DWIDTH 5 0
BBX 2 24 2 0
BITMAP
c0
c0
c0
c0
c0
c0
c0
c0
c0
c0
c0
c0
c0
c0
c0
c0
c0
c0
c0
c0
c0
c0
c0
c0
ENDCHAR
STARTCHAR uni01C1
ENCODING 449
SWIDTH 269 0
DWIDTH 8 0
BBX 8 24 0 0
BITMAP
e7
e7
e7
e7
e7
e7
e7
e7
e7
e7
e7
e7
e7
e7
e7
e7
e7
e7
e7
e7
e7
e7
e7
e7
ENDCHAR
STARTCHAR uni01C2
ENCODING 450
SWIDTH 365 0
DWIDTH 12 0
BBX 9 24 1 0
BITMAP
0c00
0c00
0c00
0c00
0c00
0c00
0c00
0c00
0c00
0c00
ff80
0c00
0c00
0c00
ff80
0c00
0c00
0c00
0c00
0c00
0c00
0c00
0c00
0c00
ENDCHAR
STARTCHAR uni01C3
ENCODING 451
SWIDTH 319 0
DWIDTH 11 0
BBX 3 23 0 -1
BITMAP
e0
e0
e0
e0
e0
e0
e0
e0
e0
60
60
60
60
60
60
60
60
60
00
00
60
e0
60
ENDCHAR
STARTCHAR uni01C4
ENCODING 452
SWIDTH 1315 0
DWIDTH 43 0
BBX 41 26 1 0
BITMAP
000000042000
000000034000
000000018000
000000000000
fffc003fff00
180700380600
180380300e00
180180600c00
1800c0401800
1800c0403800
1800c0003000
180060007000
18006000e000
18006000c000
18006001c000
180060038000
180060030000
180060070000
1800c00e0000
1800c00c0080
1800801c0100
180180380100
180300300200
180600700600
181c00e01e00
ffe000fffe00
ENDCHAR
STARTCHAR uni01C5
ENCODING 453
SWIDTH 1123 0
DWIDTH 37 0
BBX 34 22 1 0
BITMAP
fffc002100
1807001a00
1803800c00
1801800000
1800c00000
1800c00000
1800c00000
180060ffc0
180060c180
1800608300
1800608300
1800608600
1800600c00
1800600c00
1800c01800
1800c01000
1800803000
1801806000
1803006080
180600c180
181c018300
ffe001ff00
ENDCHAR
STARTCHAR uni01C6
ENCODING 454
SWIDTH 903 0
DWIDTH 30 0
BBX 27 22 1 0
BITMAP
00101080
00f00d00
00300600
00300000
00300000
00300000
0f300000
10f07fe0
203060c0
60304180
40304180
c0304300
c0300600
c0300600
c0300c00
c0301800
c0301800
40303000
60306040
607860c0
30f0c180
0f21ff80
ENDCHAR
STARTCHAR uni01C7
ENCODING 455
SWIDTH 905 0
DWIDTH 30 0
BBX 28 25 1 -3
BITMAP
ff000ff0
18000180
18000180
18000180
18000180
18000180
18000180
18000180
18000180
18000180
18000180
18000180
18000180
18000180
18000180
18000180
18008180
18008180
18010180
18030180
18070180
fffe3100
00003300
00003200
00001c00
ENDCHAR
STARTCHAR uni01C8
ENCODING 456
SWIDTH 854 0
DWIDTH 28 0
BBX 23 27 1 -5
BITMAP
ff0000
180006
180006
180002
180000
180000
180002
18000e
180006
180006
180006
180006
180006
180006
180006
180006
180086
180086
180106
180306
180706
fffe06
000006
000006
000036
000034
000038
ENDCHAR
STARTCHAR uni01C9
ENCODING 457
SWIDTH 549 0
DWIDTH 18 0
BBX 14 27 0 -5
BITMAP
0800
380c
780c
1804
1800
1800
1804
181c
180c
180c
180c
180c
180c
180c
180c
180c
180c
180c
180c
180c
180c
ff0c
000c
000c
006c
0068
0070
ENDCHAR
STARTCHAR uni01CA
ENCODING 458
SWIDTH 1057 0
DWIDTH 35 0
BBX 34 25 1 -3
BITMAP
7c01fe3fc0
0e00700600
0e00200600
0b00200600
0b80200600
0980200600
08c0200600
08c0200600
0860200600
0830200600
0830200600
0818200600
081c200600
080c200600
0806200600
0807200600
0803200600
0801a00600
0801e00600
0800e00600
1c00600600
ff0060c400
000001cc00
000000c800
000000f000
ENDCHAR
STARTCHAR uni01CB
ENCODING 459
SWIDTH 1017 0
DWIDTH 34 0
BBX 29 27 1 -5
BITMAP
7c01fe00
0e007018
0e002018
0b002008
0b802000
09802000
08c02008
08c02038
08602018
08302018
08302018
08182018
081c2018
080c2018
08062018
08072018
08032018
0801a018
0801e018
0800e018
1c006018
ff006018
00000018
00000018
000000d8
000001d0
000000e0
ENDCHAR
STARTCHAR uni01CC
ENCODING 460
SWIDTH 797 0
DWIDTH 26 0
BBX 23 26 0 -5
BITMAP
000006
000006
000002
000000
000000
08f802
3b1c0e
7c0c06
180c06
180c06
180c06
180c06
180c06
180c06
180c06
180c06
180c06
180c06
180c06
180c06
ff7f86
000006
000006
000036
000074
000038
ENDCHAR
STARTCHAR uni01CD
ENCODING 461
SWIDTH 732 0
DWIDTH 24 0
BBX 22 27 1 0
BITMAP
004400
002800
001000
000000
001000
003000
001800
003800
003800
003c00
005c00
005c00
008e00
008e00
008e00
01ff00
010700
020700
020380
020380
0401c0
0401c0
0801c0
0800e0
1800e0
1800f0
ff03fc
ENDCHAR
STARTCHAR uni01CE
ENCODING 462
SWIDTH 400 0
DWIDTH 13 0
BBX 13 21 0 0
BITMAP
0880
0500
0200
0000
0000
0f00
1f80
23c0
71c0
71c0
21c0
01c0
03c0
1dc0
31c0
61c0
e1c0
e1c0
e1c8
73d0
3ce0
ENDCHAR
STARTCHAR uni01CF
ENCODING 463
SWIDTH 297 0
DWIDTH 10 0
BBX 7 26 2 0
BITMAP
44
28
10
00
fe
38
38
38
38
38
38
38
38
38
38
38
38
38
38
38
38
38
38
38
38
fe
ENDCHAR
STARTCHAR uni01D0
ENCODING 464
SWIDTH 262 0
DWIDTH 9 0
BBX 7 21 1 0
BITMAP
44
28
10
00
00
18
38
78
38
38
38
38
38
38
38
38
38
38
38
38
fe
ENDCHAR
STARTCHAR uni01D1
ENCODING 465
SWIDTH 710 0
DWIDTH 23 0
BBX 20 26 2 0
BITMAP
011000
00a000
004000
000000
03fc00
0e0700
180380
3801c0
7000e0
7000e0
e00070
e00070
e00070
e00070
e00070
e00070
e00070
e00070
e00070
700070
7000e0
3000e0
3800c0
180180
0e0700
03fc00
ENDCHAR
STARTCHAR uni01D2
ENCODING 466
SWIDTH 482 0
DWIDTH 16 0
BBX 14 20 1 0
BITMAP
0880
0500
0200
0000
0fc0
3cf0
3030
7038
7038
e01c
e01c
e01c
e01c
e01c
e01c
7038
7038
3030
38f0
0fc0
ENDCHAR
STARTCHAR uni01D3
ENCODING 467
SWIDTH 656 0
DWIDTH 22 0
BBX 20 26 1 0
BITMAP
008800
005000
002000
000000
ff87f0
3e01c0
1c0080
1c0080
1c0080
1c0080
1c0080
1c0080
1c0080
1c0080
1c0080
1c0080
1c0080
1c0080
1c0080
1c0080
1c0080
1c0180
0c0100
0e0300
070600
01f800
ENDCHAR
STARTCHAR uni01D4
ENCODING 468
SWIDTH 524 0
DWIDTH 17 0
BBX 15 21 1 0
BITMAP
0880
0500
0200
0000
0000
0000
f87c
381c
381c
381c
381c
381c
381c
381c
381c
381c
381c
381c
383e
3cdc
1f98
ENDCHAR
STARTCHAR uni01D5
ENCODING 469
SWIDTH 656 0
DWIDTH 22 0
BBX 20 28 1 0
BITMAP
01fc00
01fc00
000000
018c00
018c00
000000
ff87f0
3e01c0
1c0080
1c0080
1c0080
1c0080
1c0080
1c0080
1c0080
1c0080
1c0080
1c0080
1c0080
1c0080
1c0080
1c0080
1c0080
1c0180
0c0100
0e0300
070600
01f800
ENDCHAR
STARTCHAR uni01D6
ENCODING 470
SWIDTH 524 0
DWIDTH 17 0
BBX 15 22 1 0
BITMAP
1fc0
0000
1ce0
1cf0
1ce0
0000
0000
f078
3018
3018
3018
3018
3018
3018
3018
3018
3018
3018
3018
303e
385c
1f90
ENDCHAR
STARTCHAR uni01D7
ENCODING 471
SWIDTH 656 0
DWIDTH 22 0
BBX 20 29 1 0
BITMAP
003800
007000
00e000
00c000
01ce00
01cf00
01ce00
ff07f0
180080
180080
180080
180080
180080
180080
180080
180080
180080
180080
180080
180080
180080
180080
180080
180080
180100
080100
0c0200
070400
01f800
ENDCHAR
STARTCHAR uni01D8
ENCODING 472
SWIDTH 524 0
DWIDTH 17 0
BBX 15 25 1 0
BITMAP
01c0
0380
0700
0600
0000
1ce0
1cf0
1ce0
0000
0000
f078
3018
3018
3018
3018
3018
3018
3018
3018
3018
3018
3018
303e
385c
1f90
ENDCHAR
STARTCHAR uni01D9
ENCODING 473
SWIDTH 656 0
DWIDTH 22 0
BBX 20 28 1 0
BITMAP
018c00
005000
002000
01ce00
01cf00
01ce00
ff07f0
180080
180080
180080
180080
180080
180080
180080
180080
180080
180080
180080
180080
180080
180080
180080
180080
180100
080100
0c0200
070400
01f800
ENDCHAR
STARTCHAR uni01DA
ENCODING 474
SWIDTH 524 0
DWIDTH 17 0
BBX 15 24 1 0
BITMAP
18c0
0500
0200
0000
1ce0
1cf0
1ce0
0000
0000
f078
3018
3018
3018
3018
3018
3018
3018
3018
3018
3018
3018
303e
385c
1f90
ENDCHAR
STARTCHAR uni01DB
ENCODING 475
SWIDTH 656 0
DWIDTH 22 0
BBX 20 29 1 0
BITMAP
01c000
006000
001000
000000
01ce00
01cf00
01ce00
ff07f0
180080
180080
180080
180080
180080
180080
180080
180080
180080
180080
180080
180080
180080
180080
180080
180080
180100
080100
0c0200
070400
01f800
ENDCHAR
STARTCHAR uni01DC
ENCODING 476
SWIDTH 524 0
DWIDTH 17 0
BBX 15 24 1 0
BITMAP
0e00
0300
0080
0000
1ce0
1ce0
1ce0
0000
0000
f078
3018
3018
3018
3018
3018
3018
3018
3018
3018
3018
3018
303e
385c
1f90
ENDCHAR
STARTCHAR uni01DD
ENCODING 477
SWIDTH 457 0
DWIDTH 15 0
BBX 12 17 1 -1
BITMAP
1f00
3fc0
60e0
c060
8070
0030
0030
0030
0030
0030
fff0
c060
4060
6060
20c0
3180
0f00
ENDCHAR
STARTCHAR uni01DE
ENCODING 478
SWIDTH 732 0
DWIDTH 24 0
BBX 22 26 1 0
BITMAP
00fe00
00e700
01e700
00f700
003000
001800
003800
003800
002c00
004c00
004400
008600
008600
010200
01ff00
010300
020380
020180
040180
0400c0
0400c0
0800c0
080060
180060
380070
ff01fc
ENDCHAR
STARTCHAR uni01DF
ENCODING 479
SWIDTH 400 0
DWIDTH 13 0
BBX 12 22 1 0
BITMAP
3f80
0000
39c0
79c0
39c0
0000
0f00
3380
6180
6180
4180
0180
0180
0780
1980
6180
4180
c180
c180
c380
e7b0
38c0
ENDCHAR
STARTCHAR uni01E0
ENCODING 480
SWIDTH 732 0
DWIDTH 24 0
BBX 22 27 1 0
BITMAP
00fe00
000000
003000
003000
000000
003000
001000
003800
003800
002c00
004c00
004400
008600
008600
010200
01ff00
010300
020380
020180
040180
0400c0
0400c0
0800c0
080060
180060
380070
ff01fc
ENDCHAR
STARTCHAR uni01E1
ENCODING 481
SWIDTH 400 0
DWIDTH 13 0
BBX 12 22 1 0
BITMAP
1fc0
0000
0000
0600
0600
0000
0f00
3380
6180
6180
4180
0180
0180
0780
1980
6180
4180
c180
c180
c380
e7b0
38c0
ENDCHAR
STARTCHAR uni01E2
ENCODING 482
SWIDTH 888 0
DWIDTH 29 0
BBX 27 25 1 0
BITMAP
000fe000
00000000
00000000
007fff80
001e03c0
002c01c0
002c00c0
004c0040
004c0040
004c0020
008c0420
008c0400
010c1c00
01fffc00
030c1c00
020c0400
020c0400
040c0000
040c0020
080c0020
080c0040
080c0040
180c00c0
380c0180
fe7fff80
ENDCHAR
STARTCHAR uni01E3
ENCODING 483
SWIDTH 644 0
DWIDTH 21 0
BBX 18 20 1 0
BITMAP
03f800
000000
000000
000000
1e3e00
276300
43c180
c38180
c38180
8301c0
03ffc0
030000
0f0000
330000
430000
c38040
c380c0
c3c180
e4ff00
783e00
ENDCHAR
STARTCHAR uni01E4
ENCODING 484
SWIDTH 610 0
DWIDTH 20 0
BBX 19 22 1 0
BITMAP
03f100
0c0900
180700
100300
300100
600180
600080
600000
400000
c00000
c00fc0
c00300
c00300
400300
601fe0
601fe0
600300
300300
300300
180280
0c0c00
03f000
ENDCHAR
STARTCHAR uni01E5
ENCODING 485
SWIDTH 457 0
DWIDTH 15 0
BBX 17 23 1 -7
BITMAP
003000
0fb800
185000
306000
306000
306000
306000
306000
106000
18c000
0f0000
300000
700000
3e0000
1fe000
20f800
401c00
400c00
c07f80
c00800
601800
303000
0fc000
ENDCHAR
STARTCHAR Gcaron
ENCODING 486
SWIDTH 610 0
DWIDTH 20 0
BBX 19 26 1 0
BITMAP
031800
00a000
004000
000000
03f100
060900
1c0780
180380
300180
600180
600080
600000
c00000
c00000
c007e0
c00300
c00300
c00300
c00300
600300
600300
300300
300300
180200
0e0c00
03f000
ENDCHAR
STARTCHAR gcaron
ENCODING 487
SWIDTH 457 0
DWIDTH 15 0
BBX 14 27 1 -7
BITMAP
3180
0a00
0400
0000
0030
0f30
18b0
3040
3060
3060
3060
3060
3060
18c0
1f00
2000
6000
3e00
1fe0
20f8
4018
c00c
c00c
c008
6018
3060
0fc0
ENDCHAR
STARTCHAR uni01E8
ENCODING 488
SWIDTH 662 0
DWIDTH 22 0
BBX 20 26 1 0
BITMAP
031800
00a000
004000
000000
ff1fe0
180780
180700
180400
180800
181000
182000
184000
188000
19c000
1ac000
1c6000
187000
183000
181800
181c00
180c00
180600
180300
180380
1801c0
ff07f0
ENDCHAR
STARTCHAR uni01E9
ENCODING 489
SWIDTH 526 0
DWIDTH 17 0
BBX 17 26 0 0
BITMAP
063000
014000
008000
000000
080000
380000
780000
180000
180000
180000
180000
187f00
181c00
181800
183000
186000
188000
19c000
1ec000
18e000
187000
183000
183800
181c00
180c00
ff3f80
ENDCHAR
STARTCHAR uni01EA
ENCODING 490
SWIDTH 710 0
DWIDTH 23 0
BBX 20 28 2 -6
BITMAP
01f800
060600
0c0300
180180
3000c0
200040
600060
600060
400020
c00030
c00030
c00030
c00030
c00030
400020
600060
600060
200040
3000c0
180180
0c0300
060600
01f800
008000
018000
018000
00c600
007800
ENDCHAR
STARTCHAR uni01EB
ENCODING 491
SWIDTH 482 0
DWIDTH 16 0
BBX 12 22 2 -6
BITMAP
0f00
30c0
6040
6060
c020
c030
c030
c030
c030
c030
c030
c020
6060
6040
30c0
0f00
0c00
0800
1800
1800
0c60
0780
ENDCHAR
STARTCHAR uni01EC
ENCODING 492
SWIDTH 710 0
DWIDTH 23 0
BBX 20 31 2 -6
BITMAP
01fc00
000000
000000
01f800
060600
0c0300
180180
3000c0
200040
600060
600060
400020
c00030
c00030
c00030
c00030
c00030
400020
600060
600060
200040
3000c0
180180
0c0300
060600
01f800
008000
018000
018000
00c600
007800
ENDCHAR
STARTCHAR uni01ED
ENCODING 493
SWIDTH 482 0
DWIDTH 16 0
BBX 12 25 2 -6
BITMAP
3f80
0000
0000
0f00
30c0
6040
6060
c020
c030
c030
c030
c030
c030
c030
c020
6060
6040
30c0
0f00
0c00
0800
1800
1800
0c60
0780
ENDCHAR
STARTCHAR uni01EE
ENCODING 494
SWIDTH 490 0
DWIDTH 16 0
BBX 13 26 2 0
BITMAP
18c0
0500
0200
0000
3ff0
6060
40e0
41c0
4180
0300
0600
0e00
1f00
1fc0
01e0
00f0
0030
0038
0018
0018
0010
6030
f020
60c0
6180
3e00
ENDCHAR
STARTCHAR uni01EF
ENCODING 495
SWIDTH 465 0
DWIDTH 15 0
BBX 11 27 1 -7
BITMAP
18c0
0500
0200
0000
0000
7fe0
40c0
4180
4380
c300
0600
0e00
0c00
1e00
1f80
03c0
01e0
00e0
0060
0060
0060
0060
e0e0
e0c0
c1c0
4700
3c00
ENDCHAR
STARTCHAR uni01F0
ENCODING 496
SWIDTH 287 0
DWIDTH 9 0
BBX 8 26 0 -5
BITMAP
63
14
08
00
00
04
18
38
08
08
08
08
08
08
08
08
08
08
08
08
08
08
08
68
d8
70
ENDCHAR
STARTCHAR uni01F1
ENCODING 497
SWIDTH 1315 0
DWIDTH 43 0
BBX 41 22 1 0
BITMAP
fffc003fff00
1807003c0700
180380300600
180180200c00
1800c0201c00
1800c0401800
1800c0003000
180060007000
180060006000
18006000e000
18006001c000
180060018000
180060038000
180060070000
1800c0060000
1800c00e0080
1800801c0100
180180180100
180300380300
180600700600
181c00601e00
ffe000fffe00
ENDCHAR
STARTCHAR uni01F2
ENCODING 498
SWIDTH 1123 0
DWIDTH 37 0
BBX 35 22 1 0
BITMAP
fffc000000
1807000000
1803800000
1801800000
1800c00000
1800c00000
1800c00000
1800607fe0
18006060c0
1800604180
1800604380
1800604300
1800600600
1800600600
1800c00c00
1800c01800
1800801800
1801803000
1803006040
18060060c0
181c00c180
ffe001ff80
ENDCHAR
STARTCHAR uni01F3
ENCODING 499
SWIDTH 874 0
DWIDTH 29 0
BBX 26 22 1 0
BITMAP
00100000
00f00000
00300000
00300000
00300000
00300000
0f300000
10f0ffc0
2030c180
60308300
40308700
c0308600
c0300c00
c0300c00
c0301800
c0303000
c0303000
40306000
6030c080
6078c180
30f18300
0f23ff00
ENDCHAR
STARTCHAR uni01F4
ENCODING 500
SWIDTH 610 0
DWIDTH 20 0
BBX 19 26 1 0
BITMAP
003800
007000
00e000
00c000
03f100
060900
1c0780
180380
300180
600180
600080
600000
c00000
c00000
c007e0
c00300
c00300
c00300
c00300
600300
600300
300300
300300
180200
0e0c00
03f000
ENDCHAR
STARTCHAR uni01F5
ENCODING 501
SWIDTH 457 0
DWIDTH 15 0
BBX 14 28 1 -7
BITMAP
01c0
0380
0700
0600
0000
0030
0f30
18b0
3040
3060
3060
3060
3060
3060
18c0
1f00
2000
6000
3e00
1fe0
20f8
4018
c00c
c00c
c008
6018
3060
0fc0
ENDCHAR
STARTCHAR uni01F6
ENCODING 502
SWIDTH 869 0
DWIDTH 29 0
BBX 27 22 1 0
BITMAP
ff8ffc00
3800e000
3800e000
3800e000
3800e000
3800e000
3800e000
3800e3e0
3800e0e0
3800e0e0
3fffe0e0
3800e0e0
3800e0e0
3800e0e0
3800e0e0
3800e0e0
3800e0e0
3800e0e0
3800e0e0
380060c0
380079c0
ff801f00
ENDCHAR
STARTCHAR uni01F7
ENCODING 503
SWIDTH 524 0
DWIDTH 17 0
BBX 15 23 1 -7
BITMAP
13f0
3438
781c
300c
300e
3006
3006
3006
3006
3006
3004
300c
3018
3010
3020
30c0
3100
3600
3c00
3000
3000
7000
c000
ENDCHAR
STARTCHAR uni01F8
ENCODING 504
SWIDTH 730 0
DWIDTH 24 0
BBX 23 26 1 0
BITMAP
004000
002000
001000
000000
7c01fe
0e0070
0e0020
0b0020
0b8020
098020
08c020
08c020
086020
083020
083020
081820
081c20
080c20
080620
080720
080320
0801a0
0801e0
0800e0
1c0060
ff0060
ENDCHAR
STARTCHAR uni01F9
ENCODING 505
SWIDTH 510 0
DWIDTH 17 0
BBX 15 21 1 0
BITMAP
0200
0100
0080
0000
0000
11f0
3638
f818
3018
3018
3018
3018
3018
3018
3018
3018
3018
3018
3018
3018
fc7e
ENDCHAR
STARTCHAR Aringacute
ENCODING 506
SWIDTH 732 0
DWIDTH 24 0
BBX 22 30 1 0
BITMAP
001800
001000
002000
000000
003800
004400
004400
004400
003800
001800
003800
003800
003c00
005c00
005c00
008e00
008e00
008e00
01ff00
010700
020700
020380
020380
0401c0
0401c0
0801c0
0800e0
1800e0
1800f0
ff03fc
ENDCHAR
STARTCHAR aringacute
ENCODING 507
SWIDTH 400 0
DWIDTH 13 0
BBX 13 26 0 0
BITMAP
0180
0300
0400
0000
0700
0d80
0880
0d80
0700
0000
0f80
1fc0
21c0
61c0
61c0
01c0
01c0
07c0
1fc0
39c0
61c0
e1c0
e1c0
e1c8
77d0
3ce0
ENDCHAR
STARTCHAR AEacute
ENCODING 508
SWIDTH 888 0
DWIDTH 29 0
BBX 27 26 1 0
BITMAP
0000c000
00018000
00020000
00000000
003fff80
001703c0
001700c0
002700c0
00270040
00270040
00470420
00470400
00870c00
00fffc00
01071c00
01070c00
01070400
02070400
02070000
04070020
04070020
08070040
08070040
180700c0
18070380
ff3fff80
ENDCHAR
STARTCHAR aeacute
ENCODING 509
SWIDTH 644 0
DWIDTH 21 0
BBX 20 21 0 0
BITMAP
003000
006000
008000
000000
000000
1f1f00
3fbf80
61f0c0
61e0c0
c1c060
c1ffe0
01ffe0
07c000
19c000
31c000
61c010
e1c020
e1e060
e1f1c0
727f80
3c1f00
ENDCHAR
STARTCHAR Oslashacute
ENCODING 510
SWIDTH 710 0
DWIDTH 23 0
BBX 20 28 2 -2
BITMAP
002000
004000
0080c0
000180
03fd80
0e0700
180780
3807c0
700ce0
7018e0
e01870
e03070
e06070
e06070
e0c070
e0c070
e18070
e30070
e30070
760070
7c00e0
3c00e0
3800c0
180180
3e0700
63fc00
600000
c00000
ENDCHAR
STARTCHAR oslashacute
ENCODING 511
SWIDTH 515 0
DWIDTH 17 0
BBX 12 21 2 0
BITMAP
0200
0400
0800
0000
0000
1f60
31c0
60c0
60e0
c120
c330
c230
c630
c430
c830
d830
d030
7060
6060
79c0
df80
ENDCHAR
STARTCHAR uni0200
ENCODING 512
SWIDTH 732 0
DWIDTH 24 0
BBX 22 26 1 0
BITMAP
063000
010800
008400
001000
003000
001800
003800
003800
003c00
005c00
005c00
008e00
008e00
008e00
01ff00
010700
020700
020380
020380
0401c0
0401c0
0801c0
0800e0
1800e0
1800f0
ff03fc
ENDCHAR
STARTCHAR uni0201
ENCODING 513
SWIDTH 400 0
DWIDTH 13 0
BBX 13 22 0 0
BITMAP
3300
0880
0440
0000
0000
0000
0f00
1f80
23c0
71c0
71c0
21c0
01c0
03c0
1dc0
31c0
61c0
e1c0
e1c0
e1c8
73d0
3ce0
ENDCHAR
STARTCHAR uni0202
ENCODING 514
SWIDTH 732 0
DWIDTH 24 0
BBX 22 26 1 0
BITMAP
003800
007c00
008200
009200
003000
001800
003800
003800
003c00
005c00
005c00
008e00
008e00
008e00
01ff00
010700
020700
020380
020380
0401c0
0401c0
0801c0
0800e0
1800e0
1800f0
ff03fc
ENDCHAR
STARTCHAR uni0203
ENCODING 515
SWIDTH 400 0
DWIDTH 13 0
BBX 13 21 0 0
BITMAP
0700
0f80
1040
1040
0000
0f00
1f80
23c0
71c0
71c0
21c0
01c0
03c0
1dc0
31c0
61c0
e1c0
e1c0
e1c8
73d0
3ce0
ENDCHAR
STARTCHAR uni0204
ENCODING 516
SWIDTH 584 0
DWIDTH 19 0
BBX 18 26 0 0
BITMAP
18c000
042000
021000
000000
ffff00
1c0700
1c0300
1c0180
1c0080
1c0080
1c0880
1c0800
1c1800
1c1800
1ff800
1c1800
1c1800
1c0800
1c0800
1c0040
1c0080
1c0080
1c0180
1c0180
1c0700
ffff00
ENDCHAR
STARTCHAR uni0205
ENCODING 517
SWIDTH 457 0
DWIDTH 15 0
BBX 12 21 1 0
BITMAP
6300
1080
0840
0000
0000
0f80
1fc0
3060
6060
6030
fff0
fff0
e000
e000
e000
e000
e010
7030
38f0
3fe0
0f80
ENDCHAR
STARTCHAR uni0206
ENCODING 518
SWIDTH 584 0
DWIDTH 19 0
BBX 17 27 0 0
BITMAP
00e000
01f000
020800
020800
000000
ffff00
1c0700
1c0300
1c0180
1c0080
1c0080
1c0880
1c0800
1c1800
1c1800
1ff800
1c1800
1c1800
1c0800
1c0800
1c0000
1c0080
1c0080
1c0180
1c0100
1c0300
ffff00
ENDCHAR
STARTCHAR uni0207
ENCODING 519
SWIDTH 457 0
DWIDTH 15 0
BBX 12 21 1 0
BITMAP
0700
0f80
1040
1040
0000
0f80
1fc0
3060
6060
6030
fff0
fff0
e000
e000
e000
e000
e010
7030
38f0
3fe0
0f80
ENDCHAR
STARTCHAR uni0208
ENCODING 520
SWIDTH 297 0
DWIDTH 10 0
BBX 10 26 0 0
BITMAP
c600
2100
1080
0000
7fc0
0e00
0e00
0e00
0e00
0e00
0e00
0e00
0e00
0e00
0e00
0e00
0e00
0e00
0e00
0e00
0e00
0e00
0e00
0e00
0e00
7fc0
ENDCHAR
STARTCHAR uni0209
ENCODING 521
SWIDTH 262 0
DWIDTH 9 0
BBX 10 22 -2 0
BITMAP
c600
2100
1080
0000
0000
0000
0000
0300
0f00
0700
0700
0700
0700
0700
0700
0700
0700
0700
0700
0700
0700
1fc0
ENDCHAR
STARTCHAR uni020A
ENCODING 522
SWIDTH 297 0
DWIDTH 10 0
BBX 9 27 1 0
BITMAP
1c00
3e00
4100
4100
0000
ff80
1c00
1c00
1c00
1c00
1c00
1c00
1c00
1c00
1c00
1c00
1c00
1c00
1c00
1c00
1c00
1c00
1c00
1c00
1c00
1c00
ff80
ENDCHAR
STARTCHAR uni020B
ENCODING 523
SWIDTH 262 0
DWIDTH 9 0
BBX 7 22 1 0
BITMAP
38
7c
82
82
00
00
00
18
78
38
38
38
38
38
38
38
38
38
38
38
38
fe
ENDCHAR
STARTCHAR uni020C
ENCODING 524
SWIDTH 710 0
DWIDTH 23 0
BBX 20 26 2 0
BITMAP
0c6000
021000
010800
000000
03fc00
0e0700
180380
3801c0
7000e0
7000e0
e00070
e00070
e00070
e00070
e00070
e00070
e00070
e00070
e00070
700070
7000e0
3000e0
3800c0
180180
0e0700
03fc00
ENDCHAR
STARTCHAR uni020D
ENCODING 525
SWIDTH 482 0
DWIDTH 16 0
BBX 14 21 1 0
BITMAP
3300
0880
0440
0000
0000
0fc0
3cf0
3030
7038
7038
e01c
e01c
e01c
e01c
e01c
e01c
7038
7038
3030
38f0
0fc0
ENDCHAR
STARTCHAR uni020E
ENCODING 526
SWIDTH 710 0
DWIDTH 23 0
BBX 20 27 2 0
BITMAP
00f000
01f800
020400
020400
000000
03fc00
0e0700
180380
3801c0
7000e0
7000e0
e00070
e00070
e00070
e00070
e00070
e00070
e00070
e00070
e00070
700070
7000e0
3000e0
3800c0
180180
0e0700
03fc00
ENDCHAR
STARTCHAR uni020F
ENCODING 527
SWIDTH 482 0
DWIDTH 16 0
BBX 14 21 1 0
BITMAP
0780
0fc0
1020
1020
0000
0fc0
3cf0
3030
7038
7038
e01c
e01c
e01c
e01c
e01c
e01c
7038
7038
3030
38f0
0fc0
ENDCHAR
STARTCHAR uni0210
ENCODING 528
SWIDTH 627 0
DWIDTH 21 0
BBX 20 26 1 0
BITMAP
330000
088000
044000
000000
fff800
381c00
380e00
380e00
380e00
380e00
380e00
380c00
381c00
3ff000
386000
387000
383000
383800
381800
381c00
380e00
380600
380700
380300
380380
ff01f0
ENDCHAR
STARTCHAR uni0211
ENCODING 529
SWIDTH 345 0
DWIDTH 11 0
BBX 10 21 0 0
BITMAP
6600
1100
0880
0000
0000
0980
3bc0
7d80
3800
3800
3800
3800
3800
3800
3800
3800
3800
3800
3800
3800
fe00
ENDCHAR
STARTCHAR uni0212
ENCODING 530
SWIDTH 627 0
DWIDTH 21 0
BBX 20 27 1 0
BITMAP
038000
07c000
082000
082000
000000
fff800
381c00
380e00
380e00
380e00
380e00
380e00
380c00
381c00
3ff000
386000
387000
383000
383800
381800
381c00
380e00
380600
380700
380300
380380
ff01f0
ENDCHAR
STARTCHAR uni0213
ENCODING 531
SWIDTH 345 0
DWIDTH 11 0
BBX 10 22 0 0
BITMAP
0e00
1f00
2080
2080
0000
0000
0980
3bc0
7d80
3800
3800
3800
3800
3800
3800
3800
3800
3800
3800
3800
3800
fe00
ENDCHAR
STARTCHAR uni0214
ENCODING 532
SWIDTH 656 0
DWIDTH 22 0
BBX 20 26 1 0
BITMAP
031800
008400
004200
000000
ff87f0
3e01c0
1c0080
1c0080
1c0080
1c0080
1c0080
1c0080
1c0080
1c0080
1c0080
1c0080
1c0080
1c0080
1c0080
1c0080
1c0080
1c0080
0c0100
0e0100
070600
01f800
ENDCHAR
STARTCHAR uni0215
ENCODING 533
SWIDTH 524 0
DWIDTH 17 0
BBX 15 21 1 0
BITMAP
6600
1100
0880
0000
0000
0000
f87c
381c
381c
381c
381c
381c
381c
381c
381c
381c
381c
381c
383e
385c
1f90
ENDCHAR
STARTCHAR uni0216
ENCODING 534
SWIDTH 656 0
DWIDTH 22 0
BBX 7 4 8 23
BITMAP
38
7c
82
82
ENDCHAR
STARTCHAR uni0217
ENCODING 535
SWIDTH 524 0
DWIDTH 17 0
BBX 15 21 1 0
BITMAP
0700
0f80
1040
1040
0000
0000
f078
3018
3018
3018
3018
3018
3018
3018
3018
3018
3018
3018
303e
385c
1f90
ENDCHAR
STARTCHAR Scommaaccent
ENCODING 536
SWIDTH 502 0
DWIDTH 17 0
BBX 14 29 1 -7
BITMAP
0f08
30d8
6038
4018
c018
c008
c008
e000
7000
3c00
0f80
03e0
00f0
0038
001c
400c
400c
400c
6008
7018
4830
47c0
0000
0180
03c0
01c0
0180
0100
0200
ENDCHAR
STARTCHAR scommaaccent
ENCODING 537
SWIDTH 385 0
DWIDTH 13 0
BBX 10 24 1 -8
BITMAP
1e00
6180
4080
c080
c000
e000
7800
3e00
1f00
0780
01c0
40c0
40c0
40c0
6180
3f00
0000
0c00
1e00
1e00
0e00
0c00
0800
1000
ENDCHAR
STARTCHAR Tcommaaccent
ENCODING 538
SWIDTH 741 0
DWIDTH 24 0
BBX 22 29 1 -7
BITMAP
3ffff0
383038
603018
403008
403004
803004
003000
003000
003000
003000
003000
003000
003000
003000
003000
003000
003000
003000
003000
003000
003000
01fe00
000000
003000
007800
007800
003000
003000
004000
ENDCHAR
STARTCHAR tcommaaccent
ENCODING 539
SWIDTH 265 0
DWIDTH 9 0
BBX 7 25 1 -7
BITMAP
10
30
70
fe
30
30
30
30
30
30
30
30
30
30
30
32
3c
18
00
10
38
38
18
10
60
ENDCHAR
STARTCHAR uni021C
ENCODING 540
SWIDTH 539 0
DWIDTH 18 0
BBX 16 27 1 -5
BITMAP
37f0
3e7c
381c
301e
700e
600e
600e
001e
001c
0038
01e0
03fc
001e
000e
000f
000f
000f
000f
001e
003c
00f8
07e0
0f00
1c00
3000
6000
c000
ENDCHAR
STARTCHAR uni021D
ENCODING 541
SWIDTH 464 0
DWIDTH 15 0
BBX 11 18 2 -3
BITMAP
4f00
71c0
40e0
40e0
c0e0
00c0
0180
0e00
01c0
00e0
00e0
00e0
00e0
01c0
0f00
3800
4000
8000
ENDCHAR
STARTCHAR uni021E
ENCODING 542
SWIDTH 695 0
DWIDTH 23 0
BBX 20 26 1 0
BITMAP
008800
005000
002000
000000
ff0ff0
180180
180180
180180
180180
180180
180180
180180
180180
180180
1fff80
180180
180180
180180
180180
180180
180180
180180
180180
180180
180180
ff0ff0
ENDCHAR
STARTCHAR uni021F
ENCODING 543
SWIDTH 510 0
DWIDTH 17 0
BBX 15 26 1 0
BITMAP
0440
0280
0100
0000
1000
7000
f000
3000
3000
3000
31f0
3638
3818
3018
3018
3018
3018
3018
3018
3018
3018
3018
3018
3018
3018
fc7e
ENDCHAR
STARTCHAR uni0222
ENCODING 546
SWIDTH 580 0
DWIDTH 19 0
BBX 17 20 -1 0
BITMAP
003000
038800
0c0c00
180600
380600
380600
3c0c00
1e1800
0fe000
07f000
0cfc00
303e00
600f00
c00780
c00380
c00380
600300
700600
1c0c00
07f000
ENDCHAR
STARTCHAR uni0223
ENCODING 547
SWIDTH 472 0
DWIDTH 16 0
BBX 13 19 2 0
BITMAP
18c0
3060
7060
7060
7060
78e0
3dc0
1f00
0f80
17e0
61f0
40f0
4078
c038
c038
4030
6070
30e0
0f80
ENDCHAR
STARTCHAR uni0224
ENCODING 548
SWIDTH 582 0
DWIDTH 19 0
BBX 17 26 1 -4
BITMAP
3fff80
3c0700
300600
200e00
201c00
401800
003800
007000
006000
00e000
01c000
018000
038000
070000
060000
0e0000
1c0000
180000
380000
700000
600000
ffff00
000180
000180
000100
000200
ENDCHAR
STARTCHAR uni0225
ENCODING 549
SWIDTH 404 0
DWIDTH 13 0
BBX 12 19 0 -4
BITMAP
3ff0
20e0
20c0
4180
4380
0300
0600
0600
0c00
1800
1800
3000
2000
6000
ff80
00c0
00c0
0080
0100
ENDCHAR
STARTCHAR uni0226
ENCODING 550
SWIDTH 732 0
DWIDTH 24 0
BBX 22 27 1 0
BITMAP
003800
001800
000000
000000
001000
003000
001800
003800
003800
002c00
004c00
004400
008600
008600
010200
01ff00
010300
020380
020180
040180
0400c0
0400c0
0800c0
080060
180060
380070
ff01fc
ENDCHAR
STARTCHAR uni0227
ENCODING 551
SWIDTH 400 0
DWIDTH 13 0
BBX 12 20 1 0
BITMAP
0e00
0600
0000
0000
0f00
3380
6180
6180
4180
0180
0180
0780
1980
6180
4180
c180
c180
c380
e390
3ce0
ENDCHAR
STARTCHAR uni0228
ENCODING 552
SWIDTH 584 0
DWIDTH 19 0
BBX 16 29 1 -7
BITMAP
fffe
180e
1806
1803
1801
1801
1811
1810
1830
1870
1ff0
1870
1830
1810
1810
1800
1801
1801
1803
1802
180e
fffe
0100
01e0
0070
0030
0030
0060
03c0
ENDCHAR
STARTCHAR uni0229
ENCODING 553
SWIDTH 457 0
DWIDTH 15 0
BBX 12 23 1 -7
BITMAP
0f00
18c0
3040
6060
6020
e030
fff0
c000
c000
c000
c000
e010
6030
7060
3fc0
0f80
0400
0780
01c0
00c0
00c0
0180
0f00
ENDCHAR
STARTCHAR uni022A
ENCODING 554
SWIDTH 710 0
DWIDTH 23 0
BBX 20 31 2 -1
BITMAP
03fc00
03fc00
000000
000000
010800
039c00
010800
000000
01f800
060600
0c0300
180180
3000c0
3000c0
600060
600060
c00030
c00030
c00030
c00030
c00030
c00030
c00030
600060
600060
3000c0
3000c0
180180
0c0300
060600
01f800
ENDCHAR
STARTCHAR uni022B
ENCODING 555
SWIDTH 482 0
DWIDTH 16 0
BBX 12 23 2 0
BITMAP
3f80
0000
39c0
39c0
39c0
0000
0000
0f00
30c0
6040
6060
c020
c030
c030
c030
c030
c030
c030
c020
6060
6040
30c0
0f00
ENDCHAR
STARTCHAR uni022C
ENCODING 556
SWIDTH 710 0
DWIDTH 23 0
BBX 20 30 2 -1
BITMAP
03f800
000000
000000
01ec00
01fc00
033800
000000
01f800
060600
0c0300
180180
3000c0
200040
600060
600060
400020
c00030
c00030
c00030
c00030
c00030
400020
600060
600060
200040
3000c0
180180
0c0300
060600
01f800
ENDCHAR
STARTCHAR uni022D
ENCODING 557
SWIDTH 482 0
DWIDTH 16 0
BBX 12 24 2 0
BITMAP
3f80
3f80
0000
0000
1ec0
3780
0000
0000
0f00
30c0
6040
6060
c020
c030
c030
c030
c030
c030
c030
c020
6060
6040
30c0
0f00
ENDCHAR
STARTCHAR uni022E
ENCODING 558
SWIDTH 710 0
DWIDTH 23 0
BBX 20 28 2 -1
BITMAP
006000
006000
000000
000000
000000
01f800
060600
0c0300
180180
3000c0
200040
600060
600060
400020
c00030
c00030
c00030
c00030
c00030
400020
600060
600060
200040
3000c0
180180
0c0300
060600
01f800
ENDCHAR
STARTCHAR uni022F
ENCODING 559
SWIDTH 482 0
DWIDTH 16 0
BBX 12 20 2 0
BITMAP
0600
0600
0000
0000
0f00
30c0
6040
6060
c020
c030
c030
c030
c030
c030
c030
c020
6060
6040
30c0
0f00
ENDCHAR
STARTCHAR uni0230
ENCODING 560
SWIDTH 710 0
DWIDTH 23 0
BBX 20 32 2 -1
BITMAP
03fc00
000000
000000
000000
006000
006000
000000
000000
000000
01f800
060600
0c0300
180180
3000c0
600060
600060
600060
c00030
c00030
c00030
c00030
c00030
c00030
c00030
600060
600060
600060
3000c0
180180
0c0300
060600
01f800
ENDCHAR
STARTCHAR uni0231
ENCODING 561
SWIDTH 482 0
DWIDTH 16 0
BBX 12 25 2 0
BITMAP
3fc0
3fc0
0000
0000
0000
0600
0600
0000
0000
0f00
30c0
6060
6060
c030
c030
c030
c030
c030
c030
c030
c030
6060
6060
30c0
0f00
ENDCHAR
STARTCHAR uni0232
ENCODING 562
SWIDTH 653 0
DWIDTH 22 0
BBX 20 25 1 0
BITMAP
03f800
000000
000000
fe07f0
380380
180300
0c0200
0c0200
060400
060800
030800
019000
01a000
00c000
00c000
00c000
00c000
00c000
00c000
00c000
00c000
00c000
00c000
00c000
07f800
ENDCHAR
STARTCHAR uni0233
ENCODING 563
SWIDTH 440 0
DWIDTH 15 0
BBX 15 22 0 -3
BITMAP
0fe0
0000
0000
0000
fc7e
3018
3010
1810
1820
1820
0c40
0c40
0c80
0480
0700
0700
0200
0200
0400
3400
7800
3000
ENDCHAR
STARTCHAR uni0250
ENCODING 592
SWIDTH 400 0
DWIDTH 13 0
BBX 11 16 1 0
BITMAP
6380
b4c0
b860
3060
3060
3060
30c0
3180
3600
3800
3020
3060
3060
30c0
3080
1f00
ENDCHAR
STARTCHAR uni0251
ENCODING 593
SWIDTH 487 0
DWIDTH 16 0
BBX 13 16 1 0
BITMAP
0700
18d0
3030
6030
6030
c030
c030
c030
c030
c030
c030
6030
6030
6038
3070
0fa0
ENDCHAR
STARTCHAR uni0252
ENCODING 594
SWIDTH 487 0
DWIDTH 16 0
BBX 13 17 1 -1
BITMAP
2780
7860
f020
6030
6010
6018
6018
6018
6018
6018
6018
6018
6010
6030
6020
7840
4780
ENDCHAR
STARTCHAR uni0253
ENCODING 595
SWIDTH 489 0
DWIDTH 16 0
BBX 14 23 2 0
BITMAP
3c00
6e00
e400
e000
e000
e000
e000
efc0
f0f0
e070
c078
c038
c038
c03c
c03c
c03c
c03c
c038
c038
c070
e070
e0e0
df80
ENDCHAR
STARTCHAR uni0254
ENCODING 596
SWIDTH 424 0
DWIDTH 14 0
BBX 12 17 0 -1
BITMAP
0f00
3fc0
61e0
40e0
8060
8070
0030
0030
0030
0030
0030
6020
7060
7040
70c0
2180
1e00
ENDCHAR
STARTCHAR uni0255
ENCODING 597
SWIDTH 424 0
DWIDTH 14 0
BBX 11 18 1 -2
BITMAP
0f00
18c0
20c0
60e0
40c0
c040
c000
c000
c180
c7c0
c820
f020
7060
70c0
3f80
2f00
2000
2000
ENDCHAR
STARTCHAR uni0256
ENCODING 598
SWIDTH 548 0
DWIDTH 18 0
BBX 17 25 1 -3
BITMAP
000c00
003c00
003c00
001c00
001c00
001c00
011c00
0efc00
101c00
301c00
601c00
601c00
601c00
e01c00
e01c00
e01c00
601c00
601c00
601c00
301c00
183c00
0ffc00
001c00
000f80
000780
ENDCHAR
STARTCHAR uni0257
ENCODING 599
SWIDTH 546 0
DWIDTH 18 0
BBX 17 24 1 0
BITMAP
000780
000f80
001d80
001c00
001c00
001c00
001c00
001c00
07fc00
183c00
301c00
301c00
601c00
601c00
e01c00
e01c00
e01c00
601c00
601c00
601c00
701c00
301e00
183c00
0ff800
ENDCHAR
STARTCHAR uni0258
ENCODING 600
SWIDTH 457 0
DWIDTH 15 0
BBX 13 16 1 0
BITMAP
0f80
39c0
30e0
7070
6070
e078
fff8
0038
0038
0038
0038
c078
e070
70f0
3fe0
1f80
ENDCHAR
STARTCHAR uni0259
ENCODING 601
SWIDTH 457 0
DWIDTH 15 0
BBX 12 17 1 -1
BITMAP
1f00
3fc0
60e0
c060
8070
0030
0030
0030
0030
0030
fff0
c060
4060
6060
20c0
3180
0f00
ENDCHAR
STARTCHAR uni025A
ENCODING 602
SWIDTH 594 0
DWIDTH 20 0
BBX 18 16 1 0
BITMAP
1f0000
3fc000
61e000
c06000
807000
807000
003000
003400
003c00
00f400
0732c0
386380
e06000
60c000
318000
1f0000
ENDCHAR
STARTCHAR uni025B
ENCODING 603
SWIDTH 464 0
DWIDTH 15 0
BBX 12 15 2 0
BITMAP
1f60
79e0
f060
f060
f060
f000
7800
0f00
7800
f000
f000
f030
f020
78e0
1f80
ENDCHAR
STARTCHAR uni025C
ENCODING 604
SWIDTH 464 0
DWIDTH 15 0
BBX 11 15 2 0
BITMAP
4f00
71c0
40e0
40e0
40e0
00e0
01c0
0e00
01c0
00e0
00e0
80e0
80e0
61c0
1f00
ENDCHAR
STARTCHAR uni025D
ENCODING 605
SWIDTH 579 0
DWIDTH 19 0
BBX 18 15 1 0
BITMAP
4f8000
71e000
607400
407c00
407400
0072c0
01e380
070000
00e000
007000
007000
807000
407000
61e000
1f8000
ENDCHAR
STARTCHAR uni025E
ENCODING 606
SWIDTH 645 0
DWIDTH 21 0
BBX 13 15 1 0
BITMAP
07c0
0ff0
3810
2008
4008
4008
8018
83f0
8310
8008
4008
6008
3830
0ff0
07c0
ENDCHAR
STARTCHAR uni025F
ENCODING 607
SWIDTH 287 0
DWIDTH 9 0
BBX 8 21 0 -5
BITMAP
04
1c
0c
0c
0c
0c
0c
0c
0c
0c
0c
0c
0c
0c
3f
0c
0c
0c
6c
e8
70
ENDCHAR
STARTCHAR uni0260
ENCODING 608
SWIDTH 457 0
DWIDTH 15 0
BBX 14 23 1 -7
BITMAP
0030
0f30
18b0
3040
3060
3060
3060
3060
3060
18c0
1f00
2000
6000
3e00
1fe0
20f8
4018
c00c
c00c
c008
6018
3060
0fc0
ENDCHAR
STARTCHAR uni0261
ENCODING 609
SWIDTH 457 0
DWIDTH 15 0
BBX 14 22 1 -7
BITMAP
0f80
18c0
3060
3060
3060
3060
3060
3060
18c0
1f80
3000
6000
3e00
1fe0
20f8
401c
c00c
c00c
c008
6018
3070
0fc0
ENDCHAR
STARTCHAR uni0262
ENCODING 610
SWIDTH 482 0
DWIDTH 16 0
BBX 14 15 1 0
BITMAP
0fd8
1878
3038
7018
6008
6000
e000
e07c
e038
6038
6038
7038
3038
1870
0fc0
ENDCHAR
STARTCHAR uni0263
ENCODING 611
SWIDTH 593 0
DWIDTH 20 0
BBX 18 22 0 0
BITMAP
fe3fc0
380700
180600
180400
180400
0c0800
0c0800
0c0800
061000
061000
062000
032000
032000
014000
01c000
018000
00c000
00c000
01c000
014000
014000
01c000
ENDCHAR
STARTCHAR uni0264
ENCODING 612
SWIDTH 428 0
DWIDTH 14 0
BBX 12 15 1 0
BITMAP
f9f0
7060
3040
3040
3080
1880
1900
0d00
0d00
0e00
0600
0600
0600
0600
0600
ENDCHAR
STARTCHAR uni0265
ENCODING 613
SWIDTH 510 0
DWIDTH 17 0
BBX 17 22 0 0
BITMAP
ff7f80
180c00
180c00
180c00
180c00
180c00
180c00
180c00
180c00
180c00
180c00
180c00
180c00
181c00
1c6c00
0f8c00
000c00
000c00
000c00
000f00
000e00
000800
ENDCHAR
STARTCHAR uni0266
ENCODING 614
SWIDTH 510 0
DWIDTH 17 0
BBX 16 23 1 0
BITMAP
0f00
1f00
3f00
3800
3800
3800
3800
3800
3bf8
3e3c
3c1c
381c
381c
381c
381c
381c
381c
381c
381c
381c
381c
381c
feff
ENDCHAR
STARTCHAR uni0267
ENCODING 615
SWIDTH 510 0
DWIDTH 17 0
BBX 14 26 1 -3
BITMAP
0f80
1f80
3b80
3800
3800
3800
3800
3800
39f8
3e3c
3c1c
381c
381c
381c
381c
381c
381c
381c
381c
381c
381c
381c
ff1c
001c
00f8
00f0
ENDCHAR
STARTCHAR uni0268
ENCODING 616
SWIDTH 262 0
DWIDTH 9 0
BBX 7 20 1 0
BITMAP
10
38
00
00
00
10
70
30
10
10
10
10
fe
10
10
10
10
10
10
fe
ENDCHAR
STARTCHAR uni0269
ENCODING 617
SWIDTH 295 0
DWIDTH 10 0
BBX 8 16 1 0
BITMAP
10
70
f0
30
30
30
30
30
30
30
30
30
30
31
32
1c
ENDCHAR
STARTCHAR uni026A
ENCODING 618
SWIDTH 297 0
DWIDTH 10 0
BBX 8 15 1 0
BITMAP
ff
18
18
18
18
18
18
18
18
18
18
18
18
18
ff
ENDCHAR
STARTCHAR uni026B
ENCODING 619
SWIDTH 262 0
DWIDTH 9 0
BBX 8 22 0 0
BITMAP
08
38
78
18
18
18
18
38
7f
9c
18
18
18
18
18
18
18
18
18
18
18
7e
ENDCHAR
STARTCHAR uni026C
ENCODING 620
SWIDTH 262 0
DWIDTH 9 0
BBX 8 22 0 0
BITMAP
08
18
38
18
18
18
18
18
78
d8
d8
78
1f
18
18
18
18
18
18
18
18
7e
ENDCHAR
STARTCHAR uni026D
ENCODING 621
SWIDTH 262 0
DWIDTH 9 0
BBX 9 25 1 -3
BITMAP
1800
7800
f800
3800
3800
3800
3800
3800
3800
3800
3800
3800
3800
3800
3800
3800
3800
3800
3800
3800
3800
3800
3b00
1f80
0f00
ENDCHAR
STARTCHAR uni026E
ENCODING 622
SWIDTH 510 0
DWIDTH 17 0
BBX 13 28 1 -6
BITMAP
1800
3800
7800
3800
3800
3800
39e0
3f78
3c38
3818
3818
3818
3818
3818
3838
3838
3830
3830
3830
3870
3860
fe60
0030
3838
7818
6018
3038
1fe0
ENDCHAR
STARTCHAR uni026F
ENCODING 623
SWIDTH 785 0
DWIDTH 26 0
BBX 26 16 0 0
BITMAP
ff7fbfc0
180c0600
180c0600
180c0600
180c0600
180c0600
180c0600
180c0600
180c0600
180c0600
180c0600
180c0600
180c0600
181c0f80
1c6e3700
0f87c400
ENDCHAR
STARTCHAR uni0270
ENCODING 624
SWIDTH 785 0
DWIDTH 26 0
BBX 26 23 0 -7
BITMAP
ff7fbfc0
180c0600
180c0600
180c0600
180c0600
180c0600
180c0600
180c0600
180c0600
180c0600
180c0600
180c0600
180c0600
181c0e00
1c6e3600
0f87c600
00000600
00000600
00000600
00000600
00000700
00000600
00000400
ENDCHAR
STARTCHAR uni0271
ENCODING 625
SWIDTH 785 0
DWIDTH 26 0
BBX 23 21 1 -5
BITMAP
33f8fc
7e3f9e
f81e0e
301c0e
301c0e
301c0e
301c0e
301c0e
301c0e
301c0e
301c0e
301c0e
301c0e
301c0e
301c0e
feff8e
00000e
00000e
00007e
00007c
000078
ENDCHAR
STARTCHAR uni0272
ENCODING 626
SWIDTH 510 0
DWIDTH 17 0
BBX 18 21 -1 -5
BITMAP
06fc00
1f9e00
3f0e00
0e0e00
0e0600
0e0600
0e0600
0e0600
0e0600
0e0600
0e0600
0e0600
0e0600
0e0600
0e0600
0e3fc0
0e0000
0e0000
6c0000
fc0000
780000
ENDCHAR
STARTCHAR uni0273
ENCODING 627
SWIDTH 510 0
DWIDTH 17 0
BBX 17 21 1 -5
BITMAP
09f000
363800
781800
101800
101800
101800
101800
101800
101800
101800
101800
101800
101800
101800
101800
fe1800
001800
001800
000900
000b80
000700
ENDCHAR
STARTCHAR uni0274
ENCODING 628
SWIDTH 584 0
DWIDTH 19 0
BBX 17 15 0 0
BITMAP
781f80
1c0400
0c0400
0e0400
0b0400
0b0400
098400
08c400
08c400
086400
083400
083400
101c00
181c00
fe0c00
ENDCHAR
STARTCHAR uni0275
ENCODING 629
SWIDTH 482 0
DWIDTH 16 0
BBX 12 16 2 0
BITMAP
0f00
30c0
6040
6060
c020
c030
c030
fff0
fff0
c030
c030
c020
6060
6040
30c0
0f00
ENDCHAR
STARTCHAR uni0276
ENCODING 630
SWIDTH 854 0
DWIDTH 28 0
BBX 22 15 0 0
BITMAP
07fff8
1c3818
30180c
601804
601820
401860
c01fe0
c01860
c01820
c01820
601800
601804
301804
183818
0ffff8
ENDCHAR
STARTCHAR uni0277
ENCODING 631
SWIDTH 738 0
DWIDTH 24 0
BBX 21 17 2 0
BITMAP
01f800
060700
080080
300060
200020
600030
c06010
c06018
c06018
c06018
c06018
c06018
606010
606030
306020
38f8c0
0f8f80
ENDCHAR
STARTCHAR uni0278
ENCODING 632
SWIDTH 446 0
DWIDTH 15 0
BBX 13 22 1 0
BITMAP
1fe0
0300
0300
0300
0fc0
1360
3330
6330
6318
c318
c318
c318
c318
6318
6330
2330
3360
1bc0
0700
0300
0300
1fe0
ENDCHAR
STARTCHAR uni0279
ENCODING 633
SWIDTH 345 0
DWIDTH 11 0
BBX 11 16 0 0
BITMAP
1fe0
0300
0300
0300
0300
0300
0300
0300
0300
0300
0300
0300
0300
47c0
fb80
e200
ENDCHAR
STARTCHAR uni027A
ENCODING 634
SWIDTH 345 0
DWIDTH 11 0
BBX 11 23 0 0
BITMAP
1fe0
0300
0300
0300
0300
0300
0300
0300
0300
0300
0300
0300
0300
0300
0300
0300
0300
0300
0300
0300
47c0
fb80
e200
ENDCHAR
STARTCHAR uni027B
ENCODING 635
SWIDTH 345 0
DWIDTH 11 0
BBX 11 18 1 -3
BITMAP
1fc0
0700
0700
0700
0700
0700
0700
0700
0700
0700
0700
0700
4f00
ff00
f700
0700
03e0
01e0
ENDCHAR
STARTCHAR uni027C
ENCODING 636
SWIDTH 345 0
DWIDTH 11 0
BBX 9 22 1 -7
BITMAP
1380
7780
3800
3000
3000
3000
3000
3000
3000
3000
3000
3000
3000
3000
3000
3000
3000
3000
3000
3000
3000
fc00
ENDCHAR
STARTCHAR uni027D
ENCODING 637
SWIDTH 345 0
DWIDTH 11 0
BBX 10 19 1 -3
BITMAP
1380
7fc0
f900
3000
3000
3000
3000
3000
3000
3000
3000
3000
3000
3000
3000
3000
3200
3700
1e00
ENDCHAR
STARTCHAR uni027E
ENCODING 638
SWIDTH 345 0
DWIDTH 11 0
BBX 9 16 0 0
BITMAP
0700
0980
1980
1800
1800
1800
1800
1800
1800
1800
1800
1800
1800
1800
1800
ff00
ENDCHAR
STARTCHAR uni027F
ENCODING 639
SWIDTH 345 0
DWIDTH 11 0
BBX 8 16 1 0
BITMAP
f0
f8
fc
1c
1c
1c
1c
1c
1c
1c
1c
1c
1c
1c
1c
ff
ENDCHAR
STARTCHAR uni0280
ENCODING 640
SWIDTH 515 0
DWIDTH 17 0
BBX 14 15 1 0
BITMAP
ffc0
30e0
3060
3060
3060
30c0
3300
3180
3180
30c0
3060
3060
3030
3038
fc1c
ENDCHAR
STARTCHAR uni0281
ENCODING 641
SWIDTH 515 0
DWIDTH 17 0
BBX 15 16 1 -1
BITMAP
fe1e
3838
3870
3870
38e0
38c0
39c0
3b80
38e0
3870
3870
3870
3870
38f0
ffe0
ffc0
ENDCHAR
STARTCHAR uni0282
ENCODING 642
SWIDTH 385 0
DWIDTH 13 0
BBX 10 19 1 -3
BITMAP
0f00
3180
4080
c040
c040
e000
7000
7c00
1f00
0780
01c0
00c0
4040
4040
6080
7900
4400
2600
1c00
ENDCHAR
STARTCHAR uni0283
ENCODING 643
SWIDTH 272 0
DWIDTH 9 0
BBX 9 27 -1 -5
BITMAP
0300
0580
0d80
0c00
0c00
0c00
0c00
0c00
0c00
0c00
0c00
0c00
0c00
0c00
0c00
0c00
0c00
0c00
0c00
0c00
0c00
0c00
0c00
0c00
cc00
c800
7000
ENDCHAR
STARTCHAR uni0284
ENCODING 644
SWIDTH 272 0
DWIDTH 9 0
BBX 9 27 -1 -5
BITMAP
0300
0580
0d80
0c00
0c00
0c00
0c00
0c00
3e00
0c00
0c00
0c00
0c00
0c00
0c00
0c00
0c00
0c00
0c00
0c00
3e00
0c00
0c00
0c00
cc00
c800
7000
ENDCHAR
STARTCHAR uni0285
ENCODING 645
SWIDTH 272 0
DWIDTH 9 0
BBX 10 27 -1 -5
BITMAP
7800
ec00
ee00
0e00
0e00
0e00
0e00
0e00
0e00
0e00
0e00
0e00
0e00
0e00
0e00
0e00
0e00
0e00
0e00
0e00
0e00
0e00
0e00
0e00
0fc0
07c0
0380
ENDCHAR
STARTCHAR uni0286
ENCODING 646
SWIDTH 272 0
DWIDTH 9 0
BBX 9 27 -1 -5
BITMAP
0300
0580
0d80
0c00
0c00
0c00
0c00
0c00
0c00
0c00
0c00
0c00
0c00
0c00
0c00
0c00
0c00
0c00
0c00
0c00
3c00
4e00
8d00
8d00
8c80
c880
7000
ENDCHAR
STARTCHAR uni0287
ENCODING 647
SWIDTH 265 0
DWIDTH 9 0
BBX 7 18 1 0
BITMAP
70
d8
98
18
18
18
18
18
18
18
18
18
18
18
fe
1c
18
10
ENDCHAR
STARTCHAR uni0288
ENCODING 648
SWIDTH 265 0
DWIDTH 9 0
BBX 9 23 1 -5
BITMAP
1800
3800
3800
7f00
fe00
3800
3800
3800
3800
3800
3800
3800
3800
3800
3800
3800
3800
3800
3800
3800
3b00
1f80
0f00
ENDCHAR
STARTCHAR uni0289
ENCODING 649
SWIDTH 524 0
DWIDTH 17 0
BBX 16 15 0 0
BITMAP
f83c
180c
180c
180c
7fff
180c
180c
180c
180c
180c
180c
180c
181f
1c2e
0fc8
ENDCHAR
STARTCHAR uni028A
ENCODING 650
SWIDTH 518 0
DWIDTH 17 0
BBX 14 15 1 0
BITMAP
3cf8
6cc8
0cc8
0cc0
1ce0
3870
7038
e01c
e01c
e01c
e01c
e01c
7038
3870
0fc0
ENDCHAR
STARTCHAR uni028B
ENCODING 651
SWIDTH 524 0
DWIDTH 17 0
BBX 16 15 0 0
BITMAP
f87e
380e
380f
3807
3807
3807
3807
3807
3807
380e
380e
380e
1c1c
1e78
0fe0
ENDCHAR
STARTCHAR uni028C
ENCODING 652
SWIDTH 465 0
DWIDTH 15 0
BBX 15 16 0 -1
BITMAP
0080
0180
0180
0180
02c0
02c0
0240
0460
0460
0420
0830
0830
0810
1018
3018
fc3e
ENDCHAR
STARTCHAR uni028D
ENCODING 653
SWIDTH 629 0
DWIDTH 21 0
BBX 21 16 0 -1
BITMAP
008200
018200
018600
018700
028b00
02c900
044980
045180
047180
086080
0820c0
0830c0
103040
101060
301860
fc7cf8
ENDCHAR
STARTCHAR uni028E
ENCODING 654
SWIDTH 440 0
DWIDTH 15 0
BBX 15 18 0 0
BITMAP
0018
003c
0058
0040
0080
0080
01c0
01c0
0240
0260
0460
0460
0830
0830
1030
1018
3018
fc7e
ENDCHAR
STARTCHAR uni028F
ENCODING 655
SWIDTH 496 0
DWIDTH 16 0
BBX 14 15 1 0
BITMAP
f87c
7030
3020
1840
18c0
0c80
0d00
0600
0600
0600
0600
0600
0600
0600
1f80
ENDCHAR
STARTCHAR uni0290
ENCODING 656
SWIDTH 404 0
DWIDTH 13 0
BBX 14 18 1 -3
BITMAP
7fe0
60c0
40c0
4180
4300
0300
0600
0c00
0c00
1800
3020
3020
6040
c0c0
ffc0
0048
002c
0018
ENDCHAR
STARTCHAR uni0291
ENCODING 657
SWIDTH 404 0
DWIDTH 13 0
BBX 11 17 1 -2
BITMAP
7fe0
60c0
4180
4180
4300
0700
0600
0e00
0c00
1800
3800
3380
7440
e840
c880
1000
1000
ENDCHAR
STARTCHAR uni0292
ENCODING 658
SWIDTH 465 0
DWIDTH 15 0
BBX 11 22 3 -7
BITMAP
7fe0
40c0
8180
8380
8300
0600
0e00
0c00
1e00
1f80
0380
01c0
00e0
0060
0060
0060
0060
e0c0
e0c0
c180
c700
7c00
ENDCHAR
STARTCHAR uni0293
ENCODING 659
SWIDTH 465 0
DWIDTH 15 0
BBX 13 22 3 -7
BITMAP
7fe0
60c0
4180
4380
8300
0600
0e00
0c00
1c00
1f00
0380
01c0
00e0
0060
0060
3f60
61e0
c0f0
80c8
8180
4700
3c00
ENDCHAR
STARTCHAR uni0294
ENCODING 660
SWIDTH 441 0
DWIDTH 15 0
BBX 13 23 2 -1
BITMAP
1f00
73c0
60e0
f060
f070
3030
0038
0038
0038
0038
0070
00f0
01e0
7fe0
7fc0
7e00
7000
7000
7000
7000
7000
7000
7000
ENDCHAR
STARTCHAR uni0295
ENCODING 661
SWIDTH 441 0
DWIDTH 15 0
BBX 12 23 2 -1
BITMAP
0780
1c60
3020
20f0
6070
4040
c000
c000
c000
c000
6000
7000
3800
3fe0
1fe0
0360
0060
0060
0060
0060
0060
0060
0060
ENDCHAR
STARTCHAR uni0296
ENCODING 662
SWIDTH 441 0
DWIDTH 15 0
BBX 12 22 2 0
BITMAP
6000
6000
6000
6000
6000
6000
6000
7e00
7f80
43c0
00e0
0060
0060
0030
0030
0030
0020
6060
f040
60c0
6180
1e00
ENDCHAR
STARTCHAR uni0297
ENCODING 663
SWIDTH 424 0
DWIDTH 14 0
BBX 12 22 1 0
BITMAP
0f80
10c0
20e0
60e0
4040
c000
c000
c000
c000
c000
c000
c000
c000
c000
c000
c000
c000
e010
6020
7840
3fc0
0f00
ENDCHAR
STARTCHAR uni0298
ENCODING 664
SWIDTH 565 0
DWIDTH 19 0
BBX 15 15 1 0
BITMAP
07c0
1830
3018
600c
600c
c006
c386
c386
c186
c006
600c
600c
3018
1830
07c0
ENDCHAR
STARTCHAR uni0299
ENCODING 665
SWIDTH 452 0
DWIDTH 15 0
BBX 12 15 2 0
BITMAP
ffc0
3860
3860
3860
38e0
39c0
38e0
3860
3860
3870
3870
3860
38e0
39c0
ff80
ENDCHAR
STARTCHAR uni029A
ENCODING 666
SWIDTH 645 0
DWIDTH 21 0
BBX 14 15 1 0
BITMAP
0f80
3fe0
7070
e038
c018
c00c
e00c
7f8c
638c
c00c
c018
e038
7870
3fe0
0f80
ENDCHAR
STARTCHAR uni029B
ENCODING 667
SWIDTH 482 0
DWIDTH 16 0
BBX 16 17 1 0
BITMAP
000e
0797
1852
3030
2010
6010
4008
c000
c07c
c030
c030
4030
6030
6030
3030
1060
0f80
ENDCHAR
STARTCHAR uni029C
ENCODING 668
SWIDTH 562 0
DWIDTH 19 0
BBX 15 15 1 0
BITMAP
fc7e
3018
3018
3018
3018
3018
3018
3ff8
3018
3018
3018
3018
3018
3018
fc7e
ENDCHAR
STARTCHAR uni029D
ENCODING 669
SWIDTH 287 0
DWIDTH 9 0
BBX 11 21 -2 -5
BITMAP
0080
0300
0700
0300
0300
0300
0300
0300
0300
0300
0300
0300
0300
0300
0300
3f00
43e0
8300
8300
c200
3c00
ENDCHAR
ENDFONT
